<svg xmlns="http://www.w3.org/2000/svg" viewBox="0 0 402 85"><path d="M43.80019289503295 65.82100948400578Q32.863044526603446 65.82100948400578 26.931522263301723 60.26563253496222Q21 54.71025558591866 21 42.5Q21 19.178990515994215 43.684455875261214 19.178990515994215Q49.181964314418906 19.178990515994215 53.898247870117345 20.509966243369234Q58.614531425815784 21.840941970744254 60.9292718212506 23.461260247548623L60.9292718212506 37.928387719016236L47.0408294486417 37.928387719016236L47.0408294486417 33.761855007233564Q47.0408294486417 31.56285163157049 46.0570647805819 30.52121845362482Q45.073300112522105 29.47958527567915 43.10577077640251 29.47958527567915Q41.13824144028291 29.47958527567915 40.15447677222312 30.52121845362482Q39.170712104163314 31.56285163157049 39.170712104163314 33.761855007233564L39.170712104163314 51.238144992766436Q39.170712104163314 53.43714836842951 40.15447677222312 54.47878154637518Q41.13824144028291 55.52041472432085 43.10577077640251 55.52041472432085Q45.073300112522105 55.52041472432085 46.0570647805819 54.47878154637518Q47.0408294486417 53.43714836842951 47.0408294486417 51.238144992766436L47.0408294486417 46.55079569201093L60.9292718212506 46.55079569201093L60.9292718212506 61.53873975245138Q58.55666291592991 63.159058029255746 53.898247870117345 64.49003375663077Q49.23983282430478 65.82100948400578 43.80019289503295 65.82100948400578Z" fill="currentColor" fill-rule="evenodd"/><path d="M109.42308310561003 29.47958527567915L106.52965761131651 29.47958527567915L106.52965761131651 55.52041472432085L109.42308310561003 55.52041472432085L109.42308310561003 65.0108503456036L87.54878636875101 65.0108503456036L87.54878636875101 55.52041472432085L90.32647484327279 55.52041472432085L90.32647484327279 45.97211059315222L82.22488345925092 45.97211059315222L82.22488345925092 55.52041472432085L85.00257193377271 55.52041472432085L85.00257193377271 65.0108503456036L63.12827519691368 65.0108503456036L63.12827519691368 55.52041472432085L66.0217006912072 55.52041472432085L66.0217006912072 29.47958527567915L63.12827519691368 29.47958527567915L63.12827519691368 19.9891496543964L85.00257193377271 19.9891496543964L85.00257193377271 29.47958527567915L82.22488345925092 29.47958527567915L82.22488345925092 38.27559877833146L90.32647484327279 38.27559877833146L90.32647484327279 29.47958527567915L87.54878636875101 29.47958527567915L87.54878636875101 19.9891496543964L109.42308310561003 19.9891496543964Z" fill="currentColor" fill-rule="evenodd"/><path d="M154.21330975727375 55.52041472432085L156.52805015270857 55.52041472432085L156.52805015270857 65.0108503456036L133.84359427744735 65.0108503456036L133.84359427744735 55.52041472432085L137.31570487059957 55.52041472432085L136.38980871242566 50.890933933451215L128.51969136794727 50.890933933451215L127.59379520977336 55.52041472432085L131.06590580292558 55.52041472432085L131.06590580292558 65.0108503456036L111.27487542195789 65.0108503456036L111.27487542195789 55.52041472432085L113.58961581739271 55.52041472432085L123.36939398810482 19.9891496543964L144.43353158656166 19.9891496543964ZM129.79279858543643 44.75687188554895L135.1167014949365 44.75687188554895L132.74409258961583 33.24103841826073L132.1654074907571 33.24103841826073Z" fill="currentColor" fill-rule="evenodd"/><path d="M176.31908053367624 65.82100948400578Q170.76370358463268 65.82100948400578 165.81594598939077 64.86617907088892Q160.86818839414883 63.91134865777206 158.2062369393988 62.69610995016878L158.2062369393988 51.238144992766436L170.9373091142903 51.238144992766436Q170.9373091142903 53.03206879922842 171.74746825269247 53.842227937630604Q172.55762739109466 54.652387076032795 174.69876225687187 54.652387076032795Q176.49268606333385 54.652387076032795 177.2739109467931 54.10263623211702Q178.05513583025237 53.552885388201254 178.05513583025237 52.45338370036971Q178.05513583025237 51.527487542195786 177.30284520173603 50.861999678508276Q176.55055457321973 50.19651181482077 174.69876225687187 49.502089696190325L169.722070406687 47.76603439961421Q163.29866580935538 45.33555698440765 160.4920430798907 42.037051920913036Q157.68542035042597 38.73854685741842 157.68542035042597 33.125301398488986Q157.68542035042597 26.296817231956275 162.1702298665809 22.73790387397525Q166.65503938273588 19.178990515994215 177.12923967207843 19.178990515994215Q182.16380003214917 19.178990515994215 186.59074103841826 20.191689438996946Q191.01768204468732 21.204388361999676 193.73750200932324 22.882575148689924L193.73750200932324 33.24103841826073L182.16380003214917 33.24103841826073Q182.16380003214917 30.347612923967205 178.5759524192252 30.347612923967205Q176.8398971226491 30.347612923967205 176.1165407490757 30.781626748111236Q175.39318437550233 31.215640572255268 175.39318437550233 32.3151422600868Q175.39318437550233 33.2989069281466 176.23227776884744 33.877592027005306Q177.07137116219258 34.456277125864005 178.98103198842628 35.09283073460858L184.01559234849702 36.828886031184695Q190.14965439639928 38.912152387076034 192.956277125864 42.23959170551358Q195.76289985532873 45.56703102395113 195.76289985532873 50.94880244333709Q195.76289985532873 58.29810319884263 190.8151422600868 62.059556341424205Q185.86738466484488 65.82100948400578 176.31908053367624 65.82100948400578Z" fill="currentColor" fill-rule="evenodd"/><path d="M197.3832181321331 65.0108503456036L197.3832181321331 55.52041472432085L200.27664362642662 55.52041472432085L200.27664362642662 29.47958527567915L197.3832181321331 29.47958527567915L197.3832181321331 19.9891496543964L236.44446230509564 19.9891496543964L236.44446230509564 37.46543963992927L223.48191609066066 37.46543963992927L223.48191609066066 29.47958527567915L216.47982639447036 29.47958527567915L216.47982639447036 38.622809837646685L221.57225526442696 38.622809837646685L221.57225526442696 45.21981996463591L216.47982639447036 45.21981996463591L216.47982639447036 55.52041472432085L223.48191609066066 55.52041472432085L223.48191609066066 46.377190162353315L236.44446230509564 46.377190162353315L236.44446230509564 65.0108503456036Z" fill="currentColor" fill-rule="evenodd"/><path d="M281.3504259765311 65.82100948400578Q270.41327760810157 65.82100948400578 264.4817553447998 60.26563253496222Q258.5502330814981 54.71025558591866 258.5502330814981 42.5Q258.5502330814981 19.178990515994215 281.2346889567593 19.178990515994215Q286.732197395917 19.178990515994215 291.44848095161547 20.509966243369234Q296.16476450731386 21.840941970744254 298.4795049027487 23.461260247548623L298.4795049027487 37.928387719016236L284.5910625301398 37.928387719016236L284.5910625301398 33.761855007233564Q284.5910625301398 31.56285163157049 283.60729786208003 30.52121845362482Q282.6235331940202 29.47958527567915 280.6560038579006 29.47958527567915Q278.688474521781 29.47958527567915 277.7047098537212 30.52121845362482Q276.72094518566144 31.56285163157049 276.72094518566144 33.761855007233564L276.72094518566144 51.238144992766436Q276.72094518566144 53.43714836842951 277.7047098537212 54.47878154637518Q278.688474521781 55.52041472432085 280.6560038579006 55.52041472432085Q282.6235331940202 55.52041472432085 283.60729786208003 54.47878154637518Q284.5910625301398 53.43714836842951 284.5910625301398 51.238144992766436L284.5910625301398 46.55079569201093L298.4795049027487 46.55079569201093L298.4795049027487 61.53873975245138Q296.106895997428 63.159058029255746 291.44848095161547 64.49003375663077Q286.79006590580286 65.82100948400578 281.3504259765311 65.82100948400578Z" fill="currentColor" fill-rule="evenodd"/><path d="M300.6785082784118 65.0108503456036L300.6785082784118 55.52041472432085L303.57193377270534 55.52041472432085L303.57193377270534 29.47958527567915L300.6785082784118 29.47958527567915L300.6785082784118 19.9891496543964L339.7397524513744 19.9891496543964L339.7397524513744 37.46543963992927L326.7772062369394 37.46543963992927L326.7772062369394 29.47958527567915L319.7751165407491 29.47958527567915L319.7751165407491 38.622809837646685L324.86754541070565 38.622809837646685L324.86754541070565 45.21981996463591L319.7751165407491 45.21981996463591L319.7751165407491 55.52041472432085L326.7772062369394 55.52041472432085L326.7772062369394 46.377190162353315L339.7397524513744 46.377190162353315L339.7397524513744 65.0108503456036Z" fill="currentColor" fill-rule="evenodd"/><path d="M341.9387558270374 65.0108503456036L341.9387558270374 55.52041472432085L344.83218132133095 55.52041472432085L344.83218132133095 29.47958527567915L341.9387558270374 29.47958527567915L341.9387558270374 19.9891496543964L381 19.9891496543964L381 37.46543963992927L368.037453785565 37.46543963992927L368.037453785565 29.47958527567915L361.0353640893747 29.47958527567915L361.0353640893747 38.622809837646685L366.12779295933126 38.622809837646685L366.12779295933126 45.21981996463591L361.0353640893747 45.21981996463591L361.0353640893747 55.52041472432085L368.037453785565 55.52041472432085L368.037453785565 46.377190162353315L381 46.377190162353315L381 65.0108503456036Z" fill="currentColor" fill-rule="evenodd"/></svg>
