<svg xmlns="http://www.w3.org/2000/svg" viewBox="0 0 402 85"><path d="M43.8 65.8Q32.9 65.8 26.9 60.3Q21 54.7 21 42.5Q21 19.2 43.7 19.2Q49.2 19.2 53.9 20.5Q58.6 21.8 60.9 23.5L60.9 37.9L47 37.9L47 33.8Q47 31.6 46.1 30.5Q45.1 29.5 43.1 29.5Q41.1 29.5 40.2 30.5Q39.2 31.6 39.2 33.8L39.2 51.2Q39.2 53.4 40.2 54.5Q41.1 55.5 43.1 55.5Q45.1 55.5 46.1 54.5Q47 53.4 47 51.2L47 46.6L60.9 46.6L60.9 61.5Q58.6 63.2 53.9 64.5Q49.2 65.8 43.8 65.8Z" fill="currentColor" fill-rule="evenodd"/><path d="M109.4 29.5L106.5 29.5L106.5 55.5L109.4 55.5L109.4 65L87.5 65L87.5 55.5L90.3 55.5L90.3 46L82.2 46L82.2 55.5L85 55.5L85 65L63.1 65L63.1 55.5L66 55.5L66 29.5L63.1 29.5L63.1 20L85 20L85 29.5L82.2 29.5L82.2 38.3L90.3 38.3L90.3 29.5L87.5 29.5L87.5 20L109.4 20Z" fill="currentColor" fill-rule="evenodd"/><path d="M154.2 55.5L156.5 55.5L156.5 65L133.8 65L133.8 55.5L137.3 55.5L136.4 50.9L128.5 50.9L127.6 55.5L131.1 55.5L131.1 65L111.3 65L111.3 55.5L113.6 55.5L123.4 20L144.4 20ZM129.8 44.8L135.1 44.8L132.7 33.2L132.2 33.2Z" fill="currentColor" fill-rule="evenodd"/><path d="M176.3 65.8Q170.8 65.8 165.8 64.9Q160.9 63.9 158.2 62.7L158.2 51.2L170.9 51.2Q170.9 53 171.7 53.8Q172.6 54.7 174.7 54.7Q176.5 54.7 177.3 54.1Q178.1 53.6 178.1 52.5Q178.1 51.5 177.3 50.9Q176.6 50.2 174.7 49.5L169.7 47.8Q163.3 45.3 160.5 42Q157.7 38.7 157.7 33.1Q157.7 26.3 162.2 22.7Q166.7 19.2 177.1 19.2Q182.2 19.2 186.6 20.2Q191 21.2 193.7 22.9L193.7 33.2L182.2 33.2Q182.2 30.3 178.6 30.3Q176.8 30.3 176.1 30.8Q175.4 31.2 175.4 32.3Q175.4 33.3 176.2 33.9Q177.1 34.5 179 35.1L184 36.8Q190.1 38.9 193 42.2Q195.8 45.6 195.8 50.9Q195.8 58.3 190.8 62.1Q185.9 65.8 176.3 65.8Z" fill="currentColor" fill-rule="evenodd"/><path d="M197.4 65L197.4 55.5L200.3 55.5L200.3 29.5L197.4 29.5L197.4 20L236.4 20L236.4 37.5L223.5 37.5L223.5 29.5L216.5 29.5L216.5 38.6L221.6 38.6L221.6 45.2L216.5 45.2L216.5 55.5L223.5 55.5L223.5 46.4L236.4 46.4L236.4 65Z" fill="currentColor" fill-rule="evenodd"/><path d="M281.4 65.8Q270.4 65.8 264.5 60.3Q258.6 54.7 258.6 42.5Q258.6 19.2 281.2 19.2Q286.7 19.2 291.4 20.5Q296.2 21.8 298.5 23.5L298.5 37.9L284.6 37.9L284.6 33.8Q284.6 31.6 283.6 30.5Q282.6 29.5 280.7 29.5Q278.7 29.5 277.7 30.5Q276.7 31.6 276.7 33.8L276.7 51.2Q276.7 53.4 277.7 54.5Q278.7 55.5 280.7 55.5Q282.6 55.5 283.6 54.5Q284.6 53.4 284.6 51.2L284.6 46.6L298.5 46.6L298.5 61.5Q296.1 63.2 291.4 64.5Q286.8 65.8 281.4 65.8Z" fill="currentColor" fill-rule="evenodd"/><path d="M300.7 65L300.7 55.5L303.6 55.5L303.6 29.5L300.7 29.5L300.7 20L339.7 20L339.7 37.5L326.8 37.5L326.8 29.5L319.8 29.5L319.8 38.6L324.9 38.6L324.9 45.2L319.8 45.2L319.8 55.5L326.8 55.5L326.8 46.4L339.7 46.4L339.7 65Z" fill="currentColor" fill-rule="evenodd"/><path d="M341.9 65L341.9 55.5L344.8 55.5L344.8 29.5L341.9 29.5L341.9 20L381 20L381 37.5L368 37.5L368 29.5L361 29.5L361 38.6L366.1 38.6L366.1 45.2L361 45.2L361 55.5L368 55.5L368 46.4L381 46.4L381 65Z" fill="currentColor" fill-rule="evenodd"/></svg>
