<svg xmlns="http://www.w3.org/2000/svg" viewBox="0 0 402 85"><path d="M21.0 42.5Q21.0 19.178990515994215 43.684455875261214 19.178990515994215Q49.181964314418906 19.178990515994215 53.898247870117345 20.509966243369234Q58.614531425815784 21.840941970744254 60.9292718212506 23.461260247548623V37.928387719016236H47.0408294486417V33.761855007233564Q47.0408294486417 31.56285163157049 46.057064780581904 30.52121845362482Q45.073300112522105 29.47958527567915 43.10577077640251 29.47958527567915Q41.13824144028291 29.47958527567915 40.15447677222311 30.52121845362482Q39.170712104163314 31.56285163157049 39.170712104163314 33.761855007233564V51.238144992766436Q39.170712104163314 53.43714836842951 40.15447677222311 54.47878154637518Q41.13824144028291 55.52041472432085 43.10577077640251 55.52041472432085Q45.073300112522105 55.52041472432085 46.057064780581904 54.47878154637518Q47.0408294486417 53.43714836842951 47.0408294486417 51.238144992766436V46.55079569201093H60.9292718212506V61.53873975245138Q58.55666291592991 63.159058029255746 53.898247870117345 64.49003375663077Q49.23983282430478 65.82100948400578 43.80019289503295 65.82100948400578Q32.863044526603446 65.82100948400578 26.931522263301723 60.26563253496222Q21.0 54.71025558591866 21.0 42.5Z" fill="currentColor" fill-rule="evenodd"/><path d="M109.42308310561003 29.47958527567915H106.52965761131651V55.52041472432085H109.42308310561003V65.0108503456036H87.54878636875101V55.52041472432085H90.32647484327279V45.97211059315222H82.22488345925092V55.52041472432085H85.00257193377271V65.0108503456036H63.12827519691368V55.52041472432085H66.0217006912072V29.47958527567915H63.12827519691368V19.9891496543964H85.00257193377271V29.47958527567915H82.22488345925092V38.27559877833146H90.32647484327279V29.47958527567915H87.54878636875101V19.9891496543964H109.42308310561003Z" fill="currentColor" fill-rule="evenodd"/><path d="M154.21330975727375 55.52041472432085H156.52805015270857V65.0108503456036H133.84359427744735V55.52041472432085H137.31570487059957L136.38980871242566 50.890933933451215H128.51969136794727L127.59379520977336 55.52041472432085H131.06590580292558V65.0108503456036H111.27487542195789V55.52041472432085H113.58961581739271L123.36939398810482 19.9891496543964H144.43353158656166ZM129.79279858543643 44.75687188554895H135.1167014949365L132.74409258961583 33.24103841826073H132.1654074907571Z" fill="currentColor" fill-rule="evenodd"/><path d="M158.2062369393988 62.69610995016878V51.238144992766436H170.9373091142903Q170.9373091142903 53.03206879922842 171.74746825269247 53.84222793763061Q172.55762739109466 54.652387076032795 174.69876225687187 54.652387076032795Q176.49268606333385 54.652387076032795 177.2739109467931 54.10263623211702Q178.05513583025237 53.552885388201254 178.05513583025237 52.45338370036971Q178.05513583025237 51.527487542195786 177.30284520173603 50.861999678508276Q176.55055457321973 50.19651181482077 174.69876225687187 49.502089696190325L169.722070406687 47.76603439961421Q163.29866580935538 45.33555698440765 160.49204307989066 42.037051920913036Q157.68542035042597 38.73854685741842 157.68542035042597 33.125301398488986Q157.68542035042597 26.296817231956275 162.17022986658094 22.737903873975245Q166.65503938273588 19.178990515994215 177.12923967207843 19.178990515994215Q182.16380003214917 19.178990515994215 186.59074103841823 20.191689438996946Q191.01768204468732 21.204388361999676 193.73750200932324 22.882575148689924V33.24103841826073H182.16380003214917Q182.16380003214917 30.347612923967205 178.5759524192252 30.347612923967205Q176.8398971226491 30.347612923967205 176.1165407490757 30.781626748111236Q175.39318437550233 31.215640572255268 175.39318437550233 32.3151422600868Q175.39318437550233 33.2989069281466 176.23227776884744 33.877592027005306Q177.07137116219258 34.456277125864005 178.98103198842628 35.09283073460858L184.01559234849702 36.828886031184695Q190.14965439639928 38.912152387076034 192.956277125864 42.23959170551358Q195.76289985532873 45.56703102395113 195.76289985532873 50.94880244333709Q195.76289985532873 58.29810319884263 190.81514226008682 62.05955634142421Q185.86738466484488 65.82100948400578 176.31908053367624 65.82100948400578Q170.76370358463268 65.82100948400578 165.81594598939074 64.86617907088892Q160.86818839414883 63.91134865777206 158.2062369393988 62.69610995016878Z" fill="currentColor" fill-rule="evenodd"/><path d="M197.3832181321331 65.0108503456036V55.52041472432085H200.27664362642662V29.47958527567915H197.3832181321331V19.9891496543964H236.44446230509564V37.46543963992927H223.48191609066066V29.47958527567915H216.47982639447036V38.622809837646685H221.57225526442696V45.21981996463591H216.47982639447036V55.52041472432085H223.48191609066066V46.377190162353315H236.44446230509564V65.0108503456036Z" fill="currentColor" fill-rule="evenodd"/><path d="M258.5502330814981 42.5Q258.5502330814981 19.178990515994215 281.2346889567593 19.178990515994215Q286.732197395917 19.178990515994215 291.44848095161547 20.509966243369234Q296.16476450731386 21.840941970744254 298.4795049027487 23.461260247548623V37.928387719016236H284.5910625301398V33.761855007233564Q284.5910625301398 31.56285163157049 283.60729786208003 30.52121845362482Q282.6235331940202 29.47958527567915 280.6560038579006 29.47958527567915Q278.688474521781 29.47958527567915 277.7047098537212 30.52121845362482Q276.72094518566144 31.56285163157049 276.72094518566144 33.761855007233564V51.238144992766436Q276.72094518566144 53.43714836842951 277.7047098537212 54.47878154637518Q278.688474521781 55.52041472432085 280.6560038579006 55.52041472432085Q282.6235331940202 55.52041472432085 283.60729786208003 54.47878154637518Q284.5910625301398 53.43714836842951 284.5910625301398 51.238144992766436V46.55079569201093H298.4795049027487V61.53873975245138Q296.106895997428 63.159058029255746 291.44848095161547 64.49003375663077Q286.79006590580286 65.82100948400578 281.3504259765311 65.82100948400578Q270.41327760810157 65.82100948400578 264.4817553447998 60.26563253496222Q258.5502330814981 54.71025558591866 258.5502330814981 42.5Z" fill="currentColor" fill-rule="evenodd"/><path d="M300.6785082784118 65.0108503456036V55.52041472432085H303.57193377270534V29.47958527567915H300.6785082784118V19.9891496543964H339.7397524513744V37.46543963992927H326.7772062369394V29.47958527567915H319.7751165407491V38.622809837646685H324.86754541070565V45.21981996463591H319.7751165407491V55.52041472432085H326.7772062369394V46.377190162353315H339.7397524513744V65.0108503456036Z" fill="currentColor" fill-rule="evenodd"/><path d="M341.9387558270374 65.0108503456036V55.52041472432085H344.83218132133095V29.47958527567915H341.9387558270374V19.9891496543964H381.0V37.46543963992927H368.037453785565V29.47958527567915H361.0353640893747V38.622809837646685H366.12779295933126V45.21981996463591H361.0353640893747V55.52041472432085H368.037453785565V46.377190162353315H381.0V65.0108503456036Z" fill="currentColor" fill-rule="evenodd"/></svg>
