<svg xmlns="http://www.w3.org/2000/svg" viewBox="0 0 402 85"><path d="M64.4 76.5Q57.2 76.5 52.7 72Q48.3 67.5 48.3 59.3L48.3 28.5Q48.3 18.8 52.2 13.7Q56 8.5 64.7 8.5Q69.5 8.5 73.2 10.2Q76.9 12 79 15.5Q81.1 18.9 81.1 24.2L81.1 35.7L67.8 35.7L67.8 25.9Q67.8 22.9 67.1 21.8Q66.3 20.8 64.7 20.8Q62.9 20.8 62.2 22.1Q61.6 23.5 61.6 25.7L61.6 59.2Q61.6 61.9 62.4 63.1Q63.2 64.2 64.7 64.2Q66.4 64.2 67.1 62.8Q67.8 61.4 67.8 59.2L67.8 47.1L81.3 47.1L81.3 59.8Q81.3 68.6 76.8 72.5Q72.4 76.5 64.4 76.5Z" fill="currentColor" fill-rule="evenodd"/><path d="M85.7 75.9L85.7 9.1L99 9.1L99 33L105.3 33L105.3 9.1L118.6 9.1L118.6 75.9L105.3 75.9L105.3 45.6L99 45.6L99 75.9Z" fill="currentColor" fill-rule="evenodd"/><path d="M122.7 75.9L129.1 9.1L151.8 9.1L158.1 75.9L145.5 75.9L144.5 65.1L136.5 65.1L135.6 75.9ZM137.4 54.5L143.5 54.5L140.6 20.5L140 20.5Z" fill="currentColor" fill-rule="evenodd"/><path d="M178.1 76.5Q168.9 76.5 164.9 71.9Q160.8 67.4 160.8 57.5L160.8 50.9L174 50.9L174 59.3Q174 61.6 174.7 62.9Q175.4 64.2 177.2 64.2Q179 64.2 179.7 63.1Q180.4 62.1 180.4 59.7Q180.4 56.6 179.8 54.5Q179.2 52.4 177.7 50.6Q176.2 48.7 173.5 46.2L167.6 40.5Q160.8 34.2 160.8 26Q160.8 17.5 164.8 13Q168.8 8.5 176.3 8.5Q185.5 8.5 189.3 13.4Q193.2 18.3 193.2 28.3L179.6 28.3L179.6 23.7Q179.6 22.3 178.8 21.6Q178 20.8 176.7 20.8Q175.1 20.8 174.4 21.7Q173.6 22.6 173.6 24Q173.6 25.4 174.4 27Q175.1 28.6 177.4 30.8L185.1 38.2Q187.4 40.4 189.3 42.8Q191.3 45.3 192.4 48.5Q193.6 51.8 193.6 56.4Q193.6 65.8 190.2 71.2Q186.7 76.5 178.1 76.5Z" fill="currentColor" fill-rule="evenodd"/><path d="M198.1 75.9L198.1 9.1L224.8 9.1L224.8 22L211.6 22L211.6 35L224.2 35L224.2 47.6L211.6 47.6L211.6 62.9L225.7 62.9L225.7 75.9Z" fill="currentColor" fill-rule="evenodd"/><path d="M272.8 76.5Q265.6 76.5 261.1 72Q256.7 67.5 256.7 59.3L256.7 28.5Q256.7 18.8 260.6 13.7Q264.4 8.5 273.1 8.5Q277.9 8.5 281.6 10.2Q285.3 12 287.4 15.5Q289.5 18.9 289.5 24.2L289.5 35.7L276.2 35.7L276.2 25.9Q276.2 22.9 275.5 21.8Q274.7 20.8 273.1 20.8Q271.3 20.8 270.6 22.1Q270 23.5 270 25.7L270 59.2Q270 61.9 270.8 63.1Q271.6 64.2 273.1 64.2Q274.8 64.2 275.5 62.8Q276.2 61.4 276.2 59.2L276.2 47.1L289.7 47.1L289.7 59.8Q289.7 68.6 285.2 72.5Q280.8 76.5 272.8 76.5Z" fill="currentColor" fill-rule="evenodd"/><path d="M294.1 75.9L294.1 9.1L320.8 9.1L320.8 22L307.7 22L307.7 35L320.3 35L320.3 47.6L307.7 47.6L307.7 62.9L321.7 62.9L321.7 75.9Z" fill="currentColor" fill-rule="evenodd"/><path d="M326.1 75.9L326.1 9.1L352.8 9.1L352.8 22L339.7 22L339.7 35L352.3 35L352.3 47.6L339.7 47.6L339.7 62.9L353.7 62.9L353.7 75.9Z" fill="currentColor" fill-rule="evenodd"/></svg>
