<svg xmlns="http://www.w3.org/2000/svg" viewBox="0 0 402 85"><path d="M64.41562499999999 76.5Q57.16785714285714 76.5 52.74709821428571 71.984375Q48.32633928571428 67.46875 48.32633928571428 59.348214285714285L48.32633928571428 28.535714285714285Q48.32633928571428 18.82142857142857 52.17790178571428 13.660714285714285Q56.02946428571428 8.5 64.71919642857142 8.5Q69.46249999999999 8.5 73.16227678571428 10.245535714285722Q76.86205357142856 11.99107142857143 78.98705357142856 15.463169642857146Q81.11205357142856 18.935267857142854 81.11205357142856 24.20982142857143L81.11205357142856 35.745535714285715L67.83080357142856 35.745535714285715L67.83080357142856 25.879464285714285Q67.83080357142856 22.88169642857143 67.07187499999999 21.838169642857146Q66.31294642857142 20.794642857142854 64.71919642857142 20.794642857142854Q62.85982142857142 20.794642857142854 62.21473214285714 22.14174107142857Q61.56964285714285 23.488839285714285 61.56964285714285 25.72767857142857L61.56964285714285 59.15848214285714Q61.56964285714285 61.92857142857142 62.38549107142856 63.066964285714285Q63.20133928571428 64.20535714285714 64.71919642857142 64.20535714285714Q66.4267857142857 64.20535714285714 67.12879464285714 62.801339285714285Q67.83080357142856 61.39732142857142 67.83080357142856 59.15848214285714L67.83080357142856 47.129464285714285L81.26383928571428 47.129464285714285L81.26383928571428 59.765625Q81.26383928571428 68.56919642857143 76.82410714285714 72.53459821428571Q72.38437499999999 76.5 64.41562499999999 76.5Z" fill="currentColor" fill-rule="evenodd"/><path d="M85.70357142857142 75.89285714285714L85.70357142857142 9.107142857142861L98.98482142857142 9.107142857142861L98.98482142857142 32.97544642857143L105.28392857142856 32.97544642857143L105.28392857142856 9.107142857142861L118.56517857142856 9.107142857142861L118.56517857142856 75.89285714285714L105.28392857142856 75.89285714285714L105.28392857142856 45.61160714285714L98.98482142857142 45.61160714285714L98.98482142857142 75.89285714285714Z" fill="currentColor" fill-rule="evenodd"/><path d="M122.66339285714285 75.89285714285714L129.1142857142857 9.107142857142861L151.76830357142856 9.107142857142861L158.10535714285714 75.89285714285714L145.46919642857142 75.89285714285714L144.5205357142857 65.11607142857143L136.47589285714284 65.11607142857143L135.64107142857142 75.89285714285714ZM137.42455357142856 54.453125L143.49598214285714 54.453125L140.57410714285714 20.49107142857143L139.96696428571428 20.49107142857143Z" fill="currentColor" fill-rule="evenodd"/><path d="M178.06517857142853 76.5Q168.92008928571425 76.5 164.87879464285712 71.94642857142857Q160.83749999999998 67.39285714285714 160.83749999999998 57.450892857142854L160.83749999999998 50.92410714285714L174.04285714285712 50.92410714285714L174.04285714285712 59.27232142857143Q174.04285714285712 61.58705357142857 174.74486607142853 62.896205357142854Q175.44687499999998 64.20535714285714 177.1924107142857 64.20535714285714Q179.01383928571425 64.20535714285714 179.7158482142857 63.14285714285714Q180.41785714285712 62.08035714285714 180.41785714285712 59.65178571428571Q180.41785714285712 56.578125 179.81071428571425 54.51004464285714Q179.2035714285714 52.441964285714285 177.70468749999998 50.56361607142857Q176.20580357142853 48.685267857142854 173.54955357142856 46.18080357142857L167.55401785714284 40.488839285714285Q160.83749999999998 34.151785714285715 160.83749999999998 25.99330357142857Q160.83749999999998 17.455357142857146 164.80290178571425 12.97767857142857Q168.76830357142856 8.5 176.2816964285714 8.5Q185.46473214285712 8.5 189.31629464285712 13.395089285714285Q193.16785714285712 18.29017857142857 193.16785714285712 28.270089285714285L179.5830357142857 28.270089285714285L179.5830357142857 23.67857142857143Q179.5830357142857 22.3125 178.8051339285714 21.55357142857143Q178.02723214285712 20.794642857142854 176.69910714285712 20.794642857142854Q175.10535714285712 20.794642857142854 174.36540178571425 21.68638392857143Q173.6254464285714 22.578125 173.6254464285714 23.982142857142854Q173.6254464285714 25.386160714285715 174.38437499999998 27.017857142857146Q175.14330357142853 28.64955357142857 177.38214285714284 30.77455357142857L185.08526785714284 38.17410714285714Q187.39999999999998 40.375 189.33526785714284 42.82254464285714Q191.2705357142857 45.270089285714285 192.44687499999998 48.51450892857143Q193.62321428571425 51.75892857142857 193.62321428571425 56.426339285714285Q193.62321428571425 65.83705357142857 190.15111607142853 71.16852678571428Q186.67901785714284 76.5 178.06517857142853 76.5Z" fill="currentColor" fill-rule="evenodd"/><path d="M198.0629464285714 75.89285714285714L198.0629464285714 9.107142857142861L224.77723214285712 9.107142857142861L224.77723214285712 22.00892857142857L211.64776785714284 22.00892857142857L211.64776785714284 35.02455357142857L224.24598214285712 35.02455357142857L224.24598214285712 47.58482142857143L211.64776785714284 47.58482142857143L211.64776785714284 62.87723214285714L225.64999999999998 62.87723214285714L225.64999999999998 75.89285714285714Z" fill="currentColor" fill-rule="evenodd"/><path d="M272.8098214285714 76.5Q265.5620535714285 76.5 261.1412946428571 71.984375Q256.7205357142857 67.46875 256.7205357142857 59.348214285714285L256.7205357142857 28.535714285714285Q256.7205357142857 18.82142857142857 260.5720982142857 13.660714285714285Q264.4236607142857 8.5 273.1133928571428 8.5Q277.8566964285714 8.5 281.5564732142857 10.245535714285722Q285.25624999999997 11.99107142857143 287.38124999999997 15.463169642857146Q289.50624999999997 18.935267857142854 289.50624999999997 24.20982142857143L289.50624999999997 35.745535714285715L276.22499999999997 35.745535714285715L276.22499999999997 25.879464285714285Q276.22499999999997 22.88169642857143 275.4660714285714 21.838169642857146Q274.7071428571428 20.794642857142854 273.1133928571428 20.794642857142854Q271.2540178571428 20.794642857142854 270.6089285714285 22.14174107142857Q269.96383928571424 23.488839285714285 269.96383928571424 25.72767857142857L269.96383928571424 59.15848214285714Q269.96383928571424 61.92857142857142 270.77968749999997 63.066964285714285Q271.5955357142857 64.20535714285714 273.1133928571428 64.20535714285714Q274.8209821428571 64.20535714285714 275.5229910714285 62.801339285714285Q276.22499999999997 61.39732142857142 276.22499999999997 59.15848214285714L276.22499999999997 47.129464285714285L289.6580357142857 47.129464285714285L289.6580357142857 59.765625Q289.6580357142857 68.56919642857143 285.2183035714285 72.53459821428571Q280.7785714285714 76.5 272.8098214285714 76.5Z" fill="currentColor" fill-rule="evenodd"/><path d="M294.09776785714286 75.89285714285714L294.09776785714286 9.107142857142861L320.8120535714286 9.107142857142861L320.8120535714286 22.00892857142857L307.68258928571424 22.00892857142857L307.68258928571424 35.02455357142857L320.2808035714286 35.02455357142857L320.2808035714286 47.58482142857143L307.68258928571424 47.58482142857143L307.68258928571424 62.87723214285714L321.6848214285714 62.87723214285714L321.6848214285714 75.89285714285714Z" fill="currentColor" fill-rule="evenodd"/><path d="M326.08660714285713 75.89285714285714L326.08660714285713 9.107142857142861L352.8008928571428 9.107142857142861L352.8008928571428 22.00892857142857L339.6714285714285 22.00892857142857L339.6714285714285 35.02455357142857L352.2696428571428 35.02455357142857L352.2696428571428 47.58482142857143L339.6714285714285 47.58482142857143L339.6714285714285 62.87723214285714L353.6736607142857 62.87723214285714L353.6736607142857 75.89285714285714Z" fill="currentColor" fill-rule="evenodd"/></svg>
