<svg xmlns="http://www.w3.org/2000/svg" viewBox="0 0 402 85"><path d="M51 34.1Q49.4 31.8 48.1 30.8Q46.8 29.9 45.3 29.5Q43.8 29 42.2 29Q39.7 29 37.7 30.1Q35.6 31.2 34.1 33.1Q32.6 34.9 31.7 37.4Q30.8 39.9 30.8 42.6Q30.8 45.4 31.7 47.9Q32.5 50.4 34 52.2Q35.5 54.1 37.6 55.2Q39.7 56.2 42.2 56.2Q43.9 56.2 45.4 55.7Q46.9 55.1 48.1 54.2Q49.4 53.3 50.3 52.1Q51.2 50.9 51.7 49.6L61 52.2Q60.1 55 58.4 57.4Q56.7 59.8 54.2 61.6Q51.8 63.4 48.7 64.4Q45.7 65.4 42.2 65.4Q39.2 65.4 36.5 64.6Q33.8 63.8 31.4 62.3Q29.1 60.8 27.1 58.7Q25.2 56.7 23.9 54.1Q22.5 51.6 21.8 48.7Q21 45.8 21 42.6Q21 37.9 22.6 33.8Q24.3 29.7 27.2 26.6Q30 23.6 33.9 21.8Q37.7 20 42.2 20Q45.7 20 48.2 20.9Q50.6 21.8 53.5 24.4L60 24.4L60 34.1Z" fill="currentColor" fill-rule="evenodd"/><path d="M96.6 20.8L115.3 20.8L115.3 28.8L110.7 28.8L110.7 56.7L115.3 56.7L115.3 64.6L96.6 64.6L96.6 56.7L101.1 56.7L101.1 45.5L81.4 45.5L81.4 56.7L86 56.7L86 64.6L67.2 64.6L67.2 56.7L71.8 56.7L71.8 28.8L67.2 28.8L67.2 20.8L86 20.8L86 28.8L81.4 28.8L81.4 37.8L101.1 37.8L101.1 28.8L96.6 28.8Z" fill="currentColor" fill-rule="evenodd"/><path d="M144.4 56.7L148.7 56.7L146.8 50.4L133.3 50.4L131.3 56.7L136 56.7L136 64.6L119.3 64.6L119.3 56.7L122.6 56.7L134.5 20.8L146.1 20.8L157.8 56.7L161 56.7L161 64.6L144.4 64.6ZM135.6 43L144.4 43L140 28.8Z" fill="currentColor" fill-rule="evenodd"/><path d="M186 33.1Q185.8 32.1 185.2 31.2Q184.7 30.3 183.8 29.7Q182.9 29 181.8 28.7Q180.7 28.3 179.5 28.3Q178.4 28.3 177.4 28.5Q176.5 28.8 175.8 29.2Q175.1 29.7 174.6 30.5Q174.2 31.2 174.2 32.2Q174.2 33.5 174.8 34.3Q175.4 35.1 176.2 35.6Q177.1 36.1 178.2 36.3Q179.3 36.6 180.3 37L188.2 39.6Q189.9 40.2 191.3 41.2Q192.7 42.2 193.8 43.7Q194.9 45.1 195.5 47Q196.1 48.9 196.1 51.2Q196.1 54.4 194.9 57Q193.7 59.7 191.6 61.5Q189.5 63.4 186.6 64.5Q183.6 65.5 180 65.5Q177.5 65.5 175.3 64.9Q173 64.4 171.2 63.3Q169.3 62.2 168 60.7Q166.6 59.3 165.8 57.4L162.8 57.4L162.8 48.7L173.3 48.7L173.3 50.5Q173.3 51.8 173.7 52.9Q174.1 54 174.9 54.8Q175.8 55.6 177.1 56Q178.3 56.5 180 56.5Q182.6 56.5 184 55.3Q185.3 54.1 185.3 51.9Q185.3 50.8 184.9 50.1Q184.4 49.4 183.6 48.9Q182.9 48.4 182 48Q181 47.7 180.1 47.4L173.5 45.2Q171.7 44.7 169.9 43.6Q168.2 42.6 166.8 41Q165.5 39.5 164.7 37.4Q163.9 35.3 163.9 32.6Q163.9 29.5 165 27Q166.2 24.6 168.3 22.9Q170.4 21.2 173.2 20.4Q176.1 19.5 179.5 19.5Q182.2 19.5 184.5 20.1Q186.7 20.8 188.5 21.8Q190.3 22.8 191.6 24.2Q192.9 25.5 193.5 27L196.4 27L196.4 35.7L186 35.7Z" fill="currentColor" fill-rule="evenodd"/><path d="M200.9 20.8L235.7 20.8L235.7 35.7L226.3 35.7L226.3 29.5L215 29.5L215 38.2L223.7 38.2L223.7 46.5L215 46.5L215 56.7L226.3 56.7L226.3 48.9L235.7 48.9L235.7 64.6L200.9 64.6L200.9 56.7L205.5 56.7L205.5 29.5L200.9 29.5Z" fill="currentColor" fill-rule="evenodd"/><path d="M290.1 34.1Q288.5 31.8 287.2 30.8Q285.9 29.9 284.4 29.5Q282.9 29 281.2 29Q278.8 29 276.7 30.1Q274.7 31.2 273.1 33.1Q271.6 34.9 270.8 37.4Q269.9 39.9 269.9 42.6Q269.9 45.4 270.7 47.9Q271.6 50.4 273.1 52.2Q274.6 54.1 276.7 55.2Q278.8 56.2 281.2 56.2Q283 56.2 284.5 55.7Q286 55.1 287.2 54.2Q288.4 53.3 289.4 52.1Q290.3 50.9 290.8 49.6L300.1 52.2Q299.2 55 297.5 57.4Q295.7 59.8 293.3 61.6Q290.9 63.4 287.8 64.4Q284.8 65.4 281.2 65.4Q278.3 65.4 275.5 64.6Q272.8 63.8 270.5 62.3Q268.1 60.8 266.2 58.7Q264.3 56.7 262.9 54.1Q261.6 51.6 260.8 48.7Q260.1 45.8 260.1 42.6Q260.1 37.9 261.7 33.8Q263.4 29.7 266.2 26.6Q269.1 23.6 272.9 21.8Q276.8 20 281.2 20Q284.8 20 287.2 20.9Q289.6 21.8 292.6 24.4L299 24.4L299 34.1Z" fill="currentColor" fill-rule="evenodd"/><path d="M306.3 20.8L341.1 20.8L341.1 35.7L331.7 35.7L331.7 29.5L320.5 29.5L320.5 38.2L329.2 38.2L329.2 46.5L320.5 46.5L320.5 56.7L331.7 56.7L331.7 48.9L341.1 48.9L341.1 64.6L306.3 64.6L306.3 56.7L310.9 56.7L310.9 29.5L306.3 29.5Z" fill="currentColor" fill-rule="evenodd"/><path d="M346.2 20.8L381 20.8L381 35.7L371.6 35.7L371.6 29.5L360.3 29.5L360.3 38.2L369 38.2L369 46.5L360.3 46.5L360.3 56.7L371.6 56.7L371.6 48.9L381 48.9L381 64.6L346.2 64.6L346.2 56.7L350.8 56.7L350.8 29.5L346.2 29.5Z" fill="currentColor" fill-rule="evenodd"/></svg>
