<svg xmlns="http://www.w3.org/2000/svg" viewBox="0 0 402 85"><path d="M51.03899292350648 34.12374235786838Q49.42150868916382 31.813050594521727 48.12174457228133 30.84544841862032Q46.82198045539884 29.87784624271891 45.32003080922351 29.45903336061233Q43.81808116304819 29.040220478505745 42.1717132816637 29.040220478505745Q39.74548693014972 29.040220478505745 37.66586434313773 30.123357242574492Q35.586241756125744 31.206494006643233 34.0698502864295 33.06948924084147Q32.55345881673326 34.932484475039715 31.686949405478266 37.402036297116446Q30.82043999422327 39.87158811919318 30.82043999422327 42.64441823520916Q30.82043999422327 45.44613199826698 31.67250758195735 47.91568382034371Q32.52457516969143 50.38523564242045 34.02652481586675 52.233789053097766Q35.52847446204208 54.08234246377509 37.60809704905407 55.16547922784383Q39.68771963606605 56.24861599191257 42.1717132816637 56.24861599191257Q43.90473210417369 56.24861599191257 45.40668175034901 55.68538487459683Q46.90863139652434 55.12215375728108 48.13618639580224 54.19787705194242Q49.363741395080154 53.27360034660376 50.28801810041881 52.07492899436768Q51.21229480575747 50.876257642131606 51.732200452510476 49.57649352524912L61.032734799980744 52.1760217590141Q60.13734174168392 55.00661916911375 58.40432291917393 57.41840369710682Q56.67130409666394 59.83018822509989 54.23063592162904 61.59209069465171Q51.78996774659414 63.35399316420353 48.74274298368074 64.36492081066768Q45.69551822076734 65.37584845713185 42.1717132816637 65.37584845713185Q39.196697636354884 65.37584845713185 36.48163481442257 64.56710633996052Q33.766571992490256 63.75836422278919 31.412554758580853 62.2852982236557Q29.05853752467145 60.81223222452221 27.137774996389545 58.73260963751022Q25.21701246810764 56.65298705049824 23.859481057141483 54.12566793433784Q22.501949646175326 51.598348818177435 21.750974823087663 48.695542290473206Q21 45.79273576276897 21 42.64441823520916Q21 37.93638376739035 22.646367881384492 33.82046406392914Q24.29273576276898 29.704544360467906 27.152216819910464 26.62843595051268Q30.011697877051944 23.55232754055745 33.867664757136666 21.77598324748471Q37.723631637221395 19.99963895441197 42.1717132816637 19.99963895441197Q45.72440186780918 19.99963895441197 48.15062821932317 20.880590189187885Q50.57685457083714 21.76154142396379 53.4941029220623 24.361069657728777L59.96403985943292 24.361069657728777L59.96403985943292 34.12374235786838Z" fill="currentColor" fill-rule="evenodd"/><path d="M96.55962066143553 20.808381071583298L115.33399123862708 20.808381071583298L115.33399123862708 28.751384008087413L110.71260771193377 28.751384008087413L110.71260771193377 56.68187069754007L115.33399123862708 56.68187069754007L115.33399123862708 64.59598998700235L96.55962066143553 64.59598998700235L96.55962066143553 56.68187069754007L101.12323689404516 56.68187069754007L101.12323689404516 45.47501564530881L81.36682231743129 45.47501564530881L81.36682231743129 56.68187069754007L85.9882058441246 56.68187069754007L85.9882058441246 64.59598998700235L67.24271891397487 64.59598998700235L67.24271891397487 56.68187069754007L71.77745149954268 56.68187069754007L71.77745149954268 28.751384008087413L67.24271891397487 28.751384008087413L67.24271891397487 20.808381071583298L85.9882058441246 20.808381071583298L85.9882058441246 28.751384008087413L81.36682231743129 28.751384008087413L81.36682231743129 37.849732826264855L101.12323689404516 37.849732826264855L101.12323689404516 28.751384008087413L96.55962066143553 28.751384008087413Z" fill="currentColor" fill-rule="evenodd"/><path d="M144.3620565156694 56.68187069754007L148.7234872189862 56.68187069754007L146.75939922014155 50.38523564242045L133.2996196986473 50.38523564242045L131.33553169980263 56.68187069754007L135.95691522649594 56.68187069754007L135.95691522649594 64.59598998700235L119.34881817744188 64.59598998700235L119.34881817744188 56.68187069754007L122.61267029316903 56.68187069754007L134.54161652144612 20.808381071583298L146.1239589852212 20.808381071583298L157.7929523901218 56.68187069754007L160.97015356472346 56.68187069754007L160.97015356472346 64.59598998700235L144.3620565156694 64.59598998700235ZM135.58142781495212 42.99102199971116L144.41982380975307 42.99102199971116L139.97174216531076 28.751384008087413Z" fill="currentColor" fill-rule="evenodd"/><path d="M185.95450825590913 33.14169835844605Q185.81009002069996 32.130770711981896 185.24685890338424 31.235377653685063Q184.68362778606848 30.339984595388238 183.80267655129256 29.690102536946995Q182.92172531651664 29.040220478505745 181.80970490540608 28.664733066961915Q180.69768449429552 28.289245655418085 179.4845713185385 28.289245655418085Q178.38699273094886 28.289245655418085 177.43383237856835 28.52031483175275Q176.48067202618785 28.751384008087413 175.77302267366295 29.22796418427766Q175.06537332113803 29.704544360467906 174.64656043903145 30.455519183555573Q174.22774755692487 31.206494006643233 174.22774755692487 32.246305300149224Q174.22774755692487 33.54606941703172 174.79097867424062 34.3114860636403Q175.35420979155637 35.07690271024887 176.2351610263323 35.56792470996004Q177.11611226110819 36.058946709671204 178.184807201656 36.347783180089536Q179.25350214220384 36.63661965050787 180.264429788668 36.98322341500986L188.2074327251721 39.64051894285851Q189.8538006065566 40.21819188369518 191.29798295864828 41.22911953015934Q192.74216531073992 42.24004717662349 193.79641842776684 43.68422952871515Q194.85067154479376 45.12841188080681 195.45722813267224 47.005848938525965Q196.06378472055073 48.88328599624512 196.06378472055073 51.222861406633605Q196.06378472055073 54.400062581235254 194.8939970153565 57.02847446204207Q193.72420931016225 59.656886342848885 191.61570307610845 61.53432340056804Q189.5071968420546 63.4117604582872 186.56106484378762 64.4515717517932Q183.61493284552066 65.49138304529919 180.03336061233335 65.49138304529919Q177.52048331969385 65.49138304529919 175.28200067395179 64.92815192798344Q173.04351802820972 64.36492081066768 171.1949646175324 63.29622587011986Q169.34641120685507 62.22753092957203 167.95999614884707 60.74002310691763Q166.5735810908391 59.252515284263225 165.7937226207096 57.37507822654407L162.81870697540077 57.37507822654407L162.81870697540077 48.68110046695229L173.2745872045444 48.68110046695229L173.2745872045444 50.471886583545945Q173.2745872045444 51.77165070042844 173.69340008665097 52.8692292880181Q174.11221296875755 53.966807875607756 174.9498387329707 54.775549992779084Q175.78746449718386 55.58429210995041 177.05834496702454 56.03198863909883Q178.3292254368652 56.479685168247244 180.03336061233335 56.479685168247244Q182.63288884609833 56.479685168247244 183.99042025706447 55.28101381601117Q185.34795166803065 54.08234246377509 185.34795166803065 51.944952582679434Q185.34795166803065 50.847373995089775 184.8713714918404 50.110840995523034Q184.39479131565014 49.374307995956286 183.64381649256248 48.8688441727242Q182.89284166947482 48.363380349492125 181.96856496413616 48.016776584990126Q181.0442882587975 47.67017282048813 180.14889520050068 47.3813363500698L173.53454002792088 45.243946468974144Q171.65710297020172 44.66627352813748 169.90964232417082 43.62646223463149Q168.16218167813992 42.5866509411255 166.81909209069468 41.026934000866504Q165.47600250324942 39.46721706060751 164.68170220959902 37.373152650074616Q163.8874019159486 35.27908823954171 163.8874019159486 32.592909064651224Q163.8874019159486 29.473475184133243 165.04274779762193 27.03280700909834Q166.19809367929525 24.59213883406344 168.27771626630724 22.91688730563712Q170.35733885331922 21.241635777210796 173.2168199104607 20.3751263659558Q176.0763009676022 19.508616954700805 179.4845713185385 19.508616954700805Q182.17075049342898 19.508616954700805 184.4525586097338 20.129615366100218Q186.73436672603862 20.75061377749963 188.5395946661532 21.79042507100563Q190.34482260626777 22.83023636451162 191.6012612525875 24.173325951956862Q192.85769989890724 25.516415539402104 193.52202378086943 26.960597891493762L196.41038848505275 26.960597891493762L196.41038848505275 35.683459298127374L185.95450825590913 35.683459298127374Z" fill="currentColor" fill-rule="evenodd"/><path d="M200.858470129495 20.808381071583298L235.6921484619458 20.808381071583298L235.6921484619458 35.741226592211035L226.2760795263082 35.741226592211035L226.2760795263082 29.53124247821691L215.0403408270351 29.53124247821691L215.0403408270351 38.167452943725024L223.73431858662687 38.167452943725024L223.73431858662687 46.54371058585664L215.0403408270351 46.54371058585664L215.0403408270351 56.68187069754007L226.2760795263082 56.68187069754007L226.2760795263082 48.91216964328696L235.6921484619458 48.91216964328696L235.6921484619458 64.59598998700235L200.858470129495 64.59598998700235L200.858470129495 56.68187069754007L205.4509700091465 56.68187069754007L205.4509700091465 29.53124247821691L200.858470129495 29.53124247821691Z" fill="currentColor" fill-rule="evenodd"/><path d="M290.10316275935105 34.12374235786838Q288.4856785250084 31.813050594521727 287.1859144081259 30.84544841862032Q285.88615029124344 29.87784624271891 284.3842006450681 29.45903336061233Q282.8822509988928 29.040220478505745 281.23588311750825 29.040220478505745Q278.8096567659943 29.040220478505745 276.7300341789823 30.123357242574492Q274.65041159197034 31.206494006643233 273.1340201222741 33.06948924084147Q271.6176286525778 34.932484475039715 270.75111924132284 37.402036297116446Q269.88460983006786 39.87158811919318 269.88460983006786 42.64441823520916Q269.88460983006786 45.44613199826698 270.73667741780196 47.91568382034371Q271.588745005536 50.38523564242045 273.0906946517113 52.233789053097766Q274.59264429788664 54.08234246377509 276.67226688489865 55.16547922784383Q278.75188947191066 56.24861599191257 281.23588311750825 56.24861599191257Q282.96890194001827 56.24861599191257 284.4708515861936 55.68538487459683Q285.9728012323689 55.12215375728108 287.2003562316468 54.19787705194242Q288.42791123092474 53.27360034660376 289.3521879362634 52.07492899436768Q290.27646464160205 50.876257642131606 290.79637028835504 49.57649352524912L300.09690463582535 52.1760217590141Q299.2015115775285 55.00661916911375 297.46849275501853 57.41840369710682Q295.7354739325085 59.83018822509989 293.2948057574736 61.59209069465171Q290.85413758243874 63.35399316420353 287.80691281952534 64.36492081066768Q284.75968805661194 65.37584845713185 281.23588311750825 65.37584845713185Q278.2608674721995 65.37584845713185 275.54580465026714 64.56710633996052Q272.83074182833485 63.75836422278919 270.47672459442543 62.2852982236557Q268.122707360516 60.81223222452221 266.2019448322341 58.73260963751022Q264.2811823039522 56.65298705049824 262.9236508929861 54.12566793433784Q261.56611948201993 51.598348818177435 260.81514465893224 48.695542290473206Q260.0641698358446 45.79273576276897 260.0641698358446 42.64441823520916Q260.0641698358446 37.93638376739035 261.71053771722904 33.82046406392914Q263.35690559861354 29.704544360467906 266.21638665575506 26.62843595051268Q269.0758677128965 23.55232754055745 272.93183459298126 21.77598324748471Q276.787801473066 19.99963895441197 281.23588311750825 19.99963895441197Q284.78857170365376 19.99963895441197 287.21479805516776 20.880590189187885Q289.6410244066817 21.76154142396379 292.5582727579069 24.361069657728777L299.0282096952775 24.361069657728777L299.0282096952775 34.12374235786838Z" fill="currentColor" fill-rule="evenodd"/><path d="M306.3068887498195 20.808381071583298L341.14056708227025 20.808381071583298L341.14056708227025 35.741226592211035L331.72449814663264 35.741226592211035L331.72449814663264 29.53124247821691L320.4887594473596 29.53124247821691L320.4887594473596 38.167452943725024L329.18273720695134 38.167452943725024L329.18273720695134 46.54371058585664L320.4887594473596 46.54371058585664L320.4887594473596 56.68187069754007L331.72449814663264 56.68187069754007L331.72449814663264 48.91216964328696L341.14056708227025 48.91216964328696L341.14056708227025 64.59598998700235L306.3068887498195 64.59598998700235L306.3068887498195 56.68187069754007L310.899388629471 56.68187069754007L310.899388629471 29.53124247821691L306.3068887498195 29.53124247821691Z" fill="currentColor" fill-rule="evenodd"/><path d="M346.1663216675492 20.808381071583298L380.99999999999994 20.808381071583298L380.99999999999994 35.741226592211035L371.58393106436233 35.741226592211035L371.58393106436233 29.53124247821691L360.3481923650893 29.53124247821691L360.3481923650893 38.167452943725024L369.04217012468104 38.167452943725024L369.04217012468104 46.54371058585664L360.3481923650893 46.54371058585664L360.3481923650893 56.68187069754007L371.58393106436233 56.68187069754007L371.58393106436233 48.91216964328696L380.99999999999994 48.91216964328696L380.99999999999994 64.59598998700235L346.1663216675492 64.59598998700235L346.1663216675492 56.68187069754007L350.7588215472007 56.68187069754007L350.7588215472007 29.53124247821691L346.1663216675492 29.53124247821691Z" fill="currentColor" fill-rule="evenodd"/></svg>
