<svg xmlns="http://www.w3.org/2000/svg" viewBox="0 0 402 85"><path d="M43.18333333333334 60.25555555555556V24.744444444444447Q43.18333333333334 17.0 47.10277777777778 12.75Q51.022222222222226 8.5 58.483333333333334 8.5Q65.94444444444446 8.5 69.8638888888889 12.75Q73.78333333333333 17.0 73.78333333333333 24.744444444444447V31.733333333333334H63.961111111111116V24.083333333333336Q63.961111111111116 17.94444444444445 58.76666666666667 17.94444444444445Q53.57222222222223 17.94444444444445 53.57222222222223 24.083333333333336V61.01111111111111Q53.57222222222223 67.05555555555556 58.76666666666667 67.05555555555556Q63.961111111111116 67.05555555555556 63.961111111111116 61.01111111111111V50.90555555555556H73.78333333333333V60.25555555555556Q73.78333333333333 68.0 69.8638888888889 72.25Q65.94444444444446 76.5 58.483333333333334 76.5Q51.022222222222226 76.5 47.10277777777778 72.25Q43.18333333333334 68.0 43.18333333333334 60.25555555555556Z" fill="currentColor" fill-rule="evenodd"/><path d="M80.01666666666667 9.444444444444443H90.40555555555555V36.361111111111114H101.55V9.444444444444443H111.9388888888889V75.55555555555556H101.55V45.80555555555556H90.40555555555555V75.55555555555556H80.01666666666667Z" fill="currentColor" fill-rule="evenodd"/><path d="M127.71111111111112 9.444444444444443H141.78333333333333L152.55 75.55555555555556H142.16111111111113L140.27222222222224 62.42777777777778V62.61666666666667H128.46666666666667L126.57777777777778 75.55555555555556H116.94444444444446ZM139.04444444444445 53.644444444444446 134.41666666666669 20.96666666666667H134.2277777777778L129.69444444444446 53.644444444444446Z" fill="currentColor" fill-rule="evenodd"/><path d="M155.76111111111112 59.87777777777778V56.1H165.58333333333334V60.63333333333333Q165.58333333333334 67.05555555555556 170.96666666666667 67.05555555555556Q173.61111111111111 67.05555555555556 174.98055555555555 65.49722222222222Q176.35 63.93888888888889 176.35 60.44444444444444Q176.35 56.28888888888889 174.4611111111111 53.125Q172.57222222222222 49.96111111111111 167.47222222222223 45.522222222222226Q161.05 39.85555555555556 158.5 35.275000000000006Q155.95000000000002 30.69444444444445 155.95000000000002 24.933333333333337Q155.95000000000002 17.09444444444445 159.91666666666669 12.797222222222224Q163.88333333333333 8.5 171.4388888888889 8.5Q178.9 8.5 182.72500000000002 12.797222222222224Q186.55 17.09444444444445 186.55 25.122222222222227V27.861111111111114H176.7277777777778V24.461111111111116Q176.7277777777778 21.061111111111117 175.40555555555557 19.502777777777784Q174.08333333333334 17.94444444444445 171.53333333333333 17.94444444444445Q166.3388888888889 17.94444444444445 166.3388888888889 24.272222222222226Q166.3388888888889 27.861111111111114 168.275 30.97777777777778Q170.2111111111111 34.09444444444445 175.3111111111111 38.53333333333334Q181.82777777777778 44.2 184.28333333333333 48.82777777777778Q186.73888888888888 53.45555555555556 186.73888888888888 59.68888888888889Q186.73888888888888 67.81111111111112 182.725 72.15555555555557Q178.7111111111111 76.5 171.0611111111111 76.5Q163.50555555555556 76.5 159.63333333333333 72.20277777777778Q155.76111111111112 67.90555555555555 155.76111111111112 59.87777777777778Z" fill="currentColor" fill-rule="evenodd"/><path d="M192.6888888888889 9.444444444444443H221.0222222222222V18.888888888888893H203.07777777777778V36.361111111111114H217.33888888888887V45.80555555555556H203.07777777777778V66.11111111111111H221.0222222222222V75.55555555555556H192.6888888888889Z" fill="currentColor" fill-rule="evenodd"/><path d="M259.3666666666667 60.25555555555556V24.744444444444447Q259.3666666666667 17.0 263.28611111111115 12.75Q267.2055555555556 8.5 274.6666666666667 8.5Q282.1277777777778 8.5 286.0472222222222 12.75Q289.9666666666667 17.0 289.9666666666667 24.744444444444447V31.733333333333334H280.14444444444445V24.083333333333336Q280.14444444444445 17.94444444444445 274.95 17.94444444444445Q269.7555555555556 17.94444444444445 269.7555555555556 24.083333333333336V61.01111111111111Q269.7555555555556 67.05555555555556 274.95 67.05555555555556Q280.14444444444445 67.05555555555556 280.14444444444445 61.01111111111111V50.90555555555556H289.9666666666667V60.25555555555556Q289.9666666666667 68.0 286.0472222222222 72.25Q282.1277777777778 76.5 274.6666666666667 76.5Q267.2055555555556 76.5 263.28611111111115 72.25Q259.3666666666667 68.0 259.3666666666667 60.25555555555556Z" fill="currentColor" fill-rule="evenodd"/><path d="M296.2 9.444444444444443H324.53333333333336V18.888888888888893H306.5888888888889V36.361111111111114H320.85V45.80555555555556H306.5888888888889V66.11111111111111H324.53333333333336V75.55555555555556H296.2Z" fill="currentColor" fill-rule="evenodd"/><path d="M330.4833333333333 9.444444444444443H358.81666666666666V18.888888888888893H340.8722222222222V36.361111111111114H355.1333333333333V45.80555555555556H340.8722222222222V66.11111111111111H358.81666666666666V75.55555555555556H330.4833333333333Z" fill="currentColor" fill-rule="evenodd"/></svg>
