<svg xmlns="http://www.w3.org/2000/svg" viewBox="0 0 402 85"><path d="M58.5 76.5Q51 76.5 47.1 72.3Q43.2 68 43.2 60.3L43.2 24.7Q43.2 17 47.1 12.8Q51 8.5 58.5 8.5Q65.9 8.5 69.9 12.8Q73.8 17 73.8 24.7L73.8 31.7L64 31.7L64 24.1Q64 17.9 58.8 17.9Q53.6 17.9 53.6 24.1L53.6 61Q53.6 67.1 58.8 67.1Q64 67.1 64 61L64 50.9L73.8 50.9L73.8 60.3Q73.8 68 69.9 72.3Q65.9 76.5 58.5 76.5Z" fill="currentColor" fill-rule="evenodd"/><path d="M80 9.4L90.4 9.4L90.4 36.4L101.6 36.4L101.6 9.4L111.9 9.4L111.9 75.6L101.6 75.6L101.6 45.8L90.4 45.8L90.4 75.6L80 75.6Z" fill="currentColor" fill-rule="evenodd"/><path d="M127.7 9.4L141.8 9.4L152.6 75.6L142.2 75.6L140.3 62.4L140.3 62.6L128.5 62.6L126.6 75.6L116.9 75.6ZM139 53.6L134.4 21L134.2 21L129.7 53.6Z" fill="currentColor" fill-rule="evenodd"/><path d="M171.1 76.5Q163.5 76.5 159.6 72.2Q155.8 67.9 155.8 59.9L155.8 56.1L165.6 56.1L165.6 60.6Q165.6 67.1 171 67.1Q173.6 67.1 175 65.5Q176.4 63.9 176.4 60.4Q176.4 56.3 174.5 53.1Q172.6 50 167.5 45.5Q161.1 39.9 158.5 35.3Q156 30.7 156 24.9Q156 17.1 159.9 12.8Q163.9 8.5 171.4 8.5Q178.9 8.5 182.7 12.8Q186.6 17.1 186.6 25.1L186.6 27.9L176.7 27.9L176.7 24.5Q176.7 21.1 175.4 19.5Q174.1 17.9 171.5 17.9Q166.3 17.9 166.3 24.3Q166.3 27.9 168.3 31Q170.2 34.1 175.3 38.5Q181.8 44.2 184.3 48.8Q186.7 53.5 186.7 59.7Q186.7 67.8 182.7 72.2Q178.7 76.5 171.1 76.5Z" fill="currentColor" fill-rule="evenodd"/><path d="M192.7 9.4L221 9.4L221 18.9L203.1 18.9L203.1 36.4L217.3 36.4L217.3 45.8L203.1 45.8L203.1 66.1L221 66.1L221 75.6L192.7 75.6Z" fill="currentColor" fill-rule="evenodd"/><path d="M274.7 76.5Q267.2 76.5 263.3 72.3Q259.4 68 259.4 60.3L259.4 24.7Q259.4 17 263.3 12.8Q267.2 8.5 274.7 8.5Q282.1 8.5 286 12.8Q290 17 290 24.7L290 31.7L280.1 31.7L280.1 24.1Q280.1 17.9 275 17.9Q269.8 17.9 269.8 24.1L269.8 61Q269.8 67.1 275 67.1Q280.1 67.1 280.1 61L280.1 50.9L290 50.9L290 60.3Q290 68 286 72.3Q282.1 76.5 274.7 76.5Z" fill="currentColor" fill-rule="evenodd"/><path d="M296.2 9.4L324.5 9.4L324.5 18.9L306.6 18.9L306.6 36.4L320.9 36.4L320.9 45.8L306.6 45.8L306.6 66.1L324.5 66.1L324.5 75.6L296.2 75.6Z" fill="currentColor" fill-rule="evenodd"/><path d="M330.5 9.4L358.8 9.4L358.8 18.9L340.9 18.9L340.9 36.4L355.1 36.4L355.1 45.8L340.9 45.8L340.9 66.1L358.8 66.1L358.8 75.6L330.5 75.6Z" fill="currentColor" fill-rule="evenodd"/></svg>
