<svg xmlns="http://www.w3.org/2000/svg" viewBox="0 0 402 85"><path d="M58.483333333333334 76.5Q51.022222222222226 76.5 47.10277777777778 72.25Q43.18333333333334 68 43.18333333333334 60.25555555555556L43.18333333333334 24.744444444444447Q43.18333333333334 17 47.10277777777778 12.75Q51.022222222222226 8.5 58.483333333333334 8.5Q65.94444444444446 8.5 69.8638888888889 12.75Q73.78333333333333 17 73.78333333333333 24.744444444444447L73.78333333333333 31.733333333333334L63.961111111111116 31.733333333333334L63.961111111111116 24.083333333333336Q63.961111111111116 17.94444444444445 58.76666666666667 17.94444444444445Q53.57222222222223 17.94444444444445 53.57222222222223 24.083333333333336L53.57222222222223 61.01111111111111Q53.57222222222223 67.05555555555556 58.76666666666667 67.05555555555556Q63.961111111111116 67.05555555555556 63.961111111111116 61.01111111111111L63.961111111111116 50.90555555555556L73.78333333333333 50.90555555555556L73.78333333333333 60.25555555555556Q73.78333333333333 68 69.8638888888889 72.25Q65.94444444444446 76.5 58.483333333333334 76.5Z" fill="currentColor" fill-rule="evenodd"/><path d="M80.01666666666667 9.444444444444443L90.40555555555555 9.444444444444443L90.40555555555555 36.361111111111114L101.55 36.361111111111114L101.55 9.444444444444443L111.9388888888889 9.444444444444443L111.9388888888889 75.55555555555556L101.55 75.55555555555556L101.55 45.80555555555556L90.40555555555555 45.80555555555556L90.40555555555555 75.55555555555556L80.01666666666667 75.55555555555556Z" fill="currentColor" fill-rule="evenodd"/><path d="M127.71111111111112 9.444444444444443L141.78333333333333 9.444444444444443L152.55 75.55555555555556L142.16111111111113 75.55555555555556L140.27222222222224 62.42777777777778L140.27222222222224 62.61666666666667L128.46666666666667 62.61666666666667L126.57777777777778 75.55555555555556L116.94444444444446 75.55555555555556ZM139.04444444444445 53.644444444444446L134.41666666666669 20.96666666666667L134.2277777777778 20.96666666666667L129.69444444444446 53.644444444444446Z" fill="currentColor" fill-rule="evenodd"/><path d="M171.0611111111111 76.5Q163.50555555555556 76.5 159.63333333333333 72.20277777777778Q155.76111111111112 67.90555555555555 155.76111111111112 59.87777777777778L155.76111111111112 56.1L165.58333333333334 56.1L165.58333333333334 60.63333333333333Q165.58333333333334 67.05555555555556 170.96666666666667 67.05555555555556Q173.61111111111111 67.05555555555556 174.98055555555555 65.49722222222222Q176.35 63.93888888888889 176.35 60.44444444444444Q176.35 56.28888888888889 174.4611111111111 53.125Q172.57222222222222 49.96111111111111 167.47222222222223 45.522222222222226Q161.05 39.85555555555556 158.5 35.275000000000006Q155.95000000000002 30.69444444444445 155.95000000000002 24.933333333333337Q155.95000000000002 17.09444444444445 159.91666666666666 12.797222222222224Q163.88333333333333 8.5 171.4388888888889 8.5Q178.9 8.5 182.725 12.797222222222224Q186.55 17.09444444444445 186.55 25.122222222222227L186.55 27.861111111111114L176.7277777777778 27.861111111111114L176.7277777777778 24.461111111111116Q176.7277777777778 21.061111111111117 175.40555555555557 19.50277777777778Q174.08333333333334 17.94444444444445 171.53333333333333 17.94444444444445Q166.3388888888889 17.94444444444445 166.3388888888889 24.272222222222226Q166.3388888888889 27.861111111111114 168.275 30.97777777777778Q170.2111111111111 34.09444444444445 175.3111111111111 38.53333333333334Q181.82777777777778 44.2 184.28333333333333 48.82777777777778Q186.73888888888888 53.45555555555556 186.73888888888888 59.68888888888889Q186.73888888888888 67.81111111111112 182.725 72.15555555555555Q178.7111111111111 76.5 171.0611111111111 76.5Z" fill="currentColor" fill-rule="evenodd"/><path d="M192.6888888888889 9.444444444444443L221.0222222222222 9.444444444444443L221.0222222222222 18.888888888888893L203.07777777777778 18.888888888888893L203.07777777777778 36.361111111111114L217.33888888888887 36.361111111111114L217.33888888888887 45.80555555555556L203.07777777777778 45.80555555555556L203.07777777777778 66.11111111111111L221.0222222222222 66.11111111111111L221.0222222222222 75.55555555555556L192.6888888888889 75.55555555555556Z" fill="currentColor" fill-rule="evenodd"/><path d="M274.6666666666667 76.5Q267.2055555555556 76.5 263.2861111111111 72.25Q259.3666666666667 68 259.3666666666667 60.25555555555556L259.3666666666667 24.744444444444447Q259.3666666666667 17 263.2861111111111 12.75Q267.2055555555556 8.5 274.6666666666667 8.5Q282.1277777777778 8.5 286.0472222222222 12.75Q289.9666666666667 17 289.9666666666667 24.744444444444447L289.9666666666667 31.733333333333334L280.14444444444445 31.733333333333334L280.14444444444445 24.083333333333336Q280.14444444444445 17.94444444444445 274.95 17.94444444444445Q269.7555555555556 17.94444444444445 269.7555555555556 24.083333333333336L269.7555555555556 61.01111111111111Q269.7555555555556 67.05555555555556 274.95 67.05555555555556Q280.14444444444445 67.05555555555556 280.14444444444445 61.01111111111111L280.14444444444445 50.90555555555556L289.9666666666667 50.90555555555556L289.9666666666667 60.25555555555556Q289.9666666666667 68 286.0472222222222 72.25Q282.1277777777778 76.5 274.6666666666667 76.5Z" fill="currentColor" fill-rule="evenodd"/><path d="M296.2 9.444444444444443L324.53333333333336 9.444444444444443L324.53333333333336 18.888888888888893L306.5888888888889 18.888888888888893L306.5888888888889 36.361111111111114L320.85 36.361111111111114L320.85 45.80555555555556L306.5888888888889 45.80555555555556L306.5888888888889 66.11111111111111L324.53333333333336 66.11111111111111L324.53333333333336 75.55555555555556L296.2 75.55555555555556Z" fill="currentColor" fill-rule="evenodd"/><path d="M330.4833333333333 9.444444444444443L358.81666666666666 9.444444444444443L358.81666666666666 18.888888888888893L340.8722222222222 18.888888888888893L340.8722222222222 36.361111111111114L355.1333333333333 36.361111111111114L355.1333333333333 45.80555555555556L340.8722222222222 45.80555555555556L340.8722222222222 66.11111111111111L358.81666666666666 66.11111111111111L358.81666666666666 75.55555555555556L330.4833333333333 75.55555555555556Z" fill="currentColor" fill-rule="evenodd"/></svg>
