<svg xmlns="http://www.w3.org/2000/svg" viewBox="0 0 402 85"><path d="M21 41.04125878614758Q21.69326315113779 34.45525885033861 23.31087717045929 31.133372917803385Q26.401675385948586 24.72068876977886 32.525499887665696 22.034294059119944Q37.98494720287576 19.636758994768435 44.397631350900284 19.636758994768435Q55.143210193535964 19.636758994768435 60.082710145392696 25.529495779439614Q63.05796450235903 29.024697499759284 63.52013993645089 34.224171133292685L63.78011361812756 36.93945180858235Q63.28905221940495 37.4016272426742 57.569631222518225 37.4016272426742L52.976762846230386 37.34385531341272L52.60124530603075 37.34385531341272L50.08816638315628 37.28608338415124L49.39490323201849 37.31496934878198L48.81718393940367 37.31496934878198Q48.00837692974292 37.31496934878198 47.58953044259717 34.94632024906121Q47.17068395545142 32.57767114934044 46.318547998844565 31.812193086625804Q45.46641204223771 31.046715023911162 44.3398594216388 31.046715023911162Q43.2133068010399 31.046715023911162 42.36117084443303 31.45111852874154Q41.509034887826175 31.855522033571916 40.96020155984209 32.41879834387136Q40.41136823185801 32.982074654170816 40.03585069165838 34.02196938087749Q39.3425875405206 35.81289918798344 39.19815771736688 37.82047372981995Q39.05372789421318 39.828048271656456 39.05372789421318 42.31224122990018L39.05372789421318 43.00550438103797L38.93818403569021 45.92298680874282Q38.93818403569021 53.89551304682736 43.44439451808583 54.06882883461181Q44.59983310331547 54.06882883461181 45.06200853740732 53.66442532978144Q46.30410501652919 52.56675867381327 47.22845588471291 49.244872741278044Q47.43065763712809 48.55160959014026 47.71951728343551 48.118320120679144L48.81718393940367 48.118320120679144L50.145938312417755 48.14720608530989L54.82546458259782 48.14720608530989L56.24087684950413 48.118320120679144L58.98504348942453 48.14720608530989L60.66042943800751 48.14720608530989L62.36470135122124 48.17609204994063L63.52013993645089 48.17609204994063Q63.86677151201978 48.20497801457137 64.01120133517348 48.78269730718619L63.92454344128126 49.735934140000644Q63.66456975960459 53.14447796642809 62.3358153865905 55.91753057097924Q59.880508392977504 61.00146034598967 54.60881984786725 63.471210321918036Q49.33713130275701 65.9409602978464 43.03999101325545 65.9409602978464Q32.034438488943096 65.9409602978464 26.517219244471548 59.441618255929654Q21 52.94227621401291 21 41.04125878614758Z" fill="currentColor" fill-rule="evenodd"/><path d="M109.70879738100588 54.184372693134776L109.67991141637515 57.62180248419296Q109.67991141637515 59.78824983149855 109.73768334563663 64.4677761016786Q109.33327984080626 65.01660942966268 103.3249991976121 65.01660942966268Q97.31671855441795 65.01660942966268 92.57942035497642 64.84329364187823Q92.52164842571494 64.78552171261676 92.03058702699234 64.1211445261097L92.03058702699234 59.49939018519113L92.08835895625381 50.63139904355362Q92.08835895625381 49.33153063517027 91.79949930994641 49.100442918124344Q91.510639663639 48.86935520107841 90.0374554674712 48.86935520107841L89.63305196264082 48.86935520107841Q86.88888532272043 48.86935520107841 85.30015726802966 49.12932888275508L85.30015726802966 53.17336393105884L85.24238533876817 64.35223224315564Q84.80909586930707 64.81440767724749 77.99200821645216 64.81440767724749L76.6054819141766 64.81440767724749Q70.71274512950541 64.81440767724749 68.02635041884649 64.64109188946304Q67.4775170908624 64.4677761016786 67.4775170908624 60.53928491189781L67.65083287864685 54.15548672850403L67.93969252495427 28.273662419360015L67.93969252495427 26.887136117084445Q67.96857848958501 26.45384664762333 67.96857848958501 23.868552813172002Q67.96857848958501 21.283258978720674 68.28632410052316 20.58999582758289L68.43075392367686 20.58999582758289Q70.33722758930578 20.647767756844367 71.23269249285875 20.647767756844367L74.46792053150176 20.647767756844367L77.96312225182143 20.58999582758289L79.06078890778959 20.58999582758289Q83.97140289501557 20.58999582758289 84.78020990467633 21.71654844818179Q85.1846134095067 22.294267740796613 85.1846134095067 23.478592290656998L85.09795551561447 27.08933786949963L85.09795551561447 28.44697820714446L84.92463972783003 34.1663992040312Q84.92463972783003 34.8018904259075 85.01129762172225 35.84178515261418L86.8022274288282 35.84178515261418L87.52437654459672 35.870671117244925L89.83525371505601 35.870671117244925Q91.10623615880863 35.870671117244925 92.4349905318227 35.66846936482973L92.4349905318227 28.8224957473441L92.46387649645345 26.68493436466926L92.46387649645345 24.69180280514812L92.4349905318227 24.229627371056267L92.4349905318227 22.756443174888467Q92.4349905318227 21.052171261674744 92.5938633372918 20.676653721475112Q92.75273614276087 20.301136181275474 93.4171133292679 20.301136181275474L93.99483262188272 20.33002214590622L95.8724203228809 20.33002214590622L102.11178868312098 20.156706358121774Q109.56436755785218 20.156706358121774 109.56436755785218 21.34103090798216L109.56436755785218 23.391934396764775L109.59325352248291 24.08519754790256L109.56436755785218 25.5872677087011L109.56436755785218 30.06459222646596L109.70879738100588 48.49383766087878Q109.70879738100588 48.956013094970636 109.6510254517444 49.707048175369906L109.6510254517444 51.093574477645475Q109.6510254517444 52.01792534582919 109.70879738100588 53.51999550662773Z" fill="currentColor" fill-rule="evenodd"/><path d="M161.3280161761402 64.38111820778637Q161.29913021150946 64.75663574798601 159.73928812144945 64.75663574798601L157.08177937542126 64.75663574798601L155.2908495683153 64.78552171261676L153.5288057258401 64.78552171261676L150.72686715665822 64.81440767724749Q146.53840228520076 64.81440767724749 143.76534968064962 64.61220592483231Q143.67869178675738 64.58331996020156 143.56314792823443 64.26557434926342L143.41871810508073 63.65896909201785Q143.15874442340404 60.68371473505152 142.0610777674359 57.91066213050037L129.6978849054787 58.02620598902334Q129.58234104695575 58.51726738774594 128.94684982507943 60.943688416728186Q128.31135860320313 63.37010944571044 127.99361299226499 64.61220592483231Q127.70475334595757 64.90106557113971 125.24944635234458 64.90106557113971L124.52729723657606 64.87217960650898L122.85191128799308 64.87217960650898L115.34156048400038 65.04549539429343L114.47498154507815 65.04549539429343L113.66617453541741 65.07438135892416L111.64415701126553 65.07438135892416Q111.44195525885034 64.87217960650898 111.21086754180442 64.55443399557082Q114.09946400487853 54.55989023333441 119.03896395673524 39.77027634239497L119.7033411432423 37.719372853612356L119.67445517861155 37.719372853612356L120.45437622364156 35.32183778926084Q120.8298937638412 34.1663992040312 122.60638058863177 28.909153641236323Q124.38286741342235 23.651908078441444 124.83059986519883 22.120951953012167Q125.27833231697532 20.58999582758289 125.36499021086755 20.532223898321405L130.16006033957058 20.532223898321405L140.41457778348365 20.387794075167697L143.1876303880348 20.532223898321405L145.46962159386334 20.387794075167697Q147.2027794717078 20.387794075167697 147.2027794717078 21.08105722630549Q150.09137593478192 29.140241358282253 154.91533202811567 44.27648682479058Q159.73928812144945 59.41273229129891 160.345893378695 61.29031999229708L160.75029688352538 62.73461822383413Q160.95249863594057 63.51453926886415 161.3280161761402 64.38111820778637ZM132.73091119170653 48.609381519401744L133.9152357415669 48.63826748403248L140.81898128831403 48.609381519401744Q140.3856918188529 45.17195172834356 140.15460410180697 43.55433770902205L139.05693744583883 38.614837757165326Q137.32377956799436 30.96005713001894 137.26600763873287 30.81562730686523Q137.20823570947138 30.67119748371153 137.16490676252528 30.541210642873196Q137.12157781557917 30.41122380203486 137.09269185094843 30.36789485508875Q137.06380588631768 30.32456590814263 137.02047693937158 30.20902204961967Q136.97714799242547 30.093478191096708 136.93381904547934 30.050149244150596Q136.89049009853323 30.006820297204484 136.83271816927174 29.92016240331226Q136.63051641685658 29.57353082774337 135.99502519498026 29.3135571460667Q135.21510414995026 29.486872933851146 131.34438488943096 46.70290785377283L131.0266392784928 48.609381519401744Z" fill="currentColor" fill-rule="evenodd"/><path d="M161.44356003466316 52.13346920435215L176.7242353243252 51.87349552267548Q177.30195461694 51.87349552267548 177.69191513945503 52.85561832012068Q178.08187566197003 53.83774111756588 178.45739320216967 54.4154604101807Q179.35285810572265 55.80198671245628 181.4182045768206 55.80198671245628Q183.4835510479186 55.80198671245628 184.75453349167122 54.83430689732645Q186.0255159354238 53.86662708219662 186.0255159354238 52.335670956767345Q186.0255159354238 50.80471483133807 185.24559489039382 50.24143852103862Q184.4656738453638 49.67816221073916 183.5413229771801 49.143771865070455Q182.61697210899638 48.609381519401744 180.81159931957507 48.320521873094336Q179.00622653015375 48.03166222678692 178.83291074236928 47.97389029752544L178.89068267163077 47.97389029752544L177.24418268767855 47.54060082806433Q175.65545463298778 47.25174118175691 174.58667394165036 46.90510960618802Q167.68292839490323 45.05640786982059 164.6065731617293 42.2544693006387Q161.53021792855537 39.45253073145682 161.53021792855537 34.71523253201528Q161.53021792855537 31.277802740957092 162.801200372308 28.533636101036684Q164.0721828160606 25.789469461116283 166.1230863048432 24.05631158327182Q172.04470905414513 19.059039702153612 182.47254228584268 19.059039702153612Q190.76281413486535 19.059039702153612 195.5001123343069 22.063180023750682L195.47122636967617 22.063180023750682Q198.50425265590397 24.258513335687006 199.63080527650288 26.38163173604648Q200.75735789710177 28.504750136405946 201.0462175434092 31.624434316525985L200.29518246300992 32.375469396925254Q192.698173765125 32.66432904323266 186.83432294508458 32.66432904323266Q185.07227910260937 32.66432904323266 184.72564752704048 31.624434316525985Q184.58121770388678 31.19114484706487 184.40790191610233 30.757855377603754Q184.00349841127195 29.71796065089707 181.8081650993356 29.71796065089707L181.69262124081266 29.71796065089707Q179.98834932759894 29.71796065089707 178.77513881310782 30.51232467824245Q177.5619282986167 31.30668870558783 177.5474853163013 32.0577237859871Q177.53304233398595 32.80875886638637 177.86523092723945 33.29982026510896Q178.19741952049299 33.79088166383157 178.57293706069262 34.07974131013897Q178.94845460089226 34.368600956446386 179.72837564592226 34.67190358506917Q180.50829669095228 34.97520621369195 180.89825721346728 35.076307089899544Q181.2882177359823 35.17740796610714 182.12591071027379 35.40849568315306L183.13691947234972 35.66846936482973Q183.74352472959526 35.84178515261418 186.6754501396155 36.535048303751964Q189.60737554963572 37.228311454889756 191.57162114452612 37.863802676766056L191.57162114452612 37.83491671213532Q197.72433161087397 39.91470616554868 199.9629938697564 43.01994736335334Q202.20165612863883 46.12518856115801 202.20165612863883 50.25588150335398Q202.20165612863883 61.26143402766634 189.05854222165163 64.52554803094009Q185.24559489039382 65.47878486375454 180.91270019578266 65.88318836858491Q175.5976827037263 65.88318836858491 170.3982090701929 64.3233462785249Q165.1987354366595 62.76350418846488 163.43669159418428 59.23941650351446Q162.2523670443239 57.53514459030074 161.84796353949352 56.10528934107906Q161.44356003466316 54.67543409185737 161.18358635298648 52.104583239721414Q161.27024424687872 52.13346920435215 161.44356003466316 52.13346920435215Z" fill="currentColor" fill-rule="evenodd"/><path d="M205.81240170748148 28.30254838399076L205.66797188432778 20.70553968610585Q205.69685784895853 20.70553968610585 205.87017363674298 20.792197579998074Q227.8235067561062 20.416680039798443 238.94460313894152 20.387794075167697Q239.06014699746447 20.445566004429182 239.11791892672596 20.561109862952144L239.11791892672596 28.70695188882113Q239.11791892672596 29.891276438681516 239.06014699746447 30.642311519080785Q238.91571717431077 31.104486953172646 237.35587508425075 31.104486953172646L237.15367333183556 31.104486953172646Q230.16326989119622 31.104486953172646 222.59514715794205 30.873399236126716Q222.59514715794205 31.133372917803385 222.5229322463652 31.79775010431043Q222.45071733478835 32.46212729081748 222.4218313701576 32.750986937124885L222.2774015470039 33.84865359309305Q222.1329717238502 34.94632024906121 222.0751997945887 37.66160092435087L231.02984883011845 37.45939917193569Q233.34072600057775 37.4016272426742 234.38062072728442 37.4016272426742L234.84279616137627 37.4016272426742Q236.6048400038515 37.4016272426742 237.15367333183556 37.50272811888179Q237.70250665981965 37.60382899508939 237.70250665981965 38.09489039381199L237.6736206951889 38.32597811085792L237.6736206951889 39.0192412619957L237.8180505183426 46.44293417209616L237.78916455371188 46.471820136726905L237.78916455371188 46.44293417209616Q229.0078313059666 46.876223641557274 223.7505857431717 46.876223641557274L222.39294540552686 46.876223641557274L222.39294540552686 53.86662708219662L238.07802420001929 53.37556568347402Q239.37789260840265 53.37556568347402 239.72452418397154 53.75108322367366Q239.6956382193408 54.50211830407292 239.6956382193408 55.8886446063485L239.89783997175596 63.74562698591007Q239.89783997175596 64.4677761016786 239.26234874987966 64.58331996020156L229.67220849247363 64.49666206630934Q226.841383958661 64.49666206630934 218.4066822864846 64.69886381872453L213.66938408704306 64.81440767724749Q208.64322624129412 64.98772346503193 206.21680521231187 64.98772346503193L206.13014731841963 64.92995153577046L206.15903328305038 64.92995153577046Q205.87017363674298 64.64109188946304 205.6101999550663 64.38111820778637L205.6101999550663 63.37010944571044L205.78351574285074 32.491013255448216Z" fill="currentColor" fill-rule="evenodd"/><path d="M262.36534326154634 41.04125878614758Q263.0586064126841 34.45525885033861 264.67622043200566 31.133372917803385Q267.767018647495 24.72068876977886 273.89084314921206 22.034294059119944Q279.35029046442213 19.636758994768435 285.76297461244667 19.636758994768435Q296.50855345508234 19.636758994768435 301.44805340693904 25.529495779439614Q304.42330776390537 29.024697499759284 304.88548319799725 34.224171133292685L305.14545687967393 36.93945180858235Q304.65439548095134 37.4016272426742 298.9349744840646 37.4016272426742L294.3421061077768 37.34385531341272L293.9665885675771 37.34385531341272L291.45350964470265 37.28608338415124L290.76024649356486 37.31496934878198L290.18252720095006 37.31496934878198Q289.3737201912893 37.31496934878198 288.95487370414355 34.94632024906121Q288.5360272169978 32.57767114934044 287.6838912603909 31.812193086625804Q286.83175530378406 31.046715023911162 285.7052026831852 31.046715023911162Q284.5786500625863 31.046715023911162 283.7265141059794 31.45111852874154Q282.87437814937255 31.855522033571916 282.32554482138846 32.41879834387136Q281.7767114934044 32.982074654170816 281.40119395320477 34.02196938087749Q280.707930802067 35.81289918798344 280.5635009789132 37.82047372981995Q280.4190711557595 39.828048271656456 280.4190711557595 42.31224122990018L280.4190711557595 43.00550438103797L280.3035272972366 45.92298680874282Q280.3035272972366 53.89551304682736 284.8097377796322 54.06882883461181Q285.96517636486186 54.06882883461181 286.4273517989537 53.66442532978144Q287.66944827807555 52.56675867381327 288.5937991462593 49.244872741278044Q288.7960008986745 48.55160959014026 289.0848605449819 48.118320120679144L290.18252720095006 48.118320120679144L291.51128157396414 48.14720608530989L296.19080784414416 48.14720608530989L297.6062201110505 48.118320120679144L300.35038675097087 48.14720608530989L302.0257726995539 48.14720608530989L303.7300446127676 48.17609204994063L304.88548319799725 48.17609204994063Q305.23211477356614 48.20497801457137 305.37654459671984 48.78269730718619L305.28988670282763 49.735934140000644Q305.02991302115095 53.14447796642809 303.70115864813687 55.91753057097924Q301.2458516545239 61.00146034598967 295.9741631094136 63.471210321918036Q290.7024745643034 65.9409602978464 284.4053342748018 65.9409602978464Q273.39978175048947 65.9409602978464 267.8825625060179 59.441618255929654Q262.36534326154634 52.94227621401291 262.36534326154634 41.04125878614758Z" fill="currentColor" fill-rule="evenodd"/><path d="M309.1894919279777 28.30254838399076L309.045062104824 20.70553968610585Q309.07394806945473 20.70553968610585 309.24726385723915 20.792197579998074Q331.2005969766024 20.416680039798443 342.32169335943775 20.387794075167697Q342.43723721796067 20.445566004429182 342.49500914722216 20.561109862952144L342.49500914722216 28.70695188882113Q342.49500914722216 29.891276438681516 342.43723721796067 30.642311519080785Q342.29280739480697 31.104486953172646 340.7329653047469 31.104486953172646L340.5307635523318 31.104486953172646Q333.54036011169245 31.104486953172646 325.97223737843825 30.873399236126716Q325.97223737843825 31.133372917803385 325.9000224668614 31.79775010431043Q325.82780755528455 32.46212729081748 325.79892159065383 32.750986937124885L325.65449176750013 33.84865359309305Q325.5100619443464 34.94632024906121 325.45229001508494 37.66160092435087L334.40693905061465 37.45939917193569Q336.7178162210739 37.4016272426742 337.75771094778065 37.4016272426742L338.21988638187247 37.4016272426742Q339.9819302243477 37.4016272426742 340.5307635523318 37.50272811888179Q341.0795968803159 37.60382899508939 341.0795968803159 38.09489039381199L341.0507109156851 38.32597811085792L341.0507109156851 39.0192412619957L341.1951407388388 46.44293417209616L341.1662547742081 46.471820136726905L341.1662547742081 46.44293417209616Q332.3849215264628 46.876223641557274 327.1276759636679 46.876223641557274L325.77003562602306 46.876223641557274L325.77003562602306 53.86662708219662L341.4551144205155 53.37556568347402Q342.75498282889885 53.37556568347402 343.10161440446774 53.75108322367366Q343.07272843983696 54.50211830407292 343.07272843983696 55.8886446063485L343.27493019225216 63.74562698591007Q343.27493019225216 64.4677761016786 342.63943897037586 64.58331996020156L333.04929871296986 64.49666206630934Q330.2184741791572 64.49666206630934 321.7837725069808 64.69886381872453L317.04647430753926 64.81440767724749Q312.02031646179034 64.98772346503193 309.59389543280804 64.98772346503193L309.50723753891583 64.92995153577046L309.5361235035466 64.92995153577046Q309.24726385723915 64.64109188946304 308.9872901755625 64.38111820778637L308.9872901755625 63.37010944571044L309.16060596334694 32.491013255448216Z" fill="currentColor" fill-rule="evenodd"/><path d="M346.91456173572556 28.30254838399076L346.77013191257186 20.70553968610585Q346.7990178772026 20.70553968610585 346.972333664987 20.792197579998074Q368.92566678435026 20.416680039798443 380.04676316718553 20.387794075167697Q380.1623070257085 20.445566004429182 380.22007895497 20.561109862952144L380.22007895497 28.70695188882113Q380.22007895497 29.891276438681516 380.1623070257085 30.642311519080785Q380.0178772025548 31.104486953172646 378.4580351124948 31.104486953172646L378.25583336007963 31.104486953172646Q371.2654299194403 31.104486953172646 363.6973071861861 30.873399236126716Q363.6973071861861 31.133372917803385 363.62509227460924 31.79775010431043Q363.5528773630324 32.46212729081748 363.5239913984017 32.750986937124885L363.379561575248 33.84865359309305Q363.2351317520943 34.94632024906121 363.1773598228328 37.66160092435087L372.1320088583625 37.45939917193569Q374.4428860288218 37.4016272426742 375.4827807555285 37.4016272426742L375.9449561896203 37.4016272426742Q377.70700003209555 37.4016272426742 378.25583336007963 37.50272811888179Q378.8046666880637 37.60382899508939 378.8046666880637 38.09489039381199L378.77578072343294 38.32597811085792L378.77578072343294 39.0192412619957L378.92021054658665 46.44293417209616L378.8913245819559 46.471820136726905L378.8913245819559 46.44293417209616Q370.10999133421063 46.876223641557274 364.85274577141575 46.876223641557274L363.4951054337709 46.876223641557274L363.4951054337709 53.86662708219662L379.18018422826333 53.37556568347402Q380.4800526366467 53.37556568347402 380.8266842122156 53.75108322367366Q380.7977982475848 54.50211830407292 380.7977982475848 55.8886446063485L381 63.74562698591007Q381 64.4677761016786 380.3645087781237 64.58331996020156L370.77436852071764 64.49666206630934Q367.94354398690507 64.49666206630934 359.50884231472867 64.69886381872453L354.7715441152871 64.81440767724749Q349.7453862695382 64.98772346503193 347.3189652405559 64.98772346503193L347.2323073466637 64.92995153577046L347.26119331129445 64.92995153577046Q346.972333664987 64.64109188946304 346.71235998331036 64.38111820778637L346.71235998331036 63.37010944571044L346.8856757710948 32.491013255448216Z" fill="currentColor" fill-rule="evenodd"/></svg>
