<svg xmlns="http://www.w3.org/2000/svg" viewBox="0 0 402 85"><path d="M21 41Q21.7 34.5 23.3 31.1Q26.4 24.7 32.5 22Q38 19.6 44.4 19.6Q55.1 19.6 60.1 25.5Q63.1 29 63.5 34.2L63.8 36.9Q63.3 37.4 57.6 37.4L53 37.3L52.6 37.3L50.1 37.3L49.4 37.3L48.8 37.3Q48 37.3 47.6 34.9Q47.2 32.6 46.3 31.8Q45.5 31 44.3 31Q43.2 31 42.4 31.5Q41.5 31.9 41 32.4Q40.4 33 40 34Q39.3 35.8 39.2 37.8Q39.1 39.8 39.1 42.3L39.1 43L38.9 45.9Q38.9 53.9 43.4 54.1Q44.6 54.1 45.1 53.7Q46.3 52.6 47.2 49.2Q47.4 48.6 47.7 48.1L48.8 48.1L50.1 48.1L54.8 48.1L56.2 48.1L59 48.1L60.7 48.1L62.4 48.2L63.5 48.2Q63.9 48.2 64 48.8L63.9 49.7Q63.7 53.1 62.3 55.9Q59.9 61 54.6 63.5Q49.3 65.9 43 65.9Q32 65.9 26.5 59.4Q21 52.9 21 41Z" fill="currentColor" fill-rule="evenodd"/><path d="M109.7 54.2L109.7 57.6Q109.7 59.8 109.7 64.5Q109.3 65 103.3 65Q97.3 65 92.6 64.8Q92.5 64.8 92 64.1L92 59.5L92.1 50.6Q92.1 49.3 91.8 49.1Q91.5 48.9 90 48.9L89.6 48.9Q86.9 48.9 85.3 49.1L85.3 53.2L85.2 64.4Q84.8 64.8 78 64.8L76.6 64.8Q70.7 64.8 68 64.6Q67.5 64.5 67.5 60.5L67.7 54.2L67.9 28.3L67.9 26.9Q68 26.5 68 23.9Q68 21.3 68.3 20.6L68.4 20.6Q70.3 20.6 71.2 20.6L74.5 20.6L78 20.6L79.1 20.6Q84 20.6 84.8 21.7Q85.2 22.3 85.2 23.5L85.1 27.1L85.1 28.4L84.9 34.2Q84.9 34.8 85 35.8L86.8 35.8L87.5 35.9L89.8 35.9Q91.1 35.9 92.4 35.7L92.4 28.8L92.5 26.7L92.5 24.7L92.4 24.2L92.4 22.8Q92.4 21.1 92.6 20.7Q92.8 20.3 93.4 20.3L94 20.3L95.9 20.3L102.1 20.2Q109.6 20.2 109.6 21.3L109.6 23.4L109.6 24.1L109.6 25.6L109.6 30.1L109.7 48.5Q109.7 49 109.7 49.7L109.7 51.1Q109.7 52 109.7 53.5Z" fill="currentColor" fill-rule="evenodd"/><path d="M161.3 64.4Q161.3 64.8 159.7 64.8L157.1 64.8L155.3 64.8L153.5 64.8L150.7 64.8Q146.5 64.8 143.8 64.6Q143.7 64.6 143.6 64.3L143.4 63.7Q143.2 60.7 142.1 57.9L129.7 58Q129.6 58.5 128.9 60.9Q128.3 63.4 128 64.6Q127.7 64.9 125.2 64.9L124.5 64.9L122.9 64.9L115.3 65L114.5 65L113.7 65.1L111.6 65.1Q111.4 64.9 111.2 64.6Q114.1 54.6 119 39.8L119.7 37.7L119.7 37.7L120.5 35.3Q120.8 34.2 122.6 28.9Q124.4 23.7 124.8 22.1Q125.3 20.6 125.4 20.5L130.2 20.5L140.4 20.4L143.2 20.5L145.5 20.4Q147.2 20.4 147.2 21.1Q150.1 29.1 154.9 44.3Q159.7 59.4 160.3 61.3L160.8 62.7Q161 63.5 161.3 64.4ZM132.7 48.6L133.9 48.6L140.8 48.6Q140.4 45.2 140.2 43.6L139.1 38.6Q137.3 31 137.3 30.8Q137.2 30.7 137.2 30.5Q137.1 30.4 137.1 30.4Q137.1 30.3 137 30.2Q137 30.1 136.9 30.1Q136.9 30 136.8 29.9Q136.6 29.6 136 29.3Q135.2 29.5 131.3 46.7L131 48.6Z" fill="currentColor" fill-rule="evenodd"/><path d="M161.4 52.1L176.7 51.9Q177.3 51.9 177.7 52.9Q178.1 53.8 178.5 54.4Q179.4 55.8 181.4 55.8Q183.5 55.8 184.8 54.8Q186 53.9 186 52.3Q186 50.8 185.2 50.2Q184.5 49.7 183.5 49.1Q182.6 48.6 180.8 48.3Q179 48 178.8 48L178.9 48L177.2 47.5Q175.7 47.3 174.6 46.9Q167.7 45.1 164.6 42.3Q161.5 39.5 161.5 34.7Q161.5 31.3 162.8 28.5Q164.1 25.8 166.1 24.1Q172 19.1 182.5 19.1Q190.8 19.1 195.5 22.1L195.5 22.1Q198.5 24.3 199.6 26.4Q200.8 28.5 201 31.6L200.3 32.4Q192.7 32.7 186.8 32.7Q185.1 32.7 184.7 31.6Q184.6 31.2 184.4 30.8Q184 29.7 181.8 29.7L181.7 29.7Q180 29.7 178.8 30.5Q177.6 31.3 177.5 32.1Q177.5 32.8 177.9 33.3Q178.2 33.8 178.6 34.1Q178.9 34.4 179.7 34.7Q180.5 35 180.9 35.1Q181.3 35.2 182.1 35.4L183.1 35.7Q183.7 35.8 186.7 36.5Q189.6 37.2 191.6 37.9L191.6 37.8Q197.7 39.9 200 43Q202.2 46.1 202.2 50.3Q202.2 61.3 189.1 64.5Q185.2 65.5 180.9 65.9Q175.6 65.9 170.4 64.3Q165.2 62.8 163.4 59.2Q162.3 57.5 161.8 56.1Q161.4 54.7 161.2 52.1Q161.3 52.1 161.4 52.1Z" fill="currentColor" fill-rule="evenodd"/><path d="M205.8 28.3L205.7 20.7Q205.7 20.7 205.9 20.8Q227.8 20.4 238.9 20.4Q239.1 20.4 239.1 20.6L239.1 28.7Q239.1 29.9 239.1 30.6Q238.9 31.1 237.4 31.1L237.2 31.1Q230.2 31.1 222.6 30.9Q222.6 31.1 222.5 31.8Q222.5 32.5 222.4 32.8L222.3 33.8Q222.1 34.9 222.1 37.7L231 37.5Q233.3 37.4 234.4 37.4L234.8 37.4Q236.6 37.4 237.2 37.5Q237.7 37.6 237.7 38.1L237.7 38.3L237.7 39L237.8 46.4L237.8 46.5L237.8 46.4Q229 46.9 223.8 46.9L222.4 46.9L222.4 53.9L238.1 53.4Q239.4 53.4 239.7 53.8Q239.7 54.5 239.7 55.9L239.9 63.7Q239.9 64.5 239.3 64.6L229.7 64.5Q226.8 64.5 218.4 64.7L213.7 64.8Q208.6 65 206.2 65L206.1 64.9L206.2 64.9Q205.9 64.6 205.6 64.4L205.6 63.4L205.8 32.5Z" fill="currentColor" fill-rule="evenodd"/><path d="M262.4 41Q263.1 34.5 264.7 31.1Q267.8 24.7 273.9 22Q279.4 19.6 285.8 19.6Q296.5 19.6 301.4 25.5Q304.4 29 304.9 34.2L305.1 36.9Q304.7 37.4 298.9 37.4L294.3 37.3L294 37.3L291.5 37.3L290.8 37.3L290.2 37.3Q289.4 37.3 289 34.9Q288.5 32.6 287.7 31.8Q286.8 31 285.7 31Q284.6 31 283.7 31.5Q282.9 31.9 282.3 32.4Q281.8 33 281.4 34Q280.7 35.8 280.6 37.8Q280.4 39.8 280.4 42.3L280.4 43L280.3 45.9Q280.3 53.9 284.8 54.1Q286 54.1 286.4 53.7Q287.7 52.6 288.6 49.2Q288.8 48.6 289.1 48.1L290.2 48.1L291.5 48.1L296.2 48.1L297.6 48.1L300.4 48.1L302 48.1L303.7 48.2L304.9 48.2Q305.2 48.2 305.4 48.8L305.3 49.7Q305 53.1 303.7 55.9Q301.2 61 296 63.5Q290.7 65.9 284.4 65.9Q273.4 65.9 267.9 59.4Q262.4 52.9 262.4 41Z" fill="currentColor" fill-rule="evenodd"/><path d="M309.2 28.3L309 20.7Q309.1 20.7 309.2 20.8Q331.2 20.4 342.3 20.4Q342.4 20.4 342.5 20.6L342.5 28.7Q342.5 29.9 342.4 30.6Q342.3 31.1 340.7 31.1L340.5 31.1Q333.5 31.1 326 30.9Q326 31.1 325.9 31.8Q325.8 32.5 325.8 32.8L325.7 33.8Q325.5 34.9 325.5 37.7L334.4 37.5Q336.7 37.4 337.8 37.4L338.2 37.4Q340 37.4 340.5 37.5Q341.1 37.6 341.1 38.1L341.1 38.3L341.1 39L341.2 46.4L341.2 46.5L341.2 46.4Q332.4 46.9 327.1 46.9L325.8 46.9L325.8 53.9L341.5 53.4Q342.8 53.4 343.1 53.8Q343.1 54.5 343.1 55.9L343.3 63.7Q343.3 64.5 342.6 64.6L333 64.5Q330.2 64.5 321.8 64.7L317 64.8Q312 65 309.6 65L309.5 64.9L309.5 64.9Q309.2 64.6 309 64.4L309 63.4L309.2 32.5Z" fill="currentColor" fill-rule="evenodd"/><path d="M346.9 28.3L346.8 20.7Q346.8 20.7 347 20.8Q368.9 20.4 380 20.4Q380.2 20.4 380.2 20.6L380.2 28.7Q380.2 29.9 380.2 30.6Q380 31.1 378.5 31.1L378.3 31.1Q371.3 31.1 363.7 30.9Q363.7 31.1 363.6 31.8Q363.6 32.5 363.5 32.8L363.4 33.8Q363.2 34.9 363.2 37.7L372.1 37.5Q374.4 37.4 375.5 37.4L375.9 37.4Q377.7 37.4 378.3 37.5Q378.8 37.6 378.8 38.1L378.8 38.3L378.8 39L378.9 46.4L378.9 46.5L378.9 46.4Q370.1 46.9 364.9 46.9L363.5 46.9L363.5 53.9L379.2 53.4Q380.5 53.4 380.8 53.8Q380.8 54.5 380.8 55.9L381 63.7Q381 64.5 380.4 64.6L370.8 64.5Q367.9 64.5 359.5 64.7L354.8 64.8Q349.7 65 347.3 65L347.2 64.9L347.3 64.9Q347 64.6 346.7 64.4L346.7 63.4L346.9 32.5Z" fill="currentColor" fill-rule="evenodd"/></svg>
