<svg xmlns="http://www.w3.org/2000/svg" viewBox="0 0 402 85"><path d="M43.5 65.2Q37.3 65.2 32.1 62.7Q27 60.2 24 55.1Q21 50 21 42.3Q21 37.8 22.6 33.7Q24.1 29.6 27 26.4Q29.8 23.2 33.7 21.3Q37.6 19.5 42.2 19.5Q48.1 19.5 52.5 21.6Q56.8 23.8 59.3 27.4Q61.8 31.1 61.8 35.6Q61.8 37.4 61.1 39Q60.4 40.6 59 41.6Q57.6 42.7 55.3 42.7Q53.2 42.7 52 42Q50.8 41.4 50 40.4Q49.2 39.5 48.3 38.5Q47.5 37.5 46.2 36.9Q45 36.2 42.8 36.2Q40.8 36.2 39.1 37.3Q37.4 38.3 36.4 40.1Q35.4 41.9 35.4 44.2Q35.4 47.6 37.2 50.2Q39 52.7 42.3 52.7Q44.9 52.7 46.5 51.9Q48 51.1 49.1 50.1Q50.2 49.1 51.4 48.3Q52.7 47.5 54.7 47.5Q57.6 47.5 59.1 49.4Q60.6 51.3 60.3 54.1Q60.1 56.9 57.9 59.5Q55.7 62 52 63.6Q48.3 65.2 43.5 65.2Z" fill="currentColor" fill-rule="evenodd"/><path d="M74.1 65.3Q70.3 65.3 68.3 62.7Q66.3 60.1 65.7 55.1Q65 50 65 42.6Q65 35.1 65.7 30Q66.3 24.9 68.3 22.3Q70.3 19.7 74.1 19.7Q77.4 19.7 79.2 21.8Q81 23.8 81.8 27.8Q82.5 31.7 82.7 37.2Q83.8 37.2 85 37.2Q86.1 37.2 87.3 37.2Q88.7 37.2 90 37.2Q91.4 37.2 92.6 37.3Q92.8 31.7 93.5 27.8Q94.2 23.8 96 21.7Q97.8 19.6 101.1 19.6Q104.9 19.6 106.9 22.3Q108.9 24.9 109.6 30Q110.2 35.1 110.2 42.6Q110.2 50 109.6 55.1Q108.9 60.1 106.9 62.7Q104.9 65.2 101.1 65.2Q96.4 65.2 94.7 61.2Q93 57.1 92.7 49.6Q91.2 49.7 89.5 49.7Q87.8 49.7 86 49.7Q85.1 49.7 84.3 49.7Q83.4 49.7 82.6 49.7Q82.3 57.1 80.5 61.2Q78.8 65.3 74.1 65.3Z" fill="currentColor" fill-rule="evenodd"/><path d="M123.7 65.5Q119.2 65.5 116.6 61.1Q114 56.7 113.6 49.6Q113.1 40.7 115.5 33.9Q118 27.2 123 23.4Q127.9 19.6 134.8 19.6Q141.8 19.6 146.7 23.4Q151.7 27.2 154.1 33.9Q156.6 40.7 156 49.6Q155.5 56.9 152.9 61.2Q150.3 65.4 145.8 65.4Q143.3 65.4 141.9 64.5Q140.5 63.5 140 62.1Q139.4 60.6 139.4 59Q139.4 57.5 139.6 56.4Q137.5 56.5 134.7 56.5Q131.9 56.5 130 56.4Q130.2 57.5 130.2 59Q130.2 60.6 129.6 62.1Q129.1 63.5 127.7 64.5Q126.3 65.5 123.7 65.5ZM129.5 44.7Q134.7 44.5 139.9 44.7Q140.2 42.4 139.8 40.3Q139.4 38.2 138.2 36.9Q136.9 35.6 134.6 35.6Q132.3 35.6 131.1 36.9Q129.9 38.2 129.5 40.3Q129.2 42.4 129.5 44.7Z" fill="currentColor" fill-rule="evenodd"/><path d="M176.6 65.4Q173.4 65.4 170.3 64.7Q167.3 64.1 164.8 62.8Q162.3 61.6 160.8 59.8Q159.3 58 159.3 55.8Q159.3 53 161 51.5Q162.7 50 165.1 50Q167.3 50 168.8 50.7Q170.2 51.3 171.4 52Q172.6 52.7 174 52.7Q176.2 52.7 176.2 51Q176.2 50.2 174.7 49.5Q173.2 48.9 170.8 48Q168.4 47.1 165.9 45.6Q162.1 43.3 160.7 40.6Q159.3 38 159.3 34.2Q159.3 30.3 161.7 27Q164.2 23.6 168.3 21.6Q172.4 19.6 177.5 19.6Q182.5 19.6 186.5 21.1Q190.5 22.6 192.8 25.1Q195.1 27.6 195.1 30.8Q195.1 33.5 194 35Q192.9 36.6 191.3 37.3Q189.7 38 188.2 38Q186 38 184.9 37.8Q183.8 37.5 183.1 37.2Q182.5 36.9 181.8 36.7Q181.1 36.4 179.8 36.4Q179 36.4 178.2 36.9Q177.4 37.5 177.4 38.5Q177.4 39.5 178.8 40Q180.2 40.6 181.8 41.2Q187.6 43.3 190.6 46.1Q193.7 49 193.7 53.6Q193.7 59.2 189.2 62.3Q184.7 65.4 176.6 65.4Z" fill="currentColor" fill-rule="evenodd"/><path d="M220.8 65.4Q218.1 65.4 215.1 65Q212 64.6 209.1 63.3Q206.1 62.1 203.7 59.7Q201.3 57.2 199.8 53.2Q198.4 49.2 198.4 43.2Q198.4 36.7 200.6 31.3Q202.8 25.9 207.4 22.7Q211.9 19.5 218.7 19.5Q223.6 19.5 226.7 20.4Q229.8 21.2 231.6 22.6Q233.4 24 234.1 25.6Q234.7 27.2 234.7 28.9Q234.7 30.6 233.9 32.1Q233 33.7 231.1 34.6Q229.2 35.5 227.3 35.4Q225.3 35.3 223.7 35.3Q220.3 35.3 218.4 36.5Q216.5 37.7 215.7 40.2Q216.7 40.1 218 40.1Q219.3 40.1 220.7 40.1Q223.3 40.1 225.8 40.2Q228.3 40.3 229.2 40.5Q231.5 40.9 232.7 42.3Q233.9 43.6 233.9 45.3Q233.9 47 232.8 48.3Q231.7 49.6 229.2 50.1Q228.3 50.3 225.7 50.4Q223.1 50.5 220.3 50.5Q219.2 50.5 218.1 50.5Q217.1 50.4 216.2 50.4Q217.1 52.5 219 53.6Q220.9 54.8 223.8 54.8Q224.9 54.8 227 54.5Q229.1 54.3 231.1 54.9Q234.2 55.9 234.2 59Q234.2 60.7 233.1 62.2Q231.9 63.7 229 64.5Q226.1 65.4 220.8 65.4Z" fill="currentColor" fill-rule="evenodd"/><path d="M283.4 65.2Q277.2 65.2 272.1 62.7Q267 60.2 264 55.1Q261 50 261 42.3Q261 37.8 262.5 33.7Q264.1 29.6 267 26.4Q269.8 23.2 273.7 21.3Q277.5 19.5 282.2 19.5Q288 19.5 292.4 21.6Q296.8 23.8 299.3 27.4Q301.7 31.1 301.7 35.6Q301.7 37.4 301 39Q300.3 40.6 298.9 41.6Q297.5 42.7 295.3 42.7Q293.2 42.7 292 42Q290.8 41.4 290 40.4Q289.1 39.5 288.3 38.5Q287.4 37.5 286.2 36.9Q284.9 36.2 282.8 36.2Q280.7 36.2 279 37.3Q277.3 38.3 276.3 40.1Q275.3 41.9 275.3 44.2Q275.3 47.6 277.1 50.2Q278.9 52.7 282.3 52.7Q284.9 52.7 286.4 51.9Q288 51.1 289 50.1Q290.1 49.1 291.4 48.3Q292.7 47.5 294.7 47.5Q297.6 47.5 299.1 49.4Q300.5 51.3 300.3 54.1Q300 56.9 297.8 59.5Q295.6 62 291.9 63.6Q288.2 65.2 283.4 65.2Z" fill="currentColor" fill-rule="evenodd"/><path d="M327.4 65.4Q324.7 65.4 321.7 65Q318.6 64.6 315.7 63.3Q312.7 62.1 310.3 59.7Q307.9 57.2 306.4 53.2Q305 49.2 305 43.2Q305 36.7 307.2 31.3Q309.4 25.9 314 22.7Q318.5 19.5 325.3 19.5Q330.2 19.5 333.3 20.4Q336.4 21.2 338.2 22.6Q340 24 340.7 25.6Q341.4 27.2 341.4 28.9Q341.4 30.6 340.5 32.1Q339.6 33.7 337.7 34.6Q335.9 35.5 333.9 35.4Q331.9 35.3 330.3 35.3Q326.9 35.3 325 36.5Q323.1 37.7 322.3 40.2Q323.3 40.1 324.6 40.1Q325.9 40.1 327.3 40.1Q330 40.1 332.4 40.2Q334.9 40.3 335.9 40.5Q338.1 40.9 339.3 42.3Q340.5 43.6 340.5 45.3Q340.5 47 339.4 48.3Q338.3 49.6 335.8 50.1Q334.9 50.3 332.3 50.4Q329.7 50.5 326.9 50.5Q325.8 50.5 324.7 50.5Q323.7 50.4 322.8 50.4Q323.7 52.5 325.6 53.6Q327.5 54.8 330.4 54.8Q331.5 54.8 333.6 54.5Q335.7 54.3 337.7 54.9Q340.8 55.9 340.8 59Q340.8 60.7 339.7 62.2Q338.5 63.7 335.6 64.5Q332.7 65.4 327.4 65.4Z" fill="currentColor" fill-rule="evenodd"/><path d="M367 65.4Q364.4 65.4 361.3 65Q358.3 64.6 355.3 63.3Q352.4 62.1 349.9 59.7Q347.5 57.2 346.1 53.2Q344.6 49.2 344.6 43.2Q344.6 36.7 346.9 31.3Q349.1 25.9 353.6 22.7Q358.1 19.5 364.9 19.5Q369.9 19.5 373 20.4Q376.1 21.2 377.9 22.6Q379.6 24 380.3 25.6Q381 27.2 381 28.9Q381 30.6 380.1 32.1Q379.2 33.7 377.3 34.6Q375.5 35.5 373.5 35.4Q371.6 35.3 370 35.3Q366.6 35.3 364.7 36.5Q362.7 37.7 361.9 40.2Q363 40.1 364.3 40.1Q365.5 40.1 366.9 40.1Q369.6 40.1 372.1 40.2Q374.5 40.3 375.5 40.5Q377.8 40.9 379 42.3Q380.1 43.6 380.1 45.3Q380.1 47 379 48.3Q377.9 49.6 375.4 50.1Q374.5 50.3 371.9 50.4Q369.3 50.5 366.5 50.5Q365.4 50.5 364.4 50.5Q363.3 50.4 362.5 50.4Q363.4 52.5 365.2 53.6Q367.1 54.8 370.1 54.8Q371.2 54.8 373.3 54.5Q375.4 54.3 377.3 54.9Q380.5 55.9 380.5 59Q380.5 60.7 379.3 62.2Q378.2 63.7 375.3 64.5Q372.4 65.4 367 65.4Z" fill="currentColor" fill-rule="evenodd"/></svg>
