<svg xmlns="http://www.w3.org/2000/svg" viewBox="0 0 402 85"><path d="M48.1 53.3L58.9 53.3L58.9 64.1L53.5 64.1L53.5 69.6L26.4 69.6L26.4 64.1L21 64.1L21 20.9L26.4 20.9L26.4 15.4L53.5 15.4L53.5 20.9L58.9 20.9L58.9 31.7L48.1 31.7L48.1 26.3L37.2 26.3L37.2 31.7L31.8 31.7L31.8 53.3L37.2 53.3L37.2 58.7L48.1 58.7Z" fill="currentColor" fill-rule="evenodd"/><path d="M75.1 37.1L91.3 37.1L91.3 15.4L102.2 15.4L102.2 69.6L91.3 69.6L91.3 47.9L75.1 47.9L75.1 69.6L64.3 69.6L64.3 15.4L75.1 15.4Z" fill="currentColor" fill-rule="evenodd"/><path d="M107.6 31.7L113 31.7L113 26.3L118.4 26.3L118.4 20.9L123.8 20.9L123.8 15.4L129.2 15.4L129.2 20.9L134.6 20.9L134.6 26.3L140 26.3L140 31.7L145.4 31.7L145.4 69.6L134.6 69.6L134.6 58.7L118.4 58.7L118.4 69.6L107.6 69.6ZM118.4 47.9L134.6 47.9L134.6 37.1L129.2 37.1L129.2 31.7L123.8 31.7L123.8 37.1L118.4 37.1Z" fill="currentColor" fill-rule="evenodd"/><path d="M150.9 53.3L161.7 53.3L161.7 58.7L177.9 58.7L177.9 47.9L156.3 47.9L156.3 42.5L150.9 42.5L150.9 20.9L156.3 20.9L156.3 15.4L183.3 15.4L183.3 20.9L188.7 20.9L188.7 31.7L177.9 31.7L177.9 26.3L161.7 26.3L161.7 37.1L183.3 37.1L183.3 42.5L188.7 42.5L188.7 64.1L183.3 64.1L183.3 69.6L156.3 69.6L156.3 64.1L150.9 64.1Z" fill="currentColor" fill-rule="evenodd"/><path d="M205 58.7L226.6 58.7L226.6 69.6L194.1 69.6L194.1 15.4L226.6 15.4L226.6 26.3L205 26.3L205 37.1L221.2 37.1L221.2 47.9L205 47.9Z" fill="currentColor" fill-rule="evenodd"/><path d="M294.4 53.3L305.2 53.3L305.2 64.1L299.8 64.1L299.8 69.6L272.8 69.6L272.8 64.1L267.4 64.1L267.4 20.9L272.8 20.9L272.8 15.4L299.8 15.4L299.8 20.9L305.2 20.9L305.2 31.7L294.4 31.7L294.4 26.3L283.6 26.3L283.6 31.7L278.2 31.7L278.2 53.3L283.6 53.3L283.6 58.7L294.4 58.7Z" fill="currentColor" fill-rule="evenodd"/><path d="M321.5 58.7L343.1 58.7L343.1 69.6L310.7 69.6L310.7 15.4L343.1 15.4L343.1 26.3L321.5 26.3L321.5 37.1L337.7 37.1L337.7 47.9L321.5 47.9Z" fill="currentColor" fill-rule="evenodd"/><path d="M359.4 58.7L381 58.7L381 69.6L348.5 69.6L348.5 15.4L381 15.4L381 26.3L359.4 26.3L359.4 37.1L375.6 37.1L375.6 47.9L359.4 47.9Z" fill="currentColor" fill-rule="evenodd"/></svg>
