<svg xmlns="http://www.w3.org/2000/svg" viewBox="0 0 402 85"><path d="M42.05446927374302 65.4399441340782Q35.70670391061452 65.4399441340782 30.96159217877095 62.580307262569825Q26.216480446927374 59.72067039106145 23.60824022346369 54.567039106145245Q21 49.41340782122904 21 42.49999999999999Q21 37.40921787709497 22.445530726256983 33.19832402234636Q23.891061452513966 28.987430167597758 26.53072625698324 25.970670391061446Q29.170391061452513 22.953910614525135 32.84706703910614 21.31983240223463Q36.52374301675978 19.685754189944127 40.986033519553075 19.685754189944127Q44.25418994413408 19.685754189944127 46.89385474860335 20.659916201117312Q49.53351955307262 21.634078212290497 51.418994413407816 23.51955307262569L52.04748603351956 19.560055865921782L55.12709497206704 19.560055865921782L57.57821229050279 34.20391061452513L54.184357541899445 34.95810055865921Q52.92737430167598 30.935754189944127 51.136173184357546 28.453212290502783Q49.34497206703911 25.970670391061446 46.89385474860335 24.80796089385474Q44.4427374301676 23.645251396648035 41.11173184357542 23.645251396648035Q36.77513966480447 23.645251396648035 33.78980446927375 25.782122905027926Q30.804469273743017 27.918994413407816 29.264664804469273 32.09846368715083Q27.72486033519553 36.27793296089385 27.72486033519553 42.437150837988824Q27.72486033519553 46.58519553072625 28.793296089385475 50.010474860335194Q29.86173184357542 53.43575418994413 31.841480446927374 55.91829608938547Q33.82122905027933 58.40083798882681 36.58659217877095 59.752094972067034Q39.35195530726257 61.10335195530726 42.68296089385475 61.10335195530726Q45.44832402234637 61.10335195530726 47.67946927374302 60.380586592178766Q49.910614525139664 59.65782122905027 51.82751396648045 58.08659217877094Q53.74441340782123 56.515363128491614 55.44134078212291 54.06424581005586L58.39525139664805 56.20111731843575Q57.13826815642459 58.33798882681564 55.37849162011173 60.03491620111731Q53.61871508379889 61.73184357541899 51.48184357541899 62.95740223463687Q49.34497206703911 64.18296089385474 46.95670391061452 64.81145251396647Q44.56843575418995 65.4399441340782 42.05446927374302 65.4399441340782Z" fill="currentColor" fill-rule="evenodd"/><path d="M65.68575418994413 64.56005586592178L65.68575418994413 61.54329608938547L69.33100558659218 60.97765363128491Q70.52513966480447 60.78910614525139 70.90223463687151 60.16061452513966Q71.27932960893855 59.532122905027926 71.27932960893855 57.77234636871508L71.27932960893855 27.101955307262564Q71.27932960893855 25.530726256983236 70.87081005586592 24.933659217877086Q70.4622905027933 24.336592178770942 69.20530726256983 24.14804469273742L65.68575418994413 23.582402234636866L65.68575418994413 20.565642458100548L83.03212290502793 20.565642458100548L83.03212290502793 23.582402234636866L79.38687150837988 24.14804469273742Q78.25558659217877 24.336592178770942 77.87849162011173 24.965083798882674Q77.50139664804469 25.593575418994405 77.50139664804469 27.353351955307254L77.50139664804469 39.98603351955306L98.87011173184358 39.98603351955306L98.87011173184358 27.101955307262564Q98.87011173184358 25.530726256983236 98.46159217877096 24.933659217877086Q98.05307262569832 24.336592178770942 96.79608938547486 24.14804469273742L93.33938547486034 23.582402234636866L93.33938547486034 20.565642458100548L110.62290502793296 20.565642458100548L110.62290502793296 23.582402234636866L107.0405027932961 24.14804469273742Q105.8463687150838 24.336592178770942 105.46927374301677 24.965083798882674Q105.09217877094972 25.593575418994405 105.09217877094972 27.353351955307254L105.09217877094972 58.023743016759774Q105.09217877094972 59.5949720670391 105.50069832402235 60.192039106145245Q105.90921787709497 60.78910614525139 107.16620111731844 60.97765363128491L110.62290502793296 61.54329608938547L110.62290502793296 64.56005586592178L93.33938547486034 64.56005586592178L93.33938547486034 61.54329608938547L96.92178770949721 60.97765363128491Q98.1159217877095 60.78910614525139 98.49301675977654 60.16061452513966Q98.87011173184358 59.532122905027926 98.87011173184358 57.77234636871508L98.87011173184358 43.945530726256976L77.50139664804469 43.945530726256976L77.50139664804469 58.023743016759774Q77.50139664804469 59.5949720670391 77.90991620111731 60.192039106145245Q78.31843575418995 60.78910614525139 79.51256983240224 60.97765363128491L83.03212290502793 61.54329608938547L83.03212290502793 64.56005586592178Z" fill="currentColor" fill-rule="evenodd"/><path d="M115.46229050279331 64.56005586592178L115.46229050279331 61.54329608938547L118.47905027932963 61.040502793296085Q119.61033519553074 60.78910614525139 120.14455307262571 60.192039106145245Q120.67877094972069 59.5949720670391 121.3701117318436 57.64664804469273L134.63128491620114 20.565642458100548L141.29329608938548 20.565642458100548L154.42877094972067 57.70949720670391Q155.0572625698324 59.280726256983236 155.46578212290504 59.90921787709497Q155.87430167597768 60.5377094972067 157.1941340782123 60.851955307262564L159.77094972067042 61.417597765363126L159.77094972067042 64.56005586592178L142.99022346368716 64.56005586592178L142.99022346368716 61.54329608938547L146.6354748603352 61.10335195530726Q147.89245810055868 60.91480446927374 148.17527932960894 60.22346368715083Q148.45810055865923 59.532122905027926 147.89245810055868 57.9608938547486L145.12709497206706 50.041899441340775L128.28351955307264 50.041899441340775L125.64385474860336 57.70949720670391Q125.20391061452516 58.96648044692737 125.3296089385475 59.87779329608938Q125.45530726256985 60.78910614525139 127.08938547486035 61.040502793296085L130.6717877094972 61.60614525139664L130.6717877094972 64.56005586592178ZM129.5405027932961 46.4594972067039L143.93296089385476 46.4594972067039L136.95670391061455 25.782122905027926L136.70530726256985 25.782122905027926Z" fill="currentColor" fill-rule="evenodd"/><path d="M180.57402234636874 65.4399441340782Q177.36871508379892 65.4399441340782 174.320530726257 64.30865921787709Q171.27234636871512 63.177374301675975 169.26117318435757 61.229050279329606L168.2555865921788 64.93715083798882L165.4902234636872 64.93715083798882L164.23324022346372 51.36173184357541L167.81564245810057 51.04748603351955Q168.75837988826817 53.62430167597765 170.01536312849166 55.57262569832402Q171.27234636871512 57.52094972067039 172.87500000000003 58.80935754189944Q174.47765363128494 60.09776536312849 176.36312849162013 60.75768156424581Q178.24860335195532 61.417597765363126 180.38547486033522 61.417597765363126Q183.0251396648045 61.417597765363126 184.84776536312853 60.56913407821229Q186.67039106145253 59.72067039106145 187.61312849162013 58.08659217877094Q188.55586592178773 56.45251396648044 188.55586592178773 54.1899441340782Q188.55586592178773 51.8645251396648 187.61312849162013 50.19902234636871Q186.67039106145253 48.53351955307262 184.50209497206706 47.245111731843565Q182.33379888268158 45.95670391061452 178.68854748603354 44.8254189944134Q175.10614525139667 43.69413407821229 172.6550279329609 42.437150837988824Q170.20391061452517 41.18016759776536 168.695530726257 39.671787709497195Q167.18715083798884 38.16340782122904 166.49581005586595 36.215083798882674Q165.80446927374305 34.266759776536304 165.80446927374305 31.815642458100555Q165.80446927374305 29.61592178770949 166.43296089385478 27.761871508379883Q167.06145251396651 25.90782122905027 168.2241620111732 24.4308659217877Q169.3868715083799 22.953910614525135 171.052374301676 21.885474860335187Q172.7178770949721 20.817039106145245 174.7918994413408 20.251396648044683Q176.8659217877095 19.685754189944127 179.2541899441341 19.685754189944127Q181.8310055865922 19.685754189944127 184.31354748603354 20.565642458100548Q186.7960893854749 21.445530726256976 188.55586592178773 22.953910614525135L189.37290502793297 19.685754189944127L192.32681564245812 19.685754189944127L193.70949720670393 32.38128491620111L190.18994413407825 32.8840782122905Q189.24720670391065 29.55307262569832 187.73882681564248 27.41620111731843Q186.23044692737432 25.27932960893854 184.1878491620112 24.210893854748598Q182.14525139664806 23.14245810055865 179.44273743016763 23.14245810055865Q176.04888268156427 23.14245810055865 173.97486033519556 25.02793296089385Q171.90083798882685 26.913407821229043 171.90083798882685 30.0558659217877Q171.90083798882685 32.12988826815642 172.81215083798884 33.63826815642457Q173.72346368715085 35.14664804469273 175.86033519553075 36.37220670391061Q177.99720670391065 37.59776536312849 181.64245810055868 38.85474860335195Q185.22486033519556 40.04888268156424 187.73882681564248 41.368715083798875Q190.2527932960894 42.688547486033514 191.76117318435757 44.22835195530726Q193.26955307262574 45.768156424581 193.96089385474863 47.653631284916194Q194.65223463687153 49.53910614525139 194.65223463687153 51.990223463687144Q194.65223463687153 54.94413407821229 193.6152234636872 57.395251396648035Q192.57821229050282 59.84636871508379 190.69273743016763 61.668994413407816Q188.80726256983243 63.49162011173184 186.23044692737432 64.46578212290503Q183.65363128491623 65.4399441340782 180.57402234636874 65.4399441340782Z" fill="currentColor" fill-rule="evenodd"/><path d="M202.1941340782123 64.56005586592178L202.1941340782123 61.54329608938547L205.83938547486034 60.97765363128491Q207.03351955307264 60.78910614525139 207.41061452513966 60.16061452513966Q207.78770949720672 59.532122905027926 207.78770949720672 57.77234636871508L207.78770949720672 27.101955307262564Q207.78770949720672 25.46787709497206 207.37918994413408 24.902234636871498Q206.97067039106145 24.336592178770942 205.71368715083798 24.14804469273742L202.1941340782123 23.582402234636866L202.1941340782123 20.565642458100548L231.29329608938548 20.565642458100548L233.6187150837989 30.810055865921782L230.35055865921788 31.878491620111724Q229.40782122905028 29.3645251396648 228.52793296089385 27.824720670391052Q227.64804469273744 26.284916201117312 226.5796089385475 25.436452513966472Q225.51117318435755 24.587988826815632 223.93994413407822 24.273743016759767Q222.3687150837989 23.9594972067039 220.10614525139667 23.9594972067039L214.00977653631287 23.9594972067039L214.00977653631287 40.23743016759776L219.47765363128494 40.23743016759776Q221.74022346368716 40.23743016759776 222.77723463687153 39.95460893854748Q223.81424581005587 39.671787709497195 224.28561452513966 38.60335195530726Q224.75698324022346 37.53491620111731 225.32262569832403 35.083798882681556L228.21368715083798 34.70670391061452L228.21368715083798 48.97346368715083L225.32262569832403 49.47625698324022Q224.945530726257 47.02513966480446 224.4741620111732 45.893854748603346Q224.0027932960894 44.76256983240223 222.87150837988827 44.44832402234636Q221.74022346368716 44.1340782122905 219.47765363128494 44.1340782122905L214.00977653631287 44.1340782122905L214.00977653631287 61.16620111731843L222.1173184357542 61.16620111731843Q224.37988826815644 61.16620111731843 225.8882681564246 60.820530726256976Q227.39664804469274 60.47486033519552 228.4336592178771 59.62639664804469Q229.47067039106145 58.77793296089385 230.19343575418995 57.143854748603346Q230.91620111731845 55.50977653631284 231.54469273743018 52.99581005586592L235.0013966480447 52.99581005586592L233.49301675977654 64.56005586592178Z" fill="currentColor" fill-rule="evenodd"/><path d="M284.52653631284915 65.4399441340782Q278.1787709497207 65.4399441340782 273.4336592178771 62.580307262569825Q268.68854748603354 59.72067039106145 266.0803072625698 54.567039106145245Q263.47206703910615 49.41340782122904 263.47206703910615 42.49999999999999Q263.47206703910615 37.40921787709497 264.91759776536315 33.19832402234636Q266.3631284916201 28.987430167597758 269.0027932960894 25.970670391061446Q271.64245810055866 22.953910614525135 275.3191340782123 21.31983240223463Q278.99581005586595 19.685754189944127 283.4581005586592 19.685754189944127Q286.7262569832402 19.685754189944127 289.3659217877095 20.659916201117312Q292.00558659217876 21.634078212290497 293.89106145251395 23.51955307262569L294.51955307262574 19.560055865921782L297.5991620111732 19.560055865921782L300.05027932960894 34.20391061452513L296.6564245810056 34.95810055865921Q295.3994413407821 30.935754189944127 293.60824022346367 28.453212290502783Q291.8170391061453 25.970670391061446 289.3659217877095 24.80796089385474Q286.91480446927375 23.645251396648035 283.58379888268155 23.645251396648035Q279.24720670391065 23.645251396648035 276.2618715083799 25.782122905027926Q273.27653631284915 27.918994413407816 271.7367318435754 32.09846368715083Q270.1969273743017 36.27793296089385 270.1969273743017 42.437150837988824Q270.1969273743017 46.58519553072625 271.26536312849163 50.010474860335194Q272.33379888268155 53.43575418994413 274.31354748603354 55.91829608938547Q276.2932960893855 58.40083798882681 279.0586592178771 59.752094972067034Q281.82402234636874 61.10335195530726 285.1550279329609 61.10335195530726Q287.9203910614525 61.10335195530726 290.15153631284915 60.380586592178766Q292.38268156424584 59.65782122905027 294.2995810055866 58.08659217877094Q296.2164804469274 56.515363128491614 297.91340782122904 54.06424581005586L300.8673184357542 56.20111731843575Q299.61033519553075 58.33798882681564 297.8505586592179 60.03491620111731Q296.090782122905 61.73184357541899 293.95391061452517 62.95740223463687Q291.8170391061453 64.18296089385474 289.4287709497207 64.81145251396647Q287.0405027932961 65.4399441340782 284.52653631284915 65.4399441340782Z" fill="currentColor" fill-rule="evenodd"/><path d="M308.1578212290503 64.56005586592178L308.1578212290503 61.54329608938547L311.80307262569835 60.97765363128491Q312.99720670391065 60.78910614525139 313.3743016759777 60.16061452513966Q313.7513966480447 59.532122905027926 313.7513966480447 57.77234636871508L313.7513966480447 27.101955307262564Q313.7513966480447 25.46787709497206 313.3428770949721 24.902234636871498Q312.9343575418995 24.336592178770942 311.677374301676 24.14804469273742L308.1578212290503 23.582402234636866L308.1578212290503 20.565642458100548L337.2569832402235 20.565642458100548L339.5824022346369 30.810055865921782L336.3142458100559 31.878491620111724Q335.3715083798883 29.3645251396648 334.4916201117319 27.824720670391052Q333.61173184357546 26.284916201117312 332.54329608938554 25.436452513966472Q331.47486033519556 24.587988826815632 329.90363128491623 24.273743016759767Q328.3324022346369 23.9594972067039 326.0698324022347 23.9594972067039L319.97346368715085 23.9594972067039L319.97346368715085 40.23743016759776L325.44134078212295 40.23743016759776Q327.70391061452517 40.23743016759776 328.7409217877095 39.95460893854748Q329.7779329608939 39.671787709497195 330.2493016759777 38.60335195530726Q330.7206703910615 37.53491620111731 331.2863128491621 35.083798882681556L334.177374301676 34.70670391061452L334.177374301676 48.97346368715083L331.2863128491621 49.47625698324022Q330.909217877095 47.02513966480446 330.4378491620112 45.893854748603346Q329.9664804469274 44.76256983240223 328.8351955307263 44.44832402234636Q327.70391061452517 44.1340782122905 325.44134078212295 44.1340782122905L319.97346368715085 44.1340782122905L319.97346368715085 61.16620111731843L328.0810055865922 61.16620111731843Q330.3435754189944 61.16620111731843 331.8519553072626 60.820530726256976Q333.36033519553075 60.47486033519552 334.3973463687151 59.62639664804469Q335.4343575418995 58.77793296089385 336.15712290502796 57.143854748603346Q336.87988826815644 55.50977653631284 337.50837988826817 52.99581005586592L340.9650837988827 52.99581005586592L339.4567039106146 64.56005586592178Z" fill="currentColor" fill-rule="evenodd"/><path d="M348.1927374301676 64.56005586592178L348.1927374301676 61.54329608938547L351.83798882681566 60.97765363128491Q353.03212290502796 60.78910614525139 353.409217877095 60.16061452513966Q353.786312849162 59.532122905027926 353.786312849162 57.77234636871508L353.786312849162 27.101955307262564Q353.786312849162 25.46787709497206 353.3777932960894 24.902234636871498Q352.9692737430168 24.336592178770942 351.71229050279334 24.14804469273742L348.1927374301676 23.582402234636866L348.1927374301676 20.565642458100548L377.29189944134083 20.565642458100548L379.6173184357542 30.810055865921782L376.34916201117323 31.878491620111724Q375.40642458100564 29.3645251396648 374.5265363128492 27.824720670391052Q373.64664804469277 26.284916201117312 372.57821229050285 25.436452513966472Q371.50977653631287 24.587988826815632 369.93854748603354 24.273743016759767Q368.3673184357542 23.9594972067039 366.104748603352 23.9594972067039L360.00837988826817 23.9594972067039L360.00837988826817 40.23743016759776L365.47625698324026 40.23743016759776Q367.7388268156425 40.23743016759776 368.7758379888268 39.95460893854748Q369.8128491620112 39.671787709497195 370.284217877095 38.60335195530726Q370.7555865921788 37.53491620111731 371.3212290502794 35.083798882681556L374.21229050279334 34.70670391061452L374.21229050279334 48.97346368715083L371.3212290502794 49.47625698324022Q370.9441340782123 47.02513966480446 370.47276536312853 45.893854748603346Q370.0013966480447 44.76256983240223 368.8701117318436 44.44832402234636Q367.7388268156425 44.1340782122905 365.47625698324026 44.1340782122905L360.00837988826817 44.1340782122905L360.00837988826817 61.16620111731843L368.1159217877095 61.16620111731843Q370.37849162011173 61.16620111731843 371.8868715083799 60.820530726256976Q373.39525139664806 60.47486033519552 374.4322625698324 59.62639664804469Q375.4692737430168 58.77793296089385 376.1920391061453 57.143854748603346Q376.91480446927375 55.50977653631284 377.5432960893855 52.99581005586592L381 52.99581005586592L379.4916201117319 64.56005586592178Z" fill="currentColor" fill-rule="evenodd"/></svg>
