<svg xmlns="http://www.w3.org/2000/svg" viewBox="0 0 402 85"><path d="M48.427174577306985 25.85302505601956Q46.22713383581178 24.8996740680383 41.827052352821354 24.8996740680383Q37.426970869830924 24.8996740680383 34.7135872886535 28.713078019963334Q32.00020370747607 32.52648197188837 32.00020370747607 42.05999185170096Q32.00020370747607 51.59350173151355 34.603585251578735 55.59024241189652Q37.2069667956814 59.58698309227949 42.340395192503564 59.58698309227949Q50.18720717050316 59.58698309227949 56.420655938072926 57.24027296801793L59.060704827867184 63.7670605011204Q51.28722754125077 68.38714605826034 40.80036667345692 68.38714605826034Q30.31350580566307 68.38714605826034 25.656752902831535 62.44703605622327Q21 56.506926054186195 21 43.013342839682224Q21 29.519759625178246 26.756773273579142 23.066306783458955Q32.513546547158285 16.612853941739665 42.927072723568955 16.612853941739665Q51.28722754125077 16.612853941739665 58.84070075371767 21.23293949887961Q58.84070075371767 21.672947647178653 58.84070075371767 22.919637400692608Q58.84070075371767 24.166327154206563 58.327357914035446 27.173049500916683Q57.814015074353236 30.17977184762681 56.86066408637197 32.08647382358933L49.89386840497046 32.08647382358933Q48.86718272560603 30.106437156243636 48.427174577306985 25.85302505601956Z" fill="currentColor" fill-rule="evenodd"/><path d="M93.67467916072519 44.62670605011204L77.54104705642696 44.62670605011204L77.54104705642696 59.293644326746794Q80.47443471175391 60.466999388877575 81.57445508250152 61.71368914239153L80.84110816866979 67.80046852719495L63.68079038500713 67.80046852719495L62.94744347117539 61.71368914239153Q63.90079445915665 60.466999388877575 66.98085149724994 59.293644326746794L66.98085149724994 25.779690364636387Q63.974129150539824 24.67966999388878 62.94744347117539 23.286310857608477L63.68079038500713 17.199531472805056L80.84110816866979 17.199531472805056L81.57445508250152 23.286310857608477Q80.40110002037075 24.67966999388878 77.54104705642696 25.779690364636387L77.54104705642696 37.293236911794665L93.67467916072519 37.293236911794665L93.67467916072519 25.779690364636387Q90.66795681401507 24.67966999388878 89.64127113465064 23.286310857608477L90.37461804848238 17.199531472805056L107.53493583214504 17.199531472805056L108.26828274597678 23.286310857608477Q107.094927683846 24.67966999388878 104.23487471990222 25.779690364636387L104.23487471990222 59.293644326746794Q107.16826237522918 60.466999388877575 108.26828274597678 61.71368914239153L107.53493583214504 67.80046852719495L90.37461804848238 67.80046852719495L89.64127113465064 61.71368914239153Q90.5946221226319 60.466999388877575 93.67467916072519 59.293644326746794Z" fill="currentColor" fill-rule="evenodd"/><path d="M139.2155225096761 16.832858015889187L153.80912609492768 59.146974943980446Q156.889183133021 60.24699531472805 158.13587288653494 61.71368914239153L157.4025259727032 67.80046852719495L140.24220818904053 67.80046852719495L139.5088612752088 61.71368914239153Q140.3888775718069 60.54033408026075 143.02892646160115 59.513648400896315L141.04888979425544 53.35353432470972L126.3819515176207 53.35353432470972L124.54858423304135 59.293644326746794Q127.11529843145243 60.32033000611123 128.36198818496638 61.71368914239153L127.62864127113465 67.80046852719495L110.90833163577103 67.80046852719495L110.1749847219393 61.71368914239153Q111.49500916683643 60.02699124057853 115.08840904461194 58.926970869830924L129.1686697901813 16.832858015889187ZM133.1287431248727 27.09971480953351Q133.1287431248727 31.573130983907113 131.29537584029333 37.513240985944186L128.43532287634957 46.606742717457735L138.9221837441434 46.606742717457735L136.13546547158282 37.659910368710534Q134.4487675697698 32.52648197188837 134.22876349562029 28.346404563047464L134.15542880423712 27.09971480953351Z" fill="currentColor" fill-rule="evenodd"/><path d="M182.84966388266452 25.193012833570997Q180.35628437563662 24.533000611122432 177.6429007944592 24.533000611122432Q174.92951721328174 24.533000611122432 173.27948665716033 25.889692401711144Q171.62945610103893 27.246384192299857 171.62945610103893 29.703096353636184Q171.62945610103893 32.159808514972504 172.87614585455287 33.55316765125281Q174.12283560806685 34.9465267875331 177.78957017722553 35.973212466897536L184.316357710328 37.879914442860056Q189.5964554899165 39.419942961906706 192.7131798737014 42.68333672845794Q195.82990425748628 45.94673049500917 195.82990425748628 52.25351395396211Q195.82990425748628 59.73365247504584 190.439804440823 64.06039926665309Q185.04970462415974 68.38714605826034 177.0562232633938 68.38714605826034Q172.65614178040337 68.38714605826034 167.99938887757185 67.25045834182114Q163.3426359747403 66.11377062538196 160.262578936647 64.06039926665309Q160.262578936647 63.62039111835405 160.262578936647 62.373701364840095Q160.262578936647 61.12701161132614 160.77592177632923 58.12028926461601Q161.28926461601142 55.11356691790589 162.2426156039927 53.20686494194337L169.2094112853942 53.20686494194337Q170.38276634752498 55.48024037482176 170.6027704216745 59.293644326746794Q173.1694846200856 60.3936646974944 176.57954776940318 60.3936646974944Q179.98961091872076 60.3936646974944 182.18965166021596 58.78030148706458Q184.38969240171116 57.16693827663475 184.38969240171116 54.16021592992463Q184.38969240171116 52.76685679364433 184.16968832756166 51.85017315135465Q183.94968425341213 50.933489509064984 182.81299653697295 49.87013648400897Q181.67630882053373 48.80678345895295 179.5496027704217 48.14677123650438L171.99612955795482 45.94673049500917Q160.48258301079653 42.64666938276635 160.48258301079653 31.279792218374418Q160.48258301079653 24.606335302505606 165.322672642086 20.609594622122636Q170.16276227337545 16.612853941739665 177.97290690568346 16.612853941739665Q185.78305153799147 16.612853941739665 193.26319005907519 20.132919128132002Q193.26319005907519 20.572927276431045 193.26319005907519 21.819617029945Q193.26319005907519 23.066306783458955 192.74984721939296 26.073029130169083Q192.23650437971077 29.079751476879203 191.2831533917295 30.986453452841722L184.316357710328 30.986453452841722Q183.06966795681404 29.22642085964555 182.84966388266452 25.193012833570997Z" fill="currentColor" fill-rule="evenodd"/><path d="M234.47728661641884 67.80046852719495L200.4499898146262 67.80046852719495L199.71664290079448 61.71368914239153Q200.66999388877574 60.466999388877575 203.75005092686905 59.293644326746794L203.75005092686905 25.779690364636387Q200.7433285801589 24.67966999388878 199.71664290079448 23.286310857608477L200.4499898146262 17.199531472805056L233.89060908535345 17.199531472805056L233.89060908535345 29.95976777347729L228.4638419229986 30.619779995925853Q226.7771440211856 29.153086168262377 225.75045834182117 25.193012833570997L214.31024648604605 25.193012833570997L214.31024648604605 37.80657975147688L224.50376858830722 37.80657975147688Q225.3837848849053 35.60653900998167 226.33713587288656 34.72652271338358L230.9572214300265 35.2398655530658L230.9572214300265 48.293440619270726L226.33713587288656 48.880118150336116Q225.3837848849053 48.14677123650438 224.50376858830722 45.80006111224282L214.31024648604605 45.80006111224282L214.31024648604605 59.80698716642901L226.33713587288656 59.80698716642901Q227.29048686086782 55.99358321450397 229.050519454064 54.380220004074154L234.47728661641884 55.04023222652272Z" fill="currentColor" fill-rule="evenodd"/><path d="M292.1916887349766 25.85302505601956Q289.99164799348137 24.8996740680383 285.59156651049096 24.8996740680383Q281.1914850275005 24.8996740680383 278.4781014463231 28.713078019963334Q275.76471786514566 32.52648197188837 275.76471786514566 42.05999185170096Q275.76471786514566 51.59350173151355 278.3680994092483 55.59024241189652Q280.97148095335103 59.58698309227949 286.10490935017316 59.58698309227949Q293.95172132817277 59.58698309227949 300.18517009574254 57.24027296801793L302.8252189855368 63.7670605011204Q295.05174169892035 68.38714605826034 284.5648808311265 68.38714605826034Q274.0780199633327 68.38714605826034 269.4212670605011 62.44703605622327Q264.7645141576696 56.506926054186195 264.7645141576696 43.013342839682224Q264.7645141576696 29.519759625178246 270.52128743124877 23.066306783458955Q276.2780607048279 16.612853941739665 286.69158688123855 16.612853941739665Q295.05174169892035 16.612853941739665 302.6052149113873 21.23293949887961Q302.6052149113873 21.672947647178653 302.6052149113873 22.919637400692608Q302.6052149113873 24.166327154206563 302.09187207170504 27.173049500916683Q301.57852923202285 30.17977184762681 300.6251782440416 32.08647382358933L293.6583825626401 32.08647382358933Q292.63169688327565 30.106437156243636 292.1916887349766 25.85302505601956Z" fill="currentColor" fill-rule="evenodd"/><path d="M341.47260134446935 67.80046852719495L307.4453045426767 67.80046852719495L306.71195762884497 61.71368914239153Q307.6653086168262 60.466999388877575 310.7453656549195 59.293644326746794L310.7453656549195 25.779690364636387Q307.7386433082094 24.67966999388878 306.71195762884497 23.286310857608477L307.4453045426767 17.199531472805056L340.88592381340396 17.199531472805056L340.88592381340396 29.95976777347729L335.45915665104906 30.619779995925853Q333.7724587492361 29.153086168262377 332.74577306987163 25.193012833570997L321.30556121409654 25.193012833570997L321.30556121409654 37.80657975147688L331.4990833163577 37.80657975147688Q332.37909961295577 35.60653900998167 333.332450600937 34.72652271338358L337.952536158077 35.2398655530658L337.952536158077 48.293440619270726L333.332450600937 48.880118150336116Q332.37909961295577 48.14677123650438 331.4990833163577 45.80006111224282L321.30556121409654 45.80006111224282L321.30556121409654 59.80698716642901L333.332450600937 59.80698716642901Q334.2858015889183 55.99358321450397 336.0458341821145 54.380220004074154L341.47260134446935 55.04023222652272Z" fill="currentColor" fill-rule="evenodd"/><path d="M381 67.80046852719495L346.97270319820734 67.80046852719495L346.2393562843756 61.71368914239153Q347.19270727235687 60.466999388877575 350.27276431045016 59.293644326746794L350.27276431045016 25.779690364636387Q347.26604196374007 24.67966999388878 346.2393562843756 23.286310857608477L346.97270319820734 17.199531472805056L380.4133224689346 17.199531472805056L380.4133224689346 29.95976777347729L374.9865553065797 30.619779995925853Q373.2998574047667 29.153086168262377 372.2731717254023 25.193012833570997L360.8329598696272 25.193012833570997L360.8329598696272 37.80657975147688L371.02648197188836 37.80657975147688Q371.9064982684864 35.60653900998167 372.85984925646767 34.72652271338358L377.47993481360766 35.2398655530658L377.47993481360766 48.293440619270726L372.85984925646767 48.880118150336116Q371.9064982684864 48.14677123650438 371.02648197188836 45.80006111224282L360.8329598696272 45.80006111224282L360.8329598696272 59.80698716642901L372.85984925646767 59.80698716642901Q373.8132002444489 55.99358321450397 375.57323283764515 54.380220004074154L381 55.04023222652272Z" fill="currentColor" fill-rule="evenodd"/></svg>
