<svg xmlns="http://www.w3.org/2000/svg" viewBox="0 0 402 85"><path d="M65.59357557662486 65.77028394785415V59.53611024007085H60.599999999999994V25.53582261791192H65.59357557662486V19.22971605214586H82.23886402711219V25.53582261791192H87.28854723296361V40.68972340075543H80.59300713260025V28.22137598518883H67.2394324711368V56.85055687279393H80.59300713260025V44.23834374126182H87.28854723296361V59.53611024007085H82.23886402711219V65.77028394785415Z" fill="currentColor" fill-rule="evenodd"/><path d="M94.09625464824921 65.77028394785415V19.22971605214586H100.73568711938601V38.076102891461275H104.06470439993606V31.769996325695217H110.76024450029942V38.076102891461275H114.08926178084947V19.22971605214586H120.78480188121281V65.77028394785415H114.08926178084947V46.92389710853873H100.73568711938601V65.77028394785415Z" fill="currentColor" fill-rule="evenodd"/><path d="M127.59250929649843 65.77028394785415V31.769996325695217H132.5860848731233V25.534497847134766H137.56095904818528V19.22971605214586H144.25649914854864V25.53582261791192H149.21369785339593V31.769996325695217H154.28105652946203V65.77028394785415H147.58551642909867V53.23000367430479H134.23194176763522V65.77028394785415ZM134.23194176763522 44.23834374126182H147.58551642909867V34.45554969297213H142.6106422540367V28.22137598518883H139.20681594269723V34.45554969297213H134.23194176763522Z" fill="currentColor" fill-rule="evenodd"/><path d="M166.08233952137255 65.77028394785415V59.53611024007085H161.08876394474768V50.54445030702788H167.72819641588447V56.85055687279393H181.08177107734792V46.92389710853873H166.08233952137255V40.68972340075543H161.08876394474768V25.53582261791192H166.08233952137255V19.22971605214586H182.72762797185987V25.53582261791192H187.77731117771128V34.45554969297213H181.08177107734792V28.22137598518883H167.72819641588447V38.076102891461275H182.72762797185987V44.23834374126182H187.77731117771128V59.53611024007085H182.72762797185987V65.77028394785415Z" fill="currentColor" fill-rule="evenodd"/><path d="M199.57859416962174 65.77028394785415V59.53611024007085H194.58501859299687V25.53582261791192H199.57859416962174V19.22971605214586H216.22388262010907V25.53582261791192H221.27356582596047V34.45554969297213H214.57802572559712V28.22137598518883H201.22445106413366V38.076102891461275H211.24900844504708V46.92389710853873H201.22445106413366V56.85055687279393H214.57802572559712V50.54445030702788H221.27356582596047V59.53611024007085H216.22388262010907V65.77028394785415Z" fill="currentColor" fill-rule="evenodd"/><path d="M252.7125190471628 65.77028394785415V59.53611024007085H247.71894347053794V25.53582261791192H252.7125190471628V19.22971605214586H269.35780749765013V25.53582261791192H274.40749070350154V40.68972340075543H267.7119506031382V28.22137598518883H254.35837594167472V56.85055687279393H267.7119506031382V44.23834374126182H274.40749070350154V59.53611024007085H269.35780749765013V65.77028394785415Z" fill="currentColor" fill-rule="evenodd"/><path d="M286.20877369541205 65.77028394785415V59.53611024007085H281.2151981187872V25.53582261791192H286.20877369541205V19.22971605214586H302.8540621458994V25.53582261791192H307.90374535175084V34.45554969297213H301.2082052513875V28.22137598518883H287.854630589924V38.076102891461275H297.8791879708374V46.92389710853873H287.854630589924V56.85055687279393H301.2082052513875V50.54445030702788H307.90374535175084V59.53611024007085H302.8540621458994V65.77028394785415Z" fill="currentColor" fill-rule="evenodd"/><path d="M319.70502834366124 65.77028394785415V59.53611024007085H314.7114527670364V25.53582261791192H319.70502834366124V19.22971605214586H336.35031679414857V25.53582261791192H341.40000000000003V34.45554969297213H334.7044598996367V28.22137598518883H321.3508852381732V38.076102891461275H331.3754426190866V46.92389710853873H321.3508852381732V56.85055687279393H334.7044598996367V50.54445030702788H341.40000000000003V59.53611024007085H336.35031679414857V65.77028394785415Z" fill="currentColor" fill-rule="evenodd"/></svg>
