<svg xmlns="http://www.w3.org/2000/svg" viewBox="0 0 402 85"><path d="M27.39989346827352 65.76253412344364L27.39989346827352 59.5783674012917L21 59.5783674012917L21 25.56545042945603L27.39989346827352 25.56545042945603L27.39989346827352 19.23746587655637L48.684932418936015 19.23746587655637L48.684932418936015 25.56545042945603L55.156734802583394 25.56545042945603L55.156734802583394 40.73823157334044L46.59957387309407 40.73823157334044L46.59957387309407 28.226080298288842L29.485252014115453 28.226080298288842L29.485252014115453 56.845828617085026L46.59957387309407 56.845828617085026L46.59957387309407 44.26176842665957L55.156734802583394 44.26176842665957L55.156734802583394 59.5783674012917L48.684932418936015 59.5783674012917L48.684932418936015 65.76253412344364Z" fill="currentColor" fill-rule="evenodd"/><path d="M63.95359211665224 65.76253412344364L63.95359211665224 19.23746587655637L72.43884413076769 19.23746587655637L72.43884413076769 38.07760170450763L76.68147013782541 38.07760170450763L76.68147013782541 31.821526066981832L85.3105399826886 31.821526066981832L85.3105399826886 38.07760170450763L89.55316598974632 38.07760170450763L89.55316598974632 19.23746587655637L98.11032691923563 19.23746587655637L98.11032691923563 65.76253412344364L89.55316598974632 65.76253412344364L89.55316598974632 46.922398295492386L72.43884413076769 46.922398295492386L72.43884413076769 65.76253412344364Z" fill="currentColor" fill-rule="evenodd"/><path d="M106.90718423330448 65.76253412344364L106.90718423330448 31.821526066981832L113.307077701578 31.821526066981832L113.307077701578 25.56545042945603L119.63506225447766 25.56545042945603L119.63506225447766 19.23746587655637L128.26413209934083 19.23746587655637L128.26413209934083 25.56545042945603L134.5921166522405 25.56545042945603L134.5921166522405 31.821526066981832L141.06391903588786 31.821526066981832L141.06391903588786 65.76253412344364L132.50675810639856 65.76253412344364L132.50675810639856 53.250382848392036L115.39243624741994 53.250382848392036L115.39243624741994 65.76253412344364ZM115.39243624741994 44.26176842665957L132.50675810639856 44.26176842665957L132.50675810639856 34.482155935814646L126.10686463812503 34.482155935814646L126.10686463812503 28.226080298288842L121.79232971569346 28.226080298288842L121.79232971569346 34.482155935814646L115.39243624741994 34.482155935814646Z" fill="currentColor" fill-rule="evenodd"/><path d="M156.2606698182302 65.76253412344364L156.2606698182302 59.5783674012917L149.8607763499567 59.5783674012917L149.8607763499567 50.58975297955923L158.34602836407214 50.58975297955923L158.34602836407214 56.845828617085026L175.46035022305077 56.845828617085026L175.46035022305077 46.922398295492386L156.2606698182302 46.922398295492386L156.2606698182302 40.73823157334044L149.8607763499567 40.73823157334044L149.8607763499567 25.56545042945603L156.2606698182302 25.56545042945603L156.2606698182302 19.23746587655637L177.54570876889272 19.23746587655637L177.54570876889272 25.56545042945603L184.0175111525401 25.56545042945603L184.0175111525401 34.482155935814646L175.46035022305077 34.482155935814646L175.46035022305077 28.226080298288842L158.34602836407214 28.226080298288842L158.34602836407214 38.07760170450763L177.54570876889272 38.07760170450763L177.54570876889272 44.26176842665957L184.0175111525401 44.26176842665957L184.0175111525401 59.5783674012917L177.54570876889272 59.5783674012917L177.54570876889272 65.76253412344364Z" fill="currentColor" fill-rule="evenodd"/><path d="M199.21426193488247 65.76253412344364L199.21426193488247 59.5783674012917L192.81436846660895 59.5783674012917L192.81436846660895 25.56545042945603L199.21426193488247 25.56545042945603L199.21426193488247 19.23746587655637L220.49930088554498 19.23746587655637L220.49930088554498 25.56545042945603L226.97110326919235 25.56545042945603L226.97110326919235 34.482155935814646L218.41394233970303 34.482155935814646L218.41394233970303 28.226080298288842L201.2996204807244 28.226080298288842L201.2996204807244 38.07760170450763L214.17131633264532 38.07760170450763L214.17131633264532 46.922398295492386L201.2996204807244 46.922398295492386L201.2996204807244 56.845828617085026L218.41394233970303 56.845828617085026L218.41394233970303 50.58975297955923L226.97110326919235 50.58975297955923L226.97110326919235 59.5783674012917L220.49930088554498 59.5783674012917L220.49930088554498 65.76253412344364Z" fill="currentColor" fill-rule="evenodd"/><path d="M267.3359744323856 65.76253412344364L267.3359744323856 59.5783674012917L260.93608096411214 59.5783674012917L260.93608096411214 25.56545042945603L267.3359744323856 25.56545042945603L267.3359744323856 19.23746587655637L288.62101338304814 19.23746587655637L288.62101338304814 25.56545042945603L295.0928157666955 25.56545042945603L295.0928157666955 40.73823157334044L286.5356548372062 40.73823157334044L286.5356548372062 28.226080298288842L269.42133297822755 28.226080298288842L269.42133297822755 56.845828617085026L286.5356548372062 56.845828617085026L286.5356548372062 44.26176842665957L295.0928157666955 44.26176842665957L295.0928157666955 59.5783674012917L288.62101338304814 59.5783674012917L288.62101338304814 65.76253412344364Z" fill="currentColor" fill-rule="evenodd"/><path d="M310.2895665490379 65.76253412344364L310.2895665490379 59.5783674012917L303.8896730807644 59.5783674012917L303.8896730807644 25.56545042945603L310.2895665490379 25.56545042945603L310.2895665490379 19.23746587655637L331.5746054997004 19.23746587655637L331.5746054997004 25.56545042945603L338.04640788334774 25.56545042945603L338.04640788334774 34.482155935814646L329.48924695385847 34.482155935814646L329.48924695385847 28.226080298288842L312.3749250948798 28.226080298288842L312.3749250948798 38.07760170450763L325.2466209468007 38.07760170450763L325.2466209468007 46.922398295492386L312.3749250948798 46.922398295492386L312.3749250948798 56.845828617085026L329.48924695385847 56.845828617085026L329.48924695385847 50.58975297955923L338.04640788334774 50.58975297955923L338.04640788334774 59.5783674012917L331.5746054997004 59.5783674012917L331.5746054997004 65.76253412344364Z" fill="currentColor" fill-rule="evenodd"/><path d="M353.2431586656901 65.76253412344364L353.2431586656901 59.5783674012917L346.8432651974166 59.5783674012917L346.8432651974166 25.56545042945603L353.2431586656901 25.56545042945603L353.2431586656901 19.23746587655637L374.5281976163526 19.23746587655637L374.5281976163526 25.56545042945603L380.99999999999994 25.56545042945603L380.99999999999994 34.482155935814646L372.4428390705107 34.482155935814646L372.4428390705107 28.226080298288842L355.328517211532 28.226080298288842L355.328517211532 38.07760170450763L368.2002130634529 38.07760170450763L368.2002130634529 46.922398295492386L355.328517211532 46.922398295492386L355.328517211532 56.845828617085026L372.4428390705107 56.845828617085026L372.4428390705107 50.58975297955923L380.99999999999994 50.58975297955923L380.99999999999994 59.5783674012917L374.5281976163526 59.5783674012917L374.5281976163526 65.76253412344364Z" fill="currentColor" fill-rule="evenodd"/></svg>
