<svg xmlns="http://www.w3.org/2000/svg" viewBox="0 0 402 85"><path d="M27.4 65.8L27.4 59.6L21 59.6L21 25.6L27.4 25.6L27.4 19.2L48.7 19.2L48.7 25.6L55.2 25.6L55.2 40.7L46.6 40.7L46.6 28.2L29.5 28.2L29.5 56.8L46.6 56.8L46.6 44.3L55.2 44.3L55.2 59.6L48.7 59.6L48.7 65.8Z" fill="currentColor" fill-rule="evenodd"/><path d="M64 65.8L64 19.2L72.4 19.2L72.4 38.1L76.7 38.1L76.7 31.8L85.3 31.8L85.3 38.1L89.6 38.1L89.6 19.2L98.1 19.2L98.1 65.8L89.6 65.8L89.6 46.9L72.4 46.9L72.4 65.8Z" fill="currentColor" fill-rule="evenodd"/><path d="M106.9 65.8L106.9 31.8L113.3 31.8L113.3 25.6L119.6 25.6L119.6 19.2L128.3 19.2L128.3 25.6L134.6 25.6L134.6 31.8L141.1 31.8L141.1 65.8L132.5 65.8L132.5 53.3L115.4 53.3L115.4 65.8ZM115.4 44.3L132.5 44.3L132.5 34.5L126.1 34.5L126.1 28.2L121.8 28.2L121.8 34.5L115.4 34.5Z" fill="currentColor" fill-rule="evenodd"/><path d="M156.3 65.8L156.3 59.6L149.9 59.6L149.9 50.6L158.3 50.6L158.3 56.8L175.5 56.8L175.5 46.9L156.3 46.9L156.3 40.7L149.9 40.7L149.9 25.6L156.3 25.6L156.3 19.2L177.5 19.2L177.5 25.6L184 25.6L184 34.5L175.5 34.5L175.5 28.2L158.3 28.2L158.3 38.1L177.5 38.1L177.5 44.3L184 44.3L184 59.6L177.5 59.6L177.5 65.8Z" fill="currentColor" fill-rule="evenodd"/><path d="M199.2 65.8L199.2 59.6L192.8 59.6L192.8 25.6L199.2 25.6L199.2 19.2L220.5 19.2L220.5 25.6L227 25.6L227 34.5L218.4 34.5L218.4 28.2L201.3 28.2L201.3 38.1L214.2 38.1L214.2 46.9L201.3 46.9L201.3 56.8L218.4 56.8L218.4 50.6L227 50.6L227 59.6L220.5 59.6L220.5 65.8Z" fill="currentColor" fill-rule="evenodd"/><path d="M267.3 65.8L267.3 59.6L260.9 59.6L260.9 25.6L267.3 25.6L267.3 19.2L288.6 19.2L288.6 25.6L295.1 25.6L295.1 40.7L286.5 40.7L286.5 28.2L269.4 28.2L269.4 56.8L286.5 56.8L286.5 44.3L295.1 44.3L295.1 59.6L288.6 59.6L288.6 65.8Z" fill="currentColor" fill-rule="evenodd"/><path d="M310.3 65.8L310.3 59.6L303.9 59.6L303.9 25.6L310.3 25.6L310.3 19.2L331.6 19.2L331.6 25.6L338 25.6L338 34.5L329.5 34.5L329.5 28.2L312.4 28.2L312.4 38.1L325.2 38.1L325.2 46.9L312.4 46.9L312.4 56.8L329.5 56.8L329.5 50.6L338 50.6L338 59.6L331.6 59.6L331.6 65.8Z" fill="currentColor" fill-rule="evenodd"/><path d="M353.2 65.8L353.2 59.6L346.8 59.6L346.8 25.6L353.2 25.6L353.2 19.2L374.5 19.2L374.5 25.6L381 25.6L381 34.5L372.4 34.5L372.4 28.2L355.3 28.2L355.3 38.1L368.2 38.1L368.2 46.9L355.3 46.9L355.3 56.8L372.4 56.8L372.4 50.6L381 50.6L381 59.6L374.5 59.6L374.5 65.8Z" fill="currentColor" fill-rule="evenodd"/></svg>
