<svg xmlns="http://www.w3.org/2000/svg" viewBox="0 0 402 85"><path d="M61.722173921086224 61.29613015409089Q58.39247858820918 64.15966814036514 54.26365637544164 65.69132799348858Q50.13483416267411 67.22298784661203 45.70633936994765 67.22298784661203Q42.31005013041307 67.22298784661203 39.16348804084426 66.34061858339962Q36.016925951275454 65.45824932018719 33.2699273016519 63.84334708374183Q30.52292865202834 62.228444847296466 28.258735825671952 59.96425202094008Q25.994542999315563 57.70005919458369 24.379640762870196 54.953060544960124Q22.764738526424832 52.20606189533657 21.882369263212418 49.05949980576776Q21.0 45.912937716198954 21.0 42.51664847666437Q21.0 39.12035923712979 21.882369263212418 35.9571486708966Q22.764738526424832 32.79393810466341 24.379640762870196 30.04693945503985Q25.994542999315563 27.29994080541629 28.258735825671952 25.035747979059906Q30.52292865202834 22.77155515270352 33.2699273016519 21.156652916258153Q36.016925951275454 19.541750679812786 39.16348804084426 18.65938141660037Q42.31005013041307 17.777012153387957 45.70633936994765 17.777012153387957Q50.13483416267411 17.777012153387957 54.26365637544164 19.29202352984701Q58.39247858820918 20.807034906306065 61.722173921086224 23.70386984590909L56.661037015113116 32.0281081781017Q54.56332895540058 29.763915351745304 51.699790969126326 28.548576555245184Q48.83625298285207 27.333237758745064 45.70633936994765 27.333237758745064Q42.54312880371446 27.333237758745064 39.77948167742652 28.531928078580798Q37.01583455113857 29.73061839841653 34.9514234447548 31.778381028135914Q32.887012338371036 33.8261436578553 31.688322018535303 36.606439260807626Q30.48963169869957 39.386734863759955 30.48963169869957 42.51664847666437Q30.48963169869957 45.64656208956879 31.688322018535303 48.39356073919235Q32.887012338371036 51.140559388815916 34.9514234447548 53.20497049519968Q37.01583455113857 55.26938160158345 39.77948167742652 56.46807192141918Q42.54312880371446 57.666762241254915 45.70633936994765 57.666762241254915Q48.83625298285207 57.666762241254915 51.699790969126326 56.451423444754795Q54.56332895540058 55.236084648254675 56.661037015113116 52.97189182189828Z" fill="currentColor" fill-rule="evenodd"/><path d="M76.80569377901922 66.19078229342014H67.24946817366211V18.442951219963362H76.80569377901922V37.55540243067758H95.88484803640466V18.442951219963362H105.44107364176179V66.19078229342014H95.88484803640466V47.11162803603469H76.80569377901922Z" fill="currentColor" fill-rule="evenodd"/><path d="M142.40069183669695 47.11162803603469V37.55540243067758Q142.40069183669695 35.59088218428013 141.6515103867996 33.842792134519684Q140.90232893690228 32.094702084759234 139.60374775708024 30.796120904937187Q138.3051665772582 29.49753972511514 136.55707652749777 28.748358275217807Q134.8089864777373 27.999176825320475 132.84446623133985 27.999176825320475Q130.8799459849424 27.999176825320475 129.13185593518193 28.748358275217807Q127.3837658854215 29.49753972511514 126.08518470559946 30.796120904937187Q124.78660352577741 32.094702084759234 124.03742207588007 33.842792134519684Q123.28824062598274 35.59088218428013 123.28824062598274 37.55540243067758V47.11162803603469ZM151.95691744205408 66.19078229342014H142.40069183669695V56.63455668806303H123.28824062598274V66.19078229342014H113.7653119739544V37.55540243067758Q113.7653119739544 33.593064984553905 115.26367487374907 30.113533361697396Q116.76203777354374 26.634001738840887 119.34255165652344 24.036839379196795Q121.92306553950314 21.439677019552704 125.40259716235965 19.941314119758033Q128.88212878521617 18.442951219963362 132.84446623133985 18.442951219963362Q136.80680367746353 18.442951219963362 140.28633530032005 19.941314119758033Q143.76586692317653 21.439677019552704 146.36302928282063 24.036839379196795Q148.96019164246474 26.634001738840887 150.4585545422594 30.113533361697396Q151.95691744205408 33.593064984553905 151.95691744205408 37.55540243067758Z" fill="currentColor" fill-rule="evenodd"/><path d="M157.45091474130118 32.760641151334646Q157.45091474130118 29.797212305074076 158.58301115447938 27.200049945429985Q159.71510756765755 24.602887585785894 161.66297933739062 22.655015816052824Q163.6108511071237 20.707144046319755 166.2080134667678 19.57504763314156Q168.80517582641187 18.442951219963362 171.76860467267244 18.442951219963362H193.67799996300337V27.999176825320475H171.76860467267244Q170.76969607280932 27.999176825320475 169.9039752862613 28.36544331193695Q169.03825449971328 28.731709798553425 168.38896390980224 29.381000388464447Q167.7396733198912 30.03029097837547 167.37340683327474 30.8960117649235Q167.00714034665828 31.761732551471532 167.00714034665828 32.760641151334646Q167.00714034665828 33.75954975119775 167.37340683327474 34.64191901441017Q167.7396733198912 35.52428827762259 168.38896390980224 36.17357886753361Q169.03825449971328 36.82286945744463 169.9039752862613 37.18913594406111Q170.76969607280932 37.55540243067758 171.76860467267244 37.55540243067758H181.32483027802957Q184.2882591242901 37.55540243067758 186.9020699605986 38.67085036719139Q189.51588079690708 39.7862983037052 191.46375256664015 41.73417007343827Q193.41162433637322 43.68204184317134 194.52707227288704 46.29585267947982Q195.64252020940083 48.909663515788296 195.64252020940083 51.873092362048865Q195.64252020940083 54.83652120830943 194.52707227288704 57.43368356795352Q193.41162433637322 60.03084592759762 191.46375256664015 61.97871769733069Q189.51588079690708 63.926589467063756 186.9020699605986 65.05868588024195Q184.2882591242901 66.19078229342014 181.32483027802957 66.19078229342014H160.1146710076028V56.63455668806303H181.32483027802957Q182.32373887789268 56.63455668806303 183.1894596644407 56.268290201446554Q184.05518045098873 55.90202371483008 184.70447104089976 55.25273312491906Q185.35376163081077 54.603442535008035 185.72002811742726 53.737721748460004Q186.08629460404373 52.87200096191198 186.08629460404373 51.873092362048865Q186.08629460404373 50.87418376218575 185.72002811742726 50.00846297563772Q185.35376163081077 49.14274218908969 184.70447104089976 48.49345159917866Q184.05518045098873 47.84416100926764 183.1894596644407 47.47789452265116Q182.32373887789268 47.11162803603469 181.32483027802957 47.11162803603469H171.76860467267244Q168.80517582641187 47.11162803603469 166.2080134667678 45.9795316228565Q163.6108511071237 44.84743520967831 161.66297933739062 42.89956343994524Q159.71510756765755 40.95169167021217 158.58301115447938 38.33788083390369Q157.45091474130118 35.72406999759521 157.45091474130118 32.760641151334646Z" fill="currentColor" fill-rule="evenodd"/><path d="M234.63325255739102 66.19078229342014H201.9023474352097V18.442951219963362H234.63325255739102V27.999176825320475H211.4585730405668V37.55540243067758H227.14143805841766V47.11162803603469H211.4585730405668V56.63455668806303H234.63325255739102Z" fill="currentColor" fill-rule="evenodd"/><path d="M303.3182078839786 61.29613015409089Q299.98851255110156 64.15966814036514 295.859690338334 65.69132799348858Q291.7308681255665 67.22298784661203 287.30237333284003 67.22298784661203Q283.9060840933054 67.22298784661203 280.7595220037366 66.34061858339962Q277.61295991416785 65.45824932018719 274.86596126454424 63.84334708374183Q272.1189626149207 62.228444847296466 269.85476978856434 59.96425202094008Q267.59057696220793 57.70005919458369 265.9756747257626 54.953060544960124Q264.3607724893172 52.20606189533657 263.4784032261048 49.05949980576776Q262.59603396289236 45.912937716198954 262.59603396289236 42.51664847666437Q262.59603396289236 39.12035923712979 263.4784032261048 35.9571486708966Q264.3607724893172 32.79393810466341 265.9756747257626 30.04693945503985Q267.59057696220793 27.29994080541629 269.85476978856434 25.035747979059906Q272.1189626149207 22.77155515270352 274.86596126454424 21.156652916258153Q277.61295991416785 19.541750679812786 280.7595220037366 18.65938141660037Q283.9060840933054 17.777012153387957 287.30237333284003 17.777012153387957Q291.7308681255665 17.777012153387957 295.859690338334 19.29202352984701Q299.98851255110156 20.807034906306065 303.3182078839786 23.70386984590909L298.25707097800546 32.0281081781017Q296.15936291829297 29.763915351745304 293.2958249320187 28.548576555245184Q290.43228694574447 27.333237758745064 287.30237333284003 27.333237758745064Q284.13916276660683 27.333237758745064 281.3755156403189 28.531928078580798Q278.61186851403096 29.73061839841653 276.5474574076472 31.778381028135914Q274.4830463012634 33.8261436578553 273.28435598142767 36.606439260807626Q272.0856656615919 39.386734863759955 272.0856656615919 42.51664847666437Q272.0856656615919 45.64656208956879 273.28435598142767 48.39356073919235Q274.4830463012634 51.140559388815916 276.5474574076472 53.20497049519968Q278.61186851403096 55.26938160158345 281.3755156403189 56.46807192141918Q284.13916276660683 57.666762241254915 287.30237333284003 57.666762241254915Q290.43228694574447 57.666762241254915 293.2958249320187 56.451423444754795Q296.15936291829297 55.236084648254675 298.25707097800546 52.97189182189828Z" fill="currentColor" fill-rule="evenodd"/><path d="M341.5764072587358 66.19078229342014H308.84550213655444V18.442951219963362H341.5764072587358V27.999176825320475H318.4017277419116V37.55540243067758H334.0845927597625V47.11162803603469H318.4017277419116V56.63455668806303H341.5764072587358Z" fill="currentColor" fill-rule="evenodd"/><path d="M381.0 66.19078229342014H348.26909487781865V18.442951219963362H381.0V27.999176825320475H357.8253204831758V37.55540243067758H373.5081855010267V47.11162803603469H357.8253204831758V56.63455668806303H381.0Z" fill="currentColor" fill-rule="evenodd"/></svg>
