<svg xmlns="http://www.w3.org/2000/svg" viewBox="0 0 402 85"><path d="M61.7 61.3Q58.4 64.2 54.3 65.7Q50.1 67.2 45.7 67.2Q42.3 67.2 39.2 66.3Q36 65.5 33.3 63.8Q30.5 62.2 28.3 60Q26 57.7 24.4 55Q22.8 52.2 21.9 49.1Q21 45.9 21 42.5Q21 39.1 21.9 36Q22.8 32.8 24.4 30Q26 27.3 28.3 25Q30.5 22.8 33.3 21.2Q36 19.5 39.2 18.7Q42.3 17.8 45.7 17.8Q50.1 17.8 54.3 19.3Q58.4 20.8 61.7 23.7L56.7 32Q54.6 29.8 51.7 28.5Q48.8 27.3 45.7 27.3Q42.5 27.3 39.8 28.5Q37 29.7 35 31.8Q32.9 33.8 31.7 36.6Q30.5 39.4 30.5 42.5Q30.5 45.6 31.7 48.4Q32.9 51.1 35 53.2Q37 55.3 39.8 56.5Q42.5 57.7 45.7 57.7Q48.8 57.7 51.7 56.5Q54.6 55.2 56.7 53Z" fill="currentColor" fill-rule="evenodd"/><path d="M76.8 66.2L67.2 66.2L67.2 18.4L76.8 18.4L76.8 37.6L95.9 37.6L95.9 18.4L105.4 18.4L105.4 66.2L95.9 66.2L95.9 47.1L76.8 47.1Z" fill="currentColor" fill-rule="evenodd"/><path d="M142.4 47.1L142.4 37.6Q142.4 35.6 141.7 33.8Q140.9 32.1 139.6 30.8Q138.3 29.5 136.6 28.7Q134.8 28 132.8 28Q130.9 28 129.1 28.7Q127.4 29.5 126.1 30.8Q124.8 32.1 124 33.8Q123.3 35.6 123.3 37.6L123.3 47.1ZM152 66.2L142.4 66.2L142.4 56.6L123.3 56.6L123.3 66.2L113.8 66.2L113.8 37.6Q113.8 33.6 115.3 30.1Q116.8 26.6 119.3 24Q121.9 21.4 125.4 19.9Q128.9 18.4 132.8 18.4Q136.8 18.4 140.3 19.9Q143.8 21.4 146.4 24Q149 26.6 150.5 30.1Q152 33.6 152 37.6Z" fill="currentColor" fill-rule="evenodd"/><path d="M157.5 32.8Q157.5 29.8 158.6 27.2Q159.7 24.6 161.7 22.7Q163.6 20.7 166.2 19.6Q168.8 18.4 171.8 18.4L193.7 18.4L193.7 28L171.8 28Q170.8 28 169.9 28.4Q169 28.7 168.4 29.4Q167.7 30 167.4 30.9Q167 31.8 167 32.8Q167 33.8 167.4 34.6Q167.7 35.5 168.4 36.2Q169 36.8 169.9 37.2Q170.8 37.6 171.8 37.6L181.3 37.6Q184.3 37.6 186.9 38.7Q189.5 39.8 191.5 41.7Q193.4 43.7 194.5 46.3Q195.6 48.9 195.6 51.9Q195.6 54.8 194.5 57.4Q193.4 60 191.5 62Q189.5 63.9 186.9 65.1Q184.3 66.2 181.3 66.2L160.1 66.2L160.1 56.6L181.3 56.6Q182.3 56.6 183.2 56.3Q184.1 55.9 184.7 55.3Q185.4 54.6 185.7 53.7Q186.1 52.9 186.1 51.9Q186.1 50.9 185.7 50Q185.4 49.1 184.7 48.5Q184.1 47.8 183.2 47.5Q182.3 47.1 181.3 47.1L171.8 47.1Q168.8 47.1 166.2 46Q163.6 44.8 161.7 42.9Q159.7 41 158.6 38.3Q157.5 35.7 157.5 32.8Z" fill="currentColor" fill-rule="evenodd"/><path d="M234.6 66.2L201.9 66.2L201.9 18.4L234.6 18.4L234.6 28L211.5 28L211.5 37.6L227.1 37.6L227.1 47.1L211.5 47.1L211.5 56.6L234.6 56.6Z" fill="currentColor" fill-rule="evenodd"/><path d="M303.3 61.3Q300 64.2 295.9 65.7Q291.7 67.2 287.3 67.2Q283.9 67.2 280.8 66.3Q277.6 65.5 274.9 63.8Q272.1 62.2 269.9 60Q267.6 57.7 266 55Q264.4 52.2 263.5 49.1Q262.6 45.9 262.6 42.5Q262.6 39.1 263.5 36Q264.4 32.8 266 30Q267.6 27.3 269.9 25Q272.1 22.8 274.9 21.2Q277.6 19.5 280.8 18.7Q283.9 17.8 287.3 17.8Q291.7 17.8 295.9 19.3Q300 20.8 303.3 23.7L298.3 32Q296.2 29.8 293.3 28.5Q290.4 27.3 287.3 27.3Q284.1 27.3 281.4 28.5Q278.6 29.7 276.5 31.8Q274.5 33.8 273.3 36.6Q272.1 39.4 272.1 42.5Q272.1 45.6 273.3 48.4Q274.5 51.1 276.5 53.2Q278.6 55.3 281.4 56.5Q284.1 57.7 287.3 57.7Q290.4 57.7 293.3 56.5Q296.2 55.2 298.3 53Z" fill="currentColor" fill-rule="evenodd"/><path d="M341.6 66.2L308.8 66.2L308.8 18.4L341.6 18.4L341.6 28L318.4 28L318.4 37.6L334.1 37.6L334.1 47.1L318.4 47.1L318.4 56.6L341.6 56.6Z" fill="currentColor" fill-rule="evenodd"/><path d="M381 66.2L348.3 66.2L348.3 18.4L381 18.4L381 28L357.8 28L357.8 37.6L373.5 37.6L373.5 47.1L357.8 47.1L357.8 56.6L381 56.6Z" fill="currentColor" fill-rule="evenodd"/></svg>
