<svg xmlns="http://www.w3.org/2000/svg" viewBox="0 0 402 85"><path d="M39.274111675126875 68.08375634517766Q30.839906286606766 68.08375634517766 25.919953143303367 62.9178055447091Q20.99999999999997 57.75185474424053 20.99999999999997 47.982233502538065V37.01776649746192Q20.99999999999997 27.5292854353768 25.919953143303367 22.222764545099565Q30.839906286606766 16.91624365482233 39.274111675126875 16.91624365482233Q48.05974228816866 16.91624365482233 52.66341272940255 21.836196798125727Q57.26708317063644 26.756149941429122 57.26708317063644 35.190355329949234V36.45548613822725H47.989457243264326V35.190355329949234Q47.989457243264326 32.8709488481062 47.21632174931665 30.58668488871534Q46.44318625536897 28.302420929324477 44.54549004295195 26.826434986333457Q42.64779383053492 25.350449043342437 39.274111675126875 25.350449043342437Q36.181569699336166 25.350449043342437 34.17844591956264 26.861577508785626Q32.17532213978912 28.372705974228815 31.226474033580605 30.867825068332678Q30.277625927372092 33.36294416243654 30.277625927372092 36.31491604841858V48.68508395158141Q30.277625927372092 53.46446700507614 32.315892229597786 56.55700898086685Q34.35415853182348 59.649550956657556 39.274111675126875 59.649550956657556Q42.85864896524792 59.649550956657556 44.75634517766495 58.24385005857087Q46.65404139008197 56.838149160484186 47.32174931667315 54.589027723545485Q47.989457243264326 52.33990628660679 47.989457243264326 49.80964467005076V48.54451386177274H57.26708317063644V49.80964467005076Q57.26708317063644 58.52499023818821 52.66341272940255 63.304373291682936Q48.05974228816866 68.08375634517766 39.274111675126875 68.08375634517766Z" fill="currentColor" fill-rule="evenodd"/><path d="M64.92815306520887 67.09976571651698V17.90023428348301H74.205778992581V38.001757126122605H90.09019914096054V17.90023428348301H99.36782506833265V67.09976571651698H90.09019914096054V46.85767278406872H74.205778992581V67.09976571651698Z" fill="currentColor" fill-rule="evenodd"/><path d="M104.70948848106207 67.09976571651698 116.44709098008589 17.90023428348301H133.87778211636078L145.61538461538458 67.09976571651698H135.91604841858646L133.5263568918391 56.55700898086685H116.79851620460755L114.4088246778602 67.09976571651698ZM118.76649746192892 47.70109332292073H131.48809058961342L125.79500195236234 22.539047247169066H124.52987114408432Z" fill="currentColor" fill-rule="evenodd"/><path d="M168.87973447871923 68.08375634517766Q162.41351034752049 68.08375634517766 158.0206950409996 65.72920734088247Q153.6278797344787 63.37465833658727 151.4139008199922 59.29812573213589Q149.19992190550565 55.2215931276845 149.19992190550565 50.0907848496681V47.982233502538065H158.47754783287778V49.66907458024209Q158.47754783287778 54.097032409215146 161.07809449433813 56.73272159312768Q163.67864115579852 59.36841077704022 169.0203045685279 59.36841077704022Q173.23740726278797 59.36841077704022 175.27567356501368 57.54099960952753Q177.31393986723936 55.71358844201484 177.31393986723936 53.183326825458806Q177.31393986723936 51.56677079265911 176.54080437329168 50.1962124170246Q175.767668879344 48.82565404139008 173.72940257711832 47.806520890277234Q171.6911362748926 46.78738773916439 167.89574385005855 46.15482233502537Q162.97579070675516 45.31140179617337 159.14525575946894 43.69484576337368Q155.3147208121827 42.07828973057399 153.1007418976962 39.161460367044114Q150.88676298320968 36.24463100351424 150.88676298320968 31.394962905115186V30.973252635689178Q150.88676298320968 26.96700507614213 152.99531433033968 23.76903553299492Q155.1038656774697 20.57106598984771 158.93440062475594 18.74365482233502Q162.76493557204216 16.91624365482233 167.89574385005855 16.91624365482233Q173.7294025771183 16.91624365482233 177.73565013666536 19.024795001952356Q181.7418976962124 21.13334634908238 183.81530652089026 24.61245607184693Q185.88871534556813 28.091565794611476 185.88871534556813 32.097813354158525V34.62807497071456H176.611089418196V32.94123389301054Q176.611089418196 29.9892620070285 174.32682545880516 27.810425614994138Q172.0425614994143 25.631589222959775 167.89574385005855 25.631589222959775Q164.4517766497462 25.631589222959775 162.37836782506832 27.072432643498626Q160.30495900039045 28.513276064037477 160.30495900039045 30.973252635689178Q160.30495900039045 33.50351425224521 162.51893791487697 35.049785240140565Q164.73291682936352 36.59605622803592 170.84771573604058 37.72061694650527Q178.57907067551736 39.056032799687614 182.65560327996874 42.39457243264349Q186.73213588442013 45.73311206559937 186.73213588442013 52.19933619679812V53.04275673565013Q186.73213588442013 59.86040609137056 181.95275283092542 63.97208121827411Q177.17336977743068 68.08375634517766 168.87973447871923 68.08375634517766Z" fill="currentColor" fill-rule="evenodd"/><path d="M195.4474814525576 67.09976571651698V17.90023428348301H226.51347130027335V26.756149941429122H204.7251073799297V38.001757126122605H225.67005076142132V46.85767278406872H204.7251073799297V58.24385005857087H227.35689183912535V67.09976571651698Z" fill="currentColor" fill-rule="evenodd"/><path d="M278.9461147989067 68.08375634517766Q270.5119094103866 68.08375634517766 265.5919562670832 62.9178055447091Q260.6720031237798 57.75185474424053 260.6720031237798 47.982233502538065V37.01776649746192Q260.6720031237798 27.5292854353768 265.5919562670832 22.222764545099565Q270.5119094103866 16.91624365482233 278.9461147989067 16.91624365482233Q287.73174541194845 16.91624365482233 292.3354158531823 21.836196798125727Q296.93908629441626 26.756149941429122 296.93908629441626 35.190355329949234V36.45548613822725H287.6614603670441V35.190355329949234Q287.6614603670441 32.8709488481062 286.88832487309645 30.58668488871534Q286.1151893791488 28.302420929324477 284.21749316673174 26.826434986333457Q282.3197969543147 25.350449043342437 278.9461147989067 25.350449043342437Q275.853572823116 25.350449043342437 273.85044904334245 26.861577508785626Q271.8473252635689 28.372705974228815 270.8984771573604 30.867825068332678Q269.94962905115193 33.36294416243654 269.94962905115193 36.31491604841858V48.68508395158141Q269.94962905115193 53.46446700507614 271.9878953533776 56.55700898086685Q274.0261616556033 59.649550956657556 278.9461147989067 59.649550956657556Q282.53065208902774 59.649550956657556 284.42834830144477 58.24385005857087Q286.3260445138618 56.838149160484186 286.99375244045297 54.589027723545485Q287.6614603670441 52.33990628660679 287.6614603670441 49.80964467005076V48.54451386177274H296.93908629441626V49.80964467005076Q296.93908629441626 58.52499023818821 292.3354158531823 63.304373291682936Q287.73174541194845 68.08375634517766 278.9461147989067 68.08375634517766Z" fill="currentColor" fill-rule="evenodd"/><path d="M306.07614213197974 67.09976571651698V17.90023428348301H337.1421319796955V26.756149941429122H315.35376805935186V38.001757126122605H336.2987114408435V46.85767278406872H315.35376805935186V58.24385005857087H337.9855525185475V67.09976571651698Z" fill="currentColor" fill-rule="evenodd"/><path d="M349.09058961343226 67.09976571651698V17.90023428348301H380.156579461148V26.756149941429122H358.3682155408044V38.001757126122605H379.313158922296V46.85767278406872H358.3682155408044V58.24385005857087H381.0V67.09976571651698Z" fill="currentColor" fill-rule="evenodd"/></svg>
