<svg xmlns="http://www.w3.org/2000/svg" viewBox="0 0 402 85"><path d="M59.240775251584026 59.67480432351845Q57.09392471114421 62.02292210212449 52.364144614237766 63.49888184867686Q47.63436451733132 64.97484159522922 42.93812896011924 64.97484159522922Q33.61274692508383 64.97484159522922 27.306373462541902 58.97036898993664Q20.99999999999997 52.965896384644054 20.99999999999997 43.23797987327619Q20.99999999999997 38.13920983973165 23.14685054043978 32.772083488632134Q25.293701080879586 27.404957137532612 30.191203876257894 23.715057771151695Q35.0887066716362 20.025158404770778 43.340663436451706 20.025158404770778Q48.90905702571746 20.025158404770778 52.93440178904209 21.668840849795004Q56.959746552366724 23.31252329481923 59.03950801341779 25.258106597092805L60.1129332836377 35.38855758479314L52.80022363026461 36.059448378680585L51.860976518822184 30.2897875512486Q50.11666045471485 29.149273201639957 47.63436451733132 28.54547148714126Q45.152068579947795 27.941669772642562 42.93812896011924 27.941669772642562Q37.302646291464754 27.941669772642562 33.98173686172193 31.698658218412223Q30.6608274319791 35.455646664181884 30.6608274319791 42.63417815877749Q30.6608274319791 50.21524412970555 34.28363771897128 53.63678717853149Q37.90644800596345 57.05833022735744 43.541930674617944 57.05833022735744Q48.84196794632871 57.05833022735744 51.860976518822184 55.24692508386135L52.80022363026461 48.73928438315319L60.1129332836377 49.41017517704063Z" fill="currentColor" fill-rule="evenodd"/><path d="M111.03354453969436 64.30395080134178H92.65113678717852V56.655795751024975H97.34737234439059V45.98863212821469H78.89787551248601V56.655795751024975H83.59411106969809V64.30395080134178H65.21170331718224V56.655795751024975H69.90793887439432V28.344204248975025H65.21170331718224V20.696049198658216H83.59411106969809V28.344204248975025H78.89787551248601V38.407566157286624H97.34737234439059V28.344204248975025H92.65113678717852V20.696049198658216H111.03354453969436V28.344204248975025H106.33730898248228V56.655795751024975H111.03354453969436Z" fill="currentColor" fill-rule="evenodd"/><path d="M159.74021617592246 64.30395080134178H142.36414461423777V56.655795751024975H145.85277674245248L144.24263883712263 52.22791651136787H129.4159522922102L127.60454714871412 56.655795751024975H131.6969809914275V64.30395080134178H114.52217666790905V56.655795751024975H118.48043235184494L130.95900111815132 28.344204248975025H124.92098397316435V20.696049198658216H139.88184867685425L155.58069325382036 56.655795751024975H159.74021617592246ZM141.82743197912782 45.78736489004845 137.26537458069325 33.51006336190831H136.86284010436077L131.96533730898247 45.78736489004845Z" fill="currentColor" fill-rule="evenodd"/><path d="M195.02907193440177 51.08740216175923Q195.02907193440177 57.86339918002236 190.46701453596717 61.419120387625796Q185.9049571375326 64.97484159522922 177.92135669027206 64.97484159522922Q173.49347745061496 64.97484159522922 169.09914275065222 63.83432724562057Q164.7048080506895 62.69381289601193 162.15542303391723 60.41278419679463L163.4972046216921 49.61144241520686L170.6757361162877 50.2823332090943L170.608647036899 55.58237048080507Q172.88967573611626 56.78997390980246 174.4998136414461 57.02478568766307Q176.109951546776 57.25959746552367 177.25046589638464 57.25959746552367Q180.80618710398807 57.25959746552367 183.08721580320537 56.353894893775625Q185.36824450242264 55.44819232202758 185.36824450242264 52.16082743197913Q185.36824450242264 48.53801714498695 182.6846813268729 47.29686917629519Q180.00111815132314 46.055721207603426 176.37830786433096 45.38483041371599Q173.22512113306 44.84811777860604 170.03838986209465 43.80823704808051Q166.8516585911293 42.768356317554975 164.7048080506895 40.38669399925457Q162.5579575102497 38.00503168095416 162.5579575102497 33.308796123742084Q162.5579575102497 25.996086470368986 167.52254938501676 23.010622437569882Q172.4871412597838 20.025158404770778 178.39098024599326 20.025158404770778Q182.6846813268729 20.025158404770778 186.57584793142004 21.333395452851285Q190.4670145359672 22.64163250093179 192.54677599701824 24.855572120760343L192.94931047335072 34.31513231457324L185.77077897875512 34.98602310846068L185.16697726425642 29.88725307491614Q183.48975027953782 28.746738725307495 181.77897875512485 28.34420424897503Q180.06820723071186 27.941669772642562 178.458069325382 27.941669772642562Q175.77450614983226 27.941669772642562 173.99664554603055 28.88091688408498Q172.21878494222884 29.820163995527395 172.21878494222884 32.16828177413343Q172.21878494222884 34.918934029071934 174.4998136414461 35.992359299291834Q176.7808423406634 37.06578456951174 179.73276183376817 37.73667536339918Q182.41632500931792 38.273387998509136 186.00559075661573 39.246179649645924Q189.59485650391352 40.218971300782705 192.31196421915763 42.86898993663809Q195.02907193440177 45.519008572493476 195.02907193440177 51.08740216175923Z" fill="currentColor" fill-rule="evenodd"/><path d="M233.40402534476334 64.30395080134178H199.72530749161388V56.655795751024975H204.42154304882592V28.344204248975025H199.72530749161388V20.696049198658216H233.00149086843086L234.34327245620574 33.44297428251957L226.69511740588894 34.11386507640701L225.35333581811406 28.344204248975025H213.41147968691763V38.60883339545285H231.79388743943346V46.189899366380914H213.41147968691763V56.655795751024975H225.7558702944465L227.09765188222138 50.88613492359299L234.7458069325382 51.557025717480435Z" fill="currentColor" fill-rule="evenodd"/><path d="M300.2247484159523 59.67480432351845Q298.0778978755125 62.02292210212449 293.348117778606 63.49888184867686Q288.6183376816996 64.97484159522922 283.92210212448754 64.97484159522922Q274.5967200894521 64.97484159522922 268.29034662691015 58.97036898993664Q261.98397316436825 52.965896384644054 261.98397316436825 43.23797987327619Q261.98397316436825 38.13920983973165 264.13082370480805 32.772083488632134Q266.27767424524785 27.404957137532612 271.1751770406262 23.715057771151695Q276.0726798360045 20.025158404770778 284.32463660082 20.025158404770778Q289.8930301900857 20.025158404770778 293.91837495341036 21.668840849795004Q297.943719716735 23.31252329481923 300.0234811777861 25.258106597092805L301.096906448006 35.38855758479314L293.78419679463286 36.059448378680585L292.84494968319046 30.2897875512486Q291.1006336190831 29.149273201639957 288.6183376816996 28.54547148714126Q286.13604174431606 27.941669772642562 283.92210212448754 27.941669772642562Q278.28661945583303 27.941669772642562 274.9657100260902 31.698658218412223Q271.6448005963474 35.455646664181884 271.6448005963474 42.63417815877749Q271.6448005963474 50.21524412970555 275.26761088333956 53.63678717853149Q278.8904211703317 57.05833022735744 284.5259038389862 57.05833022735744Q289.825941110697 57.05833022735744 292.84494968319046 55.24692508386135L293.78419679463286 48.73928438315319L301.096906448006 49.41017517704063Z" fill="currentColor" fill-rule="evenodd"/><path d="M339.87439433469996 64.30395080134178H306.1956764815505V56.655795751024975H310.89191203876254V28.344204248975025H306.1956764815505V20.696049198658216H339.47185985836745L340.81364144614236 33.44297428251957L333.16548639582555 34.11386507640701L331.82370480805065 28.344204248975025H319.88184867685425V38.60883339545285H338.2642564293701V46.189899366380914H319.88184867685425V56.655795751024975H332.22623928438315L333.568020872158 50.88613492359299L341.2161759224748 51.557025717480435Z" fill="currentColor" fill-rule="evenodd"/><path d="M379.6582184122251 64.30395080134178H345.97950055907563V56.655795751024975H350.6757361162877V28.344204248975025H345.97950055907563V20.696049198658216H379.25568393589265L380.5974655236675 33.44297428251957L372.9493104733507 34.11386507640701L371.6075288855758 28.344204248975025H359.6656727543794V38.60883339545285H378.04808050689525V46.189899366380914H359.6656727543794V56.655795751024975H372.0100633619083L373.35184494968314 50.88613492359299L380.99999999999994 51.557025717480435Z" fill="currentColor" fill-rule="evenodd"/></svg>
