<svg width="96" height="96" viewBox="0 0 96 96" fill="none" xmlns="http://www.w3.org/2000/svg">
<path d="M16.0086 76.9914C30.0675 91.0502 52.8614 91.0502 66.9203 76.9914L58.435 68.5061C49.0624 77.8787 33.8665 77.8787 24.4939 68.5061C15.1213 59.1335 15.1213 43.9375 24.4939 34.565L16.0086 26.0797C1.94973 40.1385 1.94972 62.9325 16.0086 76.9914Z" fill="black"/>
<path d="M32.9792 60.0208C37.6655 64.7071 45.2634 64.7071 49.9497 60.0208L32.9792 43.0502C28.2929 47.7365 28.2929 55.3345 32.9792 60.0208Z" fill="black"/>
<path d="M73.9914 19.0086C59.9325 4.94973 37.1385 4.94974 23.0797 19.0086L31.565 27.4939C40.9375 18.1213 56.1335 18.1213 65.5061 27.4939C74.8787 36.8665 74.8787 52.0624 65.5061 61.435L73.9914 69.9203C88.0502 55.8614 88.0502 33.0675 73.9914 19.0086Z" fill="black"/>
<path d="M57.0208 35.9792C52.3345 31.2929 44.7365 31.2929 40.0502 35.9792L57.0208 52.9497C61.7071 48.2634 61.7071 40.6655 57.0208 35.9792Z" fill="black"/>
</svg>
