<svg xmlns="http://www.w3.org/2000/svg" version="1.1" xmlns:xlink="http://www.w3.org/1999/xlink" width="90" height="90"><svg width="90" height="90" viewBox="0 0 90 90" fill="none" xmlns="http://www.w3.org/2000/svg">
<rect x="10" width="70" height="90" fill="#171717"></rect>
<rect y="10" width="90" height="70" fill="#171717"></rect>
<path d="M56.8 78C56.8 78 56.8 77.6955 56.8 77.0864V74.9545V72.8354V71.9091H57.67H59.7H61.7179H62.6C62.6 71.9091 62.6 72.2179 62.6 72.8354V71.9091H63.47H65.5H67.5179H68.4C68.4 71.9091 68.4 72.2179 68.4 72.8354V71.9091H69.27H71.3H73.3179H74.2C74.2 71.9091 74.2 72.2179 74.2 72.8354V74.9545V77.0864V78C74.2 78 73.906 78 73.3179 78H71.3H69.27H68.4C68.4 78 68.4 77.6955 68.4 77.0864V78C68.4 78 68.106 78 67.5179 78H65.5H63.47H62.6C62.6 78 62.6 77.6955 62.6 77.0864V78C62.6 78 62.306 78 61.7179 78H59.7H57.67H56.8ZM51 71.9091C51 71.9091 51 71.6045 51 70.9955V68.8636V66.7445V65.8182C51 65.8182 51 65.5136 51 64.9045V62.7727V60.6536V59.7273C51 59.7273 51 59.4227 51 58.8136V56.6818V54.5627V53.6364C51 53.6364 51 53.3318 51 52.7227V50.5909V48.4718V47.5455C51 47.5455 51 47.2409 51 46.6318V44.5V42.3809V41.4545C51 41.4545 51 41.15 51 40.5409V38.4091V36.29V35.3636C51 35.3636 51 35.0591 51 34.45V32.3182V30.1991V29.2727C51 29.2727 51 28.9682 51 28.3591V26.2273V24.1081V23.1818C51 23.1818 51 22.8773 51 22.2682V20.1364V18.0172V17.0909H51.87H53.9H55.9179H56.8C56.8 17.0909 56.8 17.3997 56.8 18.0172V20.1364V22.2682V23.1818C56.8 23.1818 56.506 23.1818 55.9179 23.1818H56.8C56.8 23.1818 56.8 23.4906 56.8 24.1081V26.2273V28.3591V29.2727C56.8 29.2727 56.506 29.2727 55.9179 29.2727H56.8C56.8 29.2727 56.8 29.5815 56.8 30.1991V32.3182V34.45V35.3636C56.8 35.3636 56.506 35.3636 55.9179 35.3636H56.8C56.8 35.3636 56.8 35.6724 56.8 36.29V38.4091V40.5409V41.4545C56.8 41.4545 56.506 41.4545 55.9179 41.4545H56.8C56.8 41.4545 56.8 41.7633 56.8 42.3809V44.5V46.6318V47.5455C56.8 47.5455 56.506 47.5455 55.9179 47.5455H56.8C56.8 47.5455 56.8 47.8542 56.8 48.4718V50.5909V52.7227V53.6364C56.8 53.6364 56.506 53.6364 55.9179 53.6364H56.8C56.8 53.6364 56.8 53.9451 56.8 54.5627V56.6818V58.8136V59.7273C56.8 59.7273 56.506 59.7273 55.9179 59.7273H56.8C56.8 59.7273 56.8 60.036 56.8 60.6536V62.7727V64.9045V65.8182C56.8 65.8182 56.506 65.8182 55.9179 65.8182H56.8C56.8 65.8182 56.8 66.127 56.8 66.7445V68.8636V70.9955V71.9091C56.8 71.9091 56.506 71.9091 55.9179 71.9091H53.9H51.87H51ZM74.2 71.9091C74.2 71.9091 74.2 71.6045 74.2 70.9955V68.8636V66.7445V65.8182C74.2 65.8182 74.2 65.5136 74.2 64.9045V62.7727V60.6536V59.7273H75.07H77.1H79.1179H80C80 59.7273 80 60.036 80 60.6536V62.7727V64.9045V65.8182C80 65.8182 79.706 65.8182 79.1179 65.8182H80C80 65.8182 80 66.127 80 66.7445V68.8636V70.9955V71.9091C80 71.9091 79.706 71.9091 79.1179 71.9091H77.1H75.07H74.2ZM74.2 29.2727C74.2 29.2727 74.2 28.9682 74.2 28.3591V26.2273V24.1081V23.1818C74.2 23.1818 74.2 22.8773 74.2 22.2682V20.1364V18.0172V17.0909H75.07H77.1H79.1179H80C80 17.0909 80 17.3997 80 18.0172V20.1364V22.2682V23.1818C80 23.1818 79.706 23.1818 79.1179 23.1818H80C80 23.1818 80 23.4906 80 24.1081V26.2273V28.3591V29.2727C80 29.2727 79.706 29.2727 79.1179 29.2727H77.1H75.07H74.2ZM56.8 17.0909C56.8 17.0909 56.8 16.7864 56.8 16.1773V14.0455V11.9263V11H57.67H59.7H61.7179H62.6C62.6 11 62.6 11.3088 62.6 11.9263V11H63.47H65.5H67.5179H68.4C68.4 11 68.4 11.3088 68.4 11.9263V11H69.27H71.3H73.3179H74.2C74.2 11 74.2 11.3088 74.2 11.9263V14.0455V16.1773V17.0909C74.2 17.0909 73.906 17.0909 73.3179 17.0909H71.3H69.27H68.4C68.4 17.0909 68.4 16.7864 68.4 16.1773V17.0909C68.4 17.0909 68.106 17.0909 67.5179 17.0909H65.5H63.47H62.6C62.6 17.0909 62.6 16.7864 62.6 16.1773V17.0909C62.6 17.0909 62.306 17.0909 61.7179 17.0909H59.7H57.67H56.8Z" fill="white"></path>
<path d="M15.8 78C15.8 78 15.8 77.6955 15.8 77.0864V74.9545V72.8354V71.9091H16.67H18.7H20.7179H21.6C21.6 71.9091 21.6 72.2179 21.6 72.8354V71.9091H22.47H24.5H26.5179H27.4C27.4 71.9091 27.4 72.2179 27.4 72.8354V71.9091H28.27H30.3H32.3179H33.2C33.2 71.9091 33.2 72.2179 33.2 72.8354V74.9545V77.0864V78C33.2 78 32.906 78 32.3179 78H30.3H28.27H27.4C27.4 78 27.4 77.6955 27.4 77.0864V78C27.4 78 27.106 78 26.5179 78H24.5H22.47H21.6C21.6 78 21.6 77.6955 21.6 77.0864V78C21.6 78 21.306 78 20.7179 78H18.7H16.67H15.8ZM10 71.9091C10 71.9091 10 71.6045 10 70.9955V68.8636V66.7445V65.8182C10 65.8182 10 65.5136 10 64.9045V62.7727V60.6536V59.7273C10 59.7273 10 59.4227 10 58.8136V56.6818V54.5627V53.6364C10 53.6364 10 53.3318 10 52.7227V50.5909V48.4718V47.5455C10 47.5455 10 47.2409 10 46.6318V44.5V42.3809V41.4545C10 41.4545 10 41.15 10 40.5409V38.4091V36.29V35.3636C10 35.3636 10 35.0591 10 34.45V32.3182V30.1991V29.2727C10 29.2727 10 28.9682 10 28.3591V26.2273V24.1081V23.1818C10 23.1818 10 22.8773 10 22.2682V20.1364V18.0172V17.0909H10.87H12.9H14.9179H15.8C15.8 17.0909 15.8 17.3997 15.8 18.0172V20.1364V22.2682V23.1818C15.8 23.1818 15.506 23.1818 14.9179 23.1818H15.8C15.8 23.1818 15.8 23.4906 15.8 24.1081V26.2273V28.3591V29.2727C15.8 29.2727 15.506 29.2727 14.9179 29.2727H15.8C15.8 29.2727 15.8 29.5815 15.8 30.1991V32.3182V34.45V35.3636C15.8 35.3636 15.506 35.3636 14.9179 35.3636H15.8C15.8 35.3636 15.8 35.6724 15.8 36.29V38.4091V40.5409V41.4545C15.8 41.4545 15.506 41.4545 14.9179 41.4545H15.8C15.8 41.4545 15.8 41.7633 15.8 42.3809V44.5V46.6318V47.5455C15.8 47.5455 15.506 47.5455 14.9179 47.5455H15.8C15.8 47.5455 15.8 47.8542 15.8 48.4718V50.5909V52.7227V53.6364C15.8 53.6364 15.506 53.6364 14.9179 53.6364H15.8C15.8 53.6364 15.8 53.9451 15.8 54.5627V56.6818V58.8136V59.7273C15.8 59.7273 15.506 59.7273 14.9179 59.7273H15.8C15.8 59.7273 15.8 60.036 15.8 60.6536V62.7727V64.9045V65.8182C15.8 65.8182 15.506 65.8182 14.9179 65.8182H15.8C15.8 65.8182 15.8 66.127 15.8 66.7445V68.8636V70.9955V71.9091C15.8 71.9091 15.506 71.9091 14.9179 71.9091H12.9H10.87H10ZM33.2 71.9091C33.2 71.9091 33.2 71.6045 33.2 70.9955V68.8636V66.7445V65.8182C33.2 65.8182 33.2 65.5136 33.2 64.9045V62.7727V60.6536V59.7273H34.07H36.1H38.1179H39C39 59.7273 39 60.036 39 60.6536V62.7727V64.9045V65.8182C39 65.8182 38.706 65.8182 38.1179 65.8182H39C39 65.8182 39 66.127 39 66.7445V68.8636V70.9955V71.9091C39 71.9091 38.706 71.9091 38.1179 71.9091H36.1H34.07H33.2ZM33.2 29.2727C33.2 29.2727 33.2 28.9682 33.2 28.3591V26.2273V24.1081V23.1818C33.2 23.1818 33.2 22.8773 33.2 22.2682V20.1364V18.0172V17.0909H34.07H36.1H38.1179H39C39 17.0909 39 17.3997 39 18.0172V20.1364V22.2682V23.1818C39 23.1818 38.706 23.1818 38.1179 23.1818H39C39 23.1818 39 23.4906 39 24.1081V26.2273V28.3591V29.2727C39 29.2727 38.706 29.2727 38.1179 29.2727H36.1H34.07H33.2ZM15.8 17.0909C15.8 17.0909 15.8 16.7864 15.8 16.1773V14.0455V11.9263V11H16.67H18.7H20.7179H21.6C21.6 11 21.6 11.3088 21.6 11.9263V11H22.47H24.5H26.5179H27.4C27.4 11 27.4 11.3088 27.4 11.9263V11H28.27H30.3H32.3179H33.2C33.2 11 33.2 11.3088 33.2 11.9263V14.0455V16.1773V17.0909C33.2 17.0909 32.906 17.0909 32.3179 17.0909H30.3H28.27H27.4C27.4 17.0909 27.4 16.7864 27.4 16.1773V17.0909C27.4 17.0909 27.106 17.0909 26.5179 17.0909H24.5H22.47H21.6C21.6 17.0909 21.6 16.7864 21.6 16.1773V17.0909C21.6 17.0909 21.306 17.0909 20.7179 17.0909H18.7H16.67H15.8Z" fill="white"></path>
</svg><style>@media (prefers-color-scheme: light) { :root { filter: none; } }
@media (prefers-color-scheme: dark) { :root { filter: none; } }
</style></svg>