<svg xmlns="http://www.w3.org/2000/svg" version="1.1" xmlns:xlink="http://www.w3.org/1999/xlink" width="90" height="90"><svg width="90" height="90" viewBox="0 0 90 90" fill="none" xmlns="http://www.w3.org/2000/svg">
<rect x="10" width="70" height="90" fill="#757575"></rect>
<rect y="10" width="90" height="70" fill="#757575"></rect>
<path d="M16 78C16 78 16 77.6955 16 77.0864V74.9545V72.8354V71.9091H16.9H19H21.0875H22C22 71.9091 22 72.2179 22 72.8354V71.9091H22.9H25H27.0875H28C28 71.9091 28 72.2179 28 72.8354V71.9091H28.9H31H33.0875H34C34 71.9091 34 72.2179 34 72.8354V74.9545V77.0864V78C34 78 33.6958 78 33.0875 78H31H28.9H28C28 78 28 77.6955 28 77.0864V78C28 78 27.6958 78 27.0875 78H25H22.9H22C22 78 22 77.6955 22 77.0864V78C22 78 21.6958 78 21.0875 78H19H16.9H16ZM10 71.9091C10 71.9091 10 71.6045 10 70.9955V68.8636V66.7445V65.8182C10 65.8182 10 65.5136 10 64.9045V62.7727V60.6536V59.7273C10 59.7273 10 59.4227 10 58.8136V56.6818V54.5627V53.6364C10 53.6364 10 53.3318 10 52.7227V50.5909V48.4718V47.5455C10 47.5455 10 47.2409 10 46.6318V44.5V42.3809V41.4545C10 41.4545 10 41.15 10 40.5409V38.4091V36.29V35.3636C10 35.3636 10 35.0591 10 34.45V32.3182V30.1991V29.2727C10 29.2727 10 28.9682 10 28.3591V26.2273V24.1081V23.1818C10 23.1818 10 22.8773 10 22.2682V20.1364V18.0172V17.0909H10.9H13H15.0875H16C16 17.0909 16 17.3997 16 18.0172V20.1364V22.2682V23.1818C16 23.1818 15.6958 23.1818 15.0875 23.1818H16C16 23.1818 16 23.4906 16 24.1081V26.2273V28.3591V29.2727C16 29.2727 15.6958 29.2727 15.0875 29.2727H16C16 29.2727 16 29.5815 16 30.1991V32.3182V34.45V35.3636C16 35.3636 15.6958 35.3636 15.0875 35.3636H16C16 35.3636 16 35.6724 16 36.29V38.4091V40.5409V41.4545C16 41.4545 15.6958 41.4545 15.0875 41.4545H16C16 41.4545 16 41.7633 16 42.3809V44.5V46.6318V47.5455C16 47.5455 15.6958 47.5455 15.0875 47.5455H16C16 47.5455 16 47.8542 16 48.4718V50.5909V52.7227V53.6364C16 53.6364 15.6958 53.6364 15.0875 53.6364H16C16 53.6364 16 53.9451 16 54.5627V56.6818V58.8136V59.7273C16 59.7273 15.6958 59.7273 15.0875 59.7273H16C16 59.7273 16 60.036 16 60.6536V62.7727V64.9045V65.8182C16 65.8182 15.6958 65.8182 15.0875 65.8182H16C16 65.8182 16 66.127 16 66.7445V68.8636V70.9955V71.9091C16 71.9091 15.6958 71.9091 15.0875 71.9091H13H10.9H10ZM34 71.9091C34 71.9091 34 71.6045 34 70.9955V68.8636V66.7445V65.8182C34 65.8182 34 65.5136 34 64.9045V62.7727V60.6536V59.7273H34.9H37H39.0875H40C40 59.7273 40 60.036 40 60.6536V62.7727V64.9045V65.8182C40 65.8182 39.6958 65.8182 39.0875 65.8182H40C40 65.8182 40 66.127 40 66.7445V68.8636V70.9955V71.9091C40 71.9091 39.6958 71.9091 39.0875 71.9091H37H34.9H34ZM34 29.2727C34 29.2727 34 28.9682 34 28.3591V26.2273V24.1081V23.1818C34 23.1818 34 22.8773 34 22.2682V20.1364V18.0172V17.0909H34.9H37H39.0875H40C40 17.0909 40 17.3997 40 18.0172V20.1364V22.2682V23.1818C40 23.1818 39.6958 23.1818 39.0875 23.1818H40C40 23.1818 40 23.4906 40 24.1081V26.2273V28.3591V29.2727C40 29.2727 39.6958 29.2727 39.0875 29.2727H37H34.9H34ZM16 17.0909C16 17.0909 16 16.7864 16 16.1773V14.0455V11.9263V11H16.9H19H21.0875H22C22 11 22 11.3088 22 11.9263V11H22.9H25H27.0875H28C28 11 28 11.3088 28 11.9263V11H28.9H31H33.0875H34C34 11 34 11.3088 34 11.9263V14.0455V16.1773V17.0909C34 17.0909 33.6958 17.0909 33.0875 17.0909H31H28.9H28C28 17.0909 28 16.7864 28 16.1773V17.0909C28 17.0909 27.6958 17.0909 27.0875 17.0909H25H22.9H22C22 17.0909 22 16.7864 22 16.1773V17.0909C22 17.0909 21.6958 17.0909 21.0875 17.0909H19H16.9H16Z" fill="white"></path>
<path d="M54.5109 78C54.5109 78 54.5109 77.6955 54.5109 77.0864V74.9545V72.8354V71.9091H55.4293H57.5721H59.7021H60.6332C60.6332 71.9091 60.6332 72.2179 60.6332 72.8354V71.9091H61.5516H63.6944H65.8244H66.7555C66.7555 71.9091 66.7555 72.2179 66.7555 72.8354V71.9091H67.6738H69.8166H71.9467H72.8778C72.8778 71.9091 72.8778 72.2179 72.8778 72.8354V74.9545V77.0864V78C72.8778 78 72.5674 78 71.9467 78H69.8166H67.6738H66.7555C66.7555 78 66.7555 77.6955 66.7555 77.0864V78C66.7555 78 66.4451 78 65.8244 78H63.6944H61.5516H60.6332C60.6332 78 60.6332 77.6955 60.6332 77.0864V78C60.6332 78 60.3229 78 59.7021 78H57.5721H55.4293H54.5109ZM48.3887 71.9091C48.3887 71.9091 48.3887 71.6045 48.3887 70.9955V68.8636V66.7445V65.8182C48.3887 65.8182 48.3887 65.5136 48.3887 64.9045V62.7727V60.6536V59.7273C48.3887 59.7273 48.3887 59.4227 48.3887 58.8136V56.6818V54.5627V53.6364C48.3887 53.6364 48.3887 53.3318 48.3887 52.7227V50.5909V48.4718V47.5455C48.3887 47.5455 48.3887 47.2409 48.3887 46.6318V44.5V42.3809V41.4545C48.3887 41.4545 48.3887 41.15 48.3887 40.5409V38.4091V36.29V35.3636C48.3887 35.3636 48.3887 35.0591 48.3887 34.45V32.3182V30.1991V29.2727C48.3887 29.2727 48.3887 28.9682 48.3887 28.3591V26.2273V24.1081V23.1818C48.3887 23.1818 48.3887 22.8773 48.3887 22.2682V20.1364V18.0172V17.0909H49.307H51.4498H53.5799H54.5109C54.5109 17.0909 54.5109 17.3997 54.5109 18.0172V20.1364V22.2682V23.1818C54.5109 23.1818 54.2006 23.1818 53.5799 23.1818H54.5109C54.5109 23.1818 54.5109 23.4906 54.5109 24.1081V26.2273V28.3591V29.2727C54.5109 29.2727 54.2006 29.2727 53.5799 29.2727H54.5109C54.5109 29.2727 54.5109 29.5815 54.5109 30.1991V32.3182V34.45V35.3636C54.5109 35.3636 54.2006 35.3636 53.5799 35.3636H54.5109C54.5109 35.3636 54.5109 35.6724 54.5109 36.29V38.4091V40.5409V41.4545C54.5109 41.4545 54.2006 41.4545 53.5799 41.4545H54.5109C54.5109 41.4545 54.5109 41.7633 54.5109 42.3809V44.5V46.6318V47.5455C54.5109 47.5455 54.2006 47.5455 53.5799 47.5455H54.5109C54.5109 47.5455 54.5109 47.8542 54.5109 48.4718V50.5909V52.7227V53.6364C54.5109 53.6364 54.2006 53.6364 53.5799 53.6364H54.5109C54.5109 53.6364 54.5109 53.9451 54.5109 54.5627V56.6818V58.8136V59.7273C54.5109 59.7273 54.2006 59.7273 53.5799 59.7273H54.5109C54.5109 59.7273 54.5109 60.036 54.5109 60.6536V62.7727V64.9045V65.8182C54.5109 65.8182 54.2006 65.8182 53.5799 65.8182H54.5109C54.5109 65.8182 54.5109 66.127 54.5109 66.7445V68.8636V70.9955V71.9091C54.5109 71.9091 54.2006 71.9091 53.5799 71.9091H51.4498H49.307H48.3887ZM72.8778 71.9091C72.8778 71.9091 72.8778 71.6045 72.8778 70.9955V68.8636V66.7445V65.8182C72.8778 65.8182 72.8778 65.5136 72.8778 64.9045V62.7727V60.6536V59.7273H73.7961H75.9389H78.069H79.0001C79.0001 59.7273 79.0001 60.036 79.0001 60.6536V62.7727V64.9045V65.8182C79.0001 65.8182 78.6897 65.8182 78.069 65.8182H79.0001C79.0001 65.8182 79.0001 66.127 79.0001 66.7445V68.8636V70.9955V71.9091C79.0001 71.9091 78.6897 71.9091 78.069 71.9091H75.9389H73.7961H72.8778ZM72.8778 29.2727C72.8778 29.2727 72.8778 28.9682 72.8778 28.3591V26.2273V24.1081V23.1818C72.8778 23.1818 72.8778 22.8773 72.8778 22.2682V20.1364V18.0172V17.0909H73.7961H75.9389H78.069H79.0001C79.0001 17.0909 79.0001 17.3997 79.0001 18.0172V20.1364V22.2682V23.1818C79.0001 23.1818 78.6897 23.1818 78.069 23.1818H79.0001C79.0001 23.1818 79.0001 23.4906 79.0001 24.1081V26.2273V28.3591V29.2727C79.0001 29.2727 78.6897 29.2727 78.069 29.2727H75.9389H73.7961H72.8778ZM54.5109 17.0909C54.5109 17.0909 54.5109 16.7864 54.5109 16.1773V14.0455V11.9263V11H55.4293H57.5721H59.7021H60.6332C60.6332 11 60.6332 11.3088 60.6332 11.9263V11H61.5516H63.6944H65.8244H66.7555C66.7555 11 66.7555 11.3088 66.7555 11.9263V11H67.6738H69.8166H71.9467H72.8778C72.8778 11 72.8778 11.3088 72.8778 11.9263V14.0455V16.1773V17.0909C72.8778 17.0909 72.5674 17.0909 71.9467 17.0909H69.8166H67.6738H66.7555C66.7555 17.0909 66.7555 16.7864 66.7555 16.1773V17.0909C66.7555 17.0909 66.4451 17.0909 65.8244 17.0909H63.6944H61.5516H60.6332C60.6332 17.0909 60.6332 16.7864 60.6332 16.1773V17.0909C60.6332 17.0909 60.3229 17.0909 59.7021 17.0909H57.5721H55.4293H54.5109Z" fill="white"></path>
</svg><style>@media (prefers-color-scheme: light) { :root { filter: none; } }
@media (prefers-color-scheme: dark) { :root { filter: none; } }
</style></svg>